<svg width="28" height="31" viewBox="0 0 28 31" fill="none" xmlns="http://www.w3.org/2000/svg" role="presentation" alt="">
<path d="M8.17929 9.91682L7.56434 9.30696L7.52368 9.27138C5.84147 10.0795 3.76283 9.81518 2.33473 8.44298C0.906622 7.07079 0.571195 5.14971 1.21156 3.4675L1.22172 3.44717L4.21515 6.31354L6.66987 3.74702L3.67644 0.885742" stroke="currentColor" stroke-linecap="round" stroke-linejoin="round"/>
<path d="M22.333 19.3196L26.4648 23.3955C27.1103 24.0156 27.1357 25.0422 26.5156 25.6876C25.8956 26.333 24.869 26.3585 24.2236 25.7384L13.9219 15.5791" stroke="currentColor" stroke-linecap="round" stroke-linejoin="round"/>
<path d="M3.73828 0.860683C5.37984 0.169503 7.34666 0.469353 8.71886 1.78056C10.0911 3.09177 10.5078 5.21613 9.77089 6.92884L9.81154 6.96441L11.4175 8.54498" stroke="currentColor" stroke-linecap="round" stroke-linejoin="round"/>
<path d="M12.6923 19.2887C12.8803 19.0702 13.1344 18.7347 13.353 18.2824C14.0136 16.9204 13.8104 15.6244 13.7341 15.1873C13.541 14.0439 13.0226 13.2256 12.6923 12.7885C13.7138 13.7745 14.7302 14.7604 15.7518 15.7413C16.011 15.7972 17.4289 16.0767 18.5673 15.1873C18.6385 15.1314 18.7096 15.0705 18.7706 15.0095C19.1314 14.6639 19.1111 14.0794 18.7452 13.7389C17.1341 12.2397 15.5281 10.7404 13.9171 9.24117C13.358 8.92099 12.8549 8.7736 12.5195 8.69737C11.1879 8.4026 10.1308 8.73803 9.66834 8.89049C9.14995 9.06329 8.83994 9.1751 8.55533 9.48003C7.9353 10.1458 8.05219 11.0047 8.06744 11.1267L7.65069 16.5494L0.5 23.2376L7.83365 30.5L14.9183 23.5222L17.2815 23.4154L20.8696 20.0307" stroke="currentColor" stroke-linecap="round" stroke-linejoin="round"/>
<path d="M13.3379 8.96648L15.0201 7.44182C15.2132 7.26394 15.5131 7.26902 15.7011 7.45198L17.5866 9.25108" stroke="currentColor" stroke-linecap="round" stroke-linejoin="round"/>
<path d="M15.8438 11.04L18.1053 9.00207C18.2883 8.83944 18.5678 8.84452 18.7406 9.01731L20.6922 10.9841C20.8243 11.1213 20.8243 11.3348 20.6922 11.472L18.5831 13.5862" stroke="currentColor" stroke-linecap="round" stroke-linejoin="round"/>
<path d="M20.7077 11.4468L21.0584 11.1165C21.155 11.025 21.3074 11.025 21.3989 11.1165L23.3861 13.0833C23.4877 13.1849 23.4928 13.3526 23.3861 13.4543L19.0712 17.9368L16.957 15.8124" stroke="currentColor" stroke-linecap="round" stroke-linejoin="round"/>
<path d="M22.6424 14.4453L24.6854 16.4121C24.843 16.5646 24.8481 16.8187 24.6854 16.9712L21.4938 20.1425C21.3566 20.2797 21.133 20.2848 20.9907 20.1526L19.0899 18.4196C18.9476 18.2925 18.9425 18.074 19.0696 17.9368L19.3135 17.6725" stroke="currentColor" stroke-linecap="round" stroke-linejoin="round"/>
</svg>
