<svg xmlns="http://www.w3.org/2000/svg" viewBox="0 0 60 60" role="presentation" alt=""><path d="M30.03 22.25c1.19 0 2.15-.96 2.15-2.15s-.96-2.15-2.15-2.15-2.15.96-2.15 2.15.96 2.15 2.15 2.15m0-3.3c.63 0 1.15.52 1.15 1.15s-.52 1.15-1.15 1.15-1.15-.52-1.15-1.15.52-1.15 1.15-1.15M30.03 17.1c.28 0 .5-.22.5-.5V5.22c0-.28-.22-.5-.5-.5s-.5.22-.5.5v11.39c0 .28.22.5.5.5Z"/><path d="M56.14 17.34H40.11L32.12 1.33C31.71.52 30.9.01 29.99.01s-1.72.5-2.12 1.31l-8 16.01H3.86c-.28 0-.5.22-.5.5V34.5c0 .28.22.5.5.5h3.37v24.53c0 .28.22.5.5.5h3.82c.28 0 .5-.22.5-.5V43.86h35.96v15.67c0 .28.22.5.5.5h3.82c.28 0 .5-.22.5-.5V35h3.32c.28 0 .5-.22.5-.5V17.83c0-.28-.22-.5-.5-.5Zm-.5 1v4.85L44.77 34.01H32.86l8.25-7.93h1.21c.47 0 .9-.24 1.14-.64.25-.4.27-.89.06-1.31l-2.9-5.8h15.03ZM11.55 34.01h-.75l7.97-7.93h9.95l-7.97 7.93zm18.58-7.93h9.53l-8.02 7.71c-.06.06-.1.14-.13.22h-9.35zM28.76 1.77c.24-.48.7-.76 1.23-.76s.99.28 1.23.76l11.39 22.81c.08.15.02.28-.02.33s-.12.16-.29.16H17.68c-.18 0-.27-.12-.3-.17a.36.36 0 0 1-.02-.35l3.18-6.37a.5.5 0 0 0 .13-.27zM11.39 18.34l-7.03 7v-7zm-7.03 8.41 8.45-8.41h6.56l-2.89 5.78a1.35 1.35 0 0 0 .9 1.92l-8.01 7.97H4.35v-7.26Zm6.69 32.29H8.23V35.01h2.82zm1-16.18V35h35.96v7.86zm39.77 16.18H49V35.01h2.82zm.5-25.03h-6.14l9.46-9.41v9.41z"/></svg>