<svg xmlns="http://www.w3.org/2000/svg" viewBox="0 0 60 60" role="presentation" alt=""><circle cx="29.78" cy="20.12" r="1.65"/><path d="M28.07 1.63 16.73 24.34a.86.86 0 0 0 .77 1.24h24.53a.84.84 0 0 0 .75-1.22L31.42 1.63c-.69-1.38-2.66-1.38-3.36 0ZM29.78 5.27v11.36"/><path d="M39.69 17.86h16.13v16.62H3.68V17.86h16.31"/><path d="M7.54 34.48h3.81v24.95H7.54zM48.2 34.48h3.81v24.95H48.2zM11.35 43.31H48.2M5.98 59.43h7.05M46.58 59.43h7.05M12.4 17.86l-8.72 8.67M18.23 25.69l-8.72 8.67M29.57 25.69l-8.72 8.67M40.62 25.58l-8.88 8.54M48.5 18l-5.93 5.7M55.72 23.5 44.8 34.36"/></svg>