<svg xmlns="http://www.w3.org/2000/svg" viewBox="0 0 60 61" class="icon" fill="none" stroke="currentColor" role="presentation" alt=""><path d="M35.45 57.21c2.59 1.99 5.77 3.09 9.04 3.09 8.23 0 14.92-6.75 14.92-15.05 0-4.31-1.82-8.2-4.71-10.94V14.12a.5.5 0 0 0-.14-.35L41.86.87a.6.6 0 0 0-.16-.11.4.4 0 0 0-.19-.04H8.96c-.28 0-.5.22-.5.5v18.03h-7.4c-.28 0-.5.22-.5.5v36.96c0 .28.22.5.5.5zm22.96-11.96c0 7.75-6.25 14.05-13.92 14.05-3.09 0-6.11-1.06-8.54-2.97V34.16c2.46-1.94 5.41-2.96 8.54-2.96 7.68 0 13.92 6.3 13.92 14.05M42 2.44l11.17 11.34H42zM9.46 1.72H41v12.56c0 .28.22.5.5.5h12.2v18.65c-2.54-2.02-5.74-3.24-9.21-3.24-3.06 0-6.05.96-8.54 2.72V19.75c0-.28-.22-.5-.5-.5H9.46zm-7.9 18.54h33.39v35.89s-.01 0-.02.01c-.01.02-.02.03-.03.05H1.56z"/><path d="M29.08 25.43H5.69c-.24 0-.44.2-.44.44v5.15c0 .24.2.44.44.44h23.4c.24 0 .44-.2.44-.44v-5.15c0-.24-.2-.44-.44-.44Zm-.43 5.16H6.12v-4.28h22.52v4.28ZM11.94 36.53H5.69c-.24 0-.44.2-.44.44v4.77c0 .24.2.44.44.44h6.25c.24 0 .44-.2.44-.44v-4.77c0-.24-.2-.44-.44-.44m-.44 4.78H6.12v-3.9h5.38zM11.94 47.08H5.69c-.24 0-.44.2-.44.44v4.77c0 .24.2.44.44.44h6.25c.24 0 .44-.2.44-.44v-4.77c0-.24-.2-.44-.44-.44m-.44 4.77H6.12v-3.9h5.38zM46.26 39.58c1.02.63 1.48 1.56 1.67 2.05.1.26.39.39.64.29.26-.1.39-.39.29-.64-.23-.61-.81-1.76-2.07-2.55a5.3 5.3 0 0 0-2.1-.71v-2.19c0-.28-.22-.5-.5-.5s-.5.22-.5.5V38c-.21.02-.42.05-.65.1-1.68.37-2.75 1.15-3.17 2.32a3.4 3.4 0 0 0 .29 2.85c.63 1.03 1.82 1.62 3.53 1.77v4.98c-.46-.11-.84-.28-1.06-.38a5.6 5.6 0 0 1-2.24-1.88.51.51 0 0 0-.7-.13.51.51 0 0 0-.13.7c.47.68 1.32 1.62 2.65 2.22.3.14.82.36 1.47.49v1.97c0 .28.22.5.5.5s.5-.22.5-.5v-1.87c.36 0 .75-.05 1.15-.15.55-.15 2.21-.59 2.82-2.19.49-1.31 0-2.62-.56-3.35-.8-1.03-1.93-1.26-2.41-1.36-.46-.1-.74-.08-1.01-.05v-4.98c.83.12 1.42.46 1.57.55Zm-5.25 3.16c-.36-.58-.43-1.34-.2-1.98.45-1.24 1.95-1.57 2.44-1.68.15-.03.29-.05.43-.06v5.01c-.63-.06-2.04-.24-2.67-1.29m3.69 2.27c.26-.03.43-.04.79.03.41.08 1.25.26 1.82 1 .41.52.76 1.46.42 2.38-.42 1.12-1.67 1.46-2.14 1.58-.31.08-.61.11-.9.12v-5.11z"/></svg>