<svg xmlns="http://www.w3.org/2000/svg" viewBox="0 0 60 60" role="presentation" alt=""><path d="M53.07 11.79a.496.496 0 0 0-.7-.08c-.22.17-.25.49-.08.7 4.05 5.09 6.19 11.22 6.19 17.74 0 6.18-1.95 12.04-5.62 16.98L48 43.27v-5.26c0-.11-.03-.21-.1-.29l-3.36-4.62v-4.22l1.84-1.98h4.03c.28 0 .5-.22.5-.5v-1.29l1.6-2.03q.06-.075.09-.18c.31-1.14-.11-2.32-1.04-2.92-1.01-.66-2.11-.29-2.4-.18l-1.66.98-3.36-2.02a.5.5 0 0 0-.26-.07h-6.84v-1.78l2.55-2.39a.5.5 0 0 0 .16-.36v-1.87l1.81-2.46a.5.5 0 0 0 .03-.55l-1.33-2.33 1.17-2.87c.35.16.71.31 1.06.48.07.03.15.05.22.05a.5.5 0 0 0 .22-.95A29.24 29.24 0 0 0 30.01.69c-3.88 0-7.66.74-11.21 2.21-.26.1-.38.4-.27.65.11.26.4.38.65.27.36-.15.71-.28 1.07-.41.01.03.02.06.04.09l1.72 2.15v5.04c0 .21.14.4.34.47.51.17 1.22.53 1.7 1.24.21.32.48.71.39 1.13-.06.26-.24.45-.37.56l-4.91 3.93h-4.6c-.28 0-.5.22-.5.5v3.92c0 .15.07.3.19.39l1.77 1.42c.09.07.2.11.31.11.15 0 .29-.06.39-.19.17-.22.14-.53-.08-.7l-1.58-1.27v-3.18h4.27c.11 0 .22-.04.31-.11l5.05-4.05c.37-.3.61-.69.71-1.1.19-.84-.26-1.51-.53-1.91-.53-.79-1.26-1.24-1.87-1.5V5.48a.5.5 0 0 0-.11-.31l-1.67-2.09a28.5 28.5 0 0 1 8.77-1.38c3.65 0 7.17.68 10.5 2.01l-1.26 3.1c-.06.14-.05.3.03.44l1.29 2.26-1.72 2.33c-.06.09-.1.19-.1.3v1.82l-2.55 2.39a.5.5 0 0 0-.16.36v2.5c0 .28.22.5.5.5h7.2l3.5 2.1c.16.09.35.1.51 0l1.84-1.09c.08-.03.81-.29 1.43.12.53.35.79 1.05.65 1.73l-1.64 2.08a.5.5 0 0 0-.11.31v.96h-3.75c-.14 0-.27.06-.37.16l-2.12 2.29c-.09.09-.13.21-.13.34v4.58c0 .11.03.21.1.29l3.36 4.62v5.34c0 .15.07.3.19.39l5.06 4.01C46.8 54.75 38.74 58.65 30 58.65c-15.7 0-28.48-12.78-28.48-28.48 0-4.3.96-8.45 2.78-12.25l1.96 1.59v4.1c0 .15.07.3.19.39l4.6 3.59v1.27l-1.69 1.39c-.12.1-.18.24-.18.39v3.75c0 .18.1.35.26.44l6.74 3.69v6.05c0 .1.03.2.09.29l1.95 2.78v4.54c0 .13.05.26.15.35.09.09.22.15.35.15h2.69c.88-.02 1.34-1.23 1.7-2.48.38-1.31 1.46-3 3.19-5.02.08-.09.12-.21.12-.33v-2.84l5.35-4.22c.12-.09.19-.24.19-.39v-4.79c0-.28-.22-.5-.5-.5h-4.67c-.28 0-.5.22-.5.5s.22.5.5.5h4.17v4.05l-5.35 4.22c-.12.1-.19.24-.19.39v2.9c-1.78 2.1-2.85 3.82-3.29 5.33-.43 1.5-.74 1.67-.75 1.68h-2.17v-4.2c0-.1-.03-.2-.09-.29l-1.95-2.78v-6.19c0-.18-.1-.35-.26-.44l-6.74-3.69v-3.22l1.69-1.39c.12-.1.18-.24.18-.39v-1.75c0-.15-.07-.3-.19-.39l-4.6-3.59v-4.1c0-.15-.07-.29-.19-.39l-2.32-1.88c.65-1.25 1.4-2.46 2.24-3.61.16-.22.11-.54-.11-.7a.5.5 0 0 0-.7.11C2.48 17.84.52 23.85.52 30.15.52 46.41 13.74 59.63 30 59.63c9.31 0 17.89-4.26 23.52-11.7 3.9-5.15 5.96-11.3 5.96-17.78s-2.22-13.09-6.41-18.36"/><path d="M10.74 16.94c.28 0 .5-.22.5-.5v-6.3c2.28-.25 4.06-2.17 4.06-4.51 0-2.52-2.05-4.56-4.56-4.56S6.18 3.12 6.18 5.63c0 2.34 1.78 4.26 4.06 4.51v6.3c0 .28.22.5.5.5M7.18 5.62c0-1.96 1.6-3.56 3.56-3.56s3.56 1.6 3.56 3.56-1.6 3.56-3.56 3.56-3.56-1.6-3.56-3.56M22.37 37.01c.28 0 .5-.22.5-.5v-6.3c2.28-.25 4.06-2.17 4.06-4.51 0-2.52-2.05-4.56-4.56-4.56s-4.56 2.05-4.56 4.56c0 2.34 1.78 4.26 4.06 4.51v6.3c0 .28.22.5.5.5M18.81 25.7c0-1.96 1.6-3.56 3.56-3.56s3.56 1.6 3.56 3.56-1.6 3.56-3.56 3.56-3.56-1.6-3.56-3.56M44.49 4.94c0 2.34 1.78 4.26 4.06 4.51v6.3c0 .28.22.5.5.5s.5-.22.5-.5v-6.3c2.28-.25 4.06-2.17 4.06-4.51 0-2.52-2.05-4.56-4.56-4.56s-4.56 2.05-4.56 4.56m8.13 0c0 1.96-1.6 3.56-3.56 3.56S45.5 6.9 45.5 4.94s1.6-3.56 3.56-3.56 3.56 1.6 3.56 3.56"/></svg>