<svg xmlns="http://www.w3.org/2000/svg" viewBox="0 0 60 60"><path d="M52.94 47.48c-5.29 6.99-13.68 11.5-23.12 11.5C13.82 58.98.85 46.01.85 30c0-6.39 2.07-12.29 5.57-17.08"/><path d="M52.5 11.95c3.95 4.95 6.3 11.22 6.3 18.05s-2.18 12.62-5.86 17.48M18.8 3.19c3.4-1.4 7.12-2.17 11.02-2.17 4.56 0 8.87 1.05 12.7 2.92M4.17 17.14c.81.65 1.61 1.31 2.42 1.96v4.33h0c1.6 1.26 3.19 2.5 4.79 3.75v1.75L9.5 30.47v3.75c2.33 1.28 4.67 2.56 7 3.83v6.34h0l2.04 2.91V52h2.69c.66-.01 1.12-1.73 1.23-2.12.3-1.03 1.1-2.65 3.29-5.21v-3.08c1.85-1.46 3.69-2.92 5.54-4.38v-4.79h-4.67"/><path d="M20.5 3.01c.61.76 1.22 1.53 1.83 2.29v5.21c.46.16 1.35.54 1.96 1.43.25.36.6.89.46 1.52-.1.42-.38.7-.54.83-1.68 1.35-3.36 2.69-5.04 4.04H14.4v3.92c.59.47 1.18.94 1.77 1.42M40.98 3.25l-1.45 3.57c.48.85.97 1.69 1.45 2.54-.64.86-1.28 1.73-1.91 2.59v2.03c-.9.85-1.81 1.69-2.71 2.54v2.5h7.34l3.62 2.17 1.92-1.12c.1-.04 1.04-.38 1.88.17.74.48 1.08 1.44.83 2.38-.57.72-1.14 1.44-1.71 2.17v1.46h-4.25c-.71.76-1.42 1.52-2.12 2.29v4.58l3.46 4.75v5.5c1.73 1.37 3.46 2.74 5.18 4.11"/><circle cx="10.57" cy="5.48" r="4.06"/><path d="M10.57 9.54v6.75"/><circle cx="22.19" cy="25.55" r="4.06"/><path d="M22.19 29.61v6.75"/><circle cx="48.88" cy="4.79" r="4.06"/><path d="M48.88 8.85v6.75"/></svg>