<svg width="10" height="23" viewBox="0 0 10 23" fill="none" xmlns="http://www.w3.org/2000/svg">
<path d="M6.59746 16.6804C6.59746 18.4753 6.59746 20.2681 6.59746 22.063C6.59746 22.2222 6.59746 22.2222 6.44125 22.2222C5.05562 22.2222 3.66999 22.2222 2.28233 22.2222C2.13018 22.2222 2.12815 22.2201 2.12815 22.063C2.12612 21.1373 2.12409 20.2137 2.12409 19.288C2.12409 18.3664 2.12815 17.4449 2.12815 16.5233C2.12815 15.6269 2.12409 14.7305 2.12409 13.832C2.12409 12.9838 2.12815 12.1356 2.12815 11.2873C2.12815 11.1198 2.12612 11.1198 1.96382 11.1177C1.36128 11.1156 0.760778 11.1156 0.158242 11.1135C0.00405749 11.1135 0.00202874 11.1135 0.00202874 10.9606C0.00202874 10.0286 0.00202874 9.09657 0.00202874 8.16456C0.00202874 7.90276 0 7.64096 0 7.37916C0 7.19066 0 7.19066 0.178529 7.19066C0.777008 7.19066 1.37549 7.19276 1.97396 7.19276C2.12206 7.19276 2.13018 7.18857 2.13018 7.03358C2.13018 6.48275 2.12206 5.92983 2.12815 5.379C2.13221 4.91404 2.12409 4.44908 2.16872 3.98831C2.22553 3.40188 2.37363 2.8322 2.62925 2.29813C2.89704 1.73892 3.25613 1.2593 3.73897 0.882307C4.09806 0.601657 4.49772 0.396405 4.92984 0.25608C5.59121 0.0382612 6.27287 -0.00572132 6.96061 0.000561906C7.91412 0.00893953 8.86763 0.0110339 9.82113 0.0110339C9.92663 0.0110339 9.95097 0.0508277 9.95097 0.151359C9.94894 1.3347 9.94894 2.51804 9.95097 3.70138C9.95097 3.79772 9.9246 3.82704 9.83128 3.82704C9.0847 3.82285 8.33609 3.82495 7.58952 3.82495C7.31767 3.82495 7.06407 3.88359 6.86729 4.09303C6.68267 4.28781 6.60355 4.53286 6.60152 4.79675C6.59341 5.55702 6.59949 6.31939 6.59544 7.07966C6.59544 7.19066 6.65021 7.19276 6.72933 7.19276C7.77008 7.19066 8.81285 7.19276 9.85359 7.19276C10.0057 7.19276 10.0098 7.19485 9.99358 7.35193C9.93677 7.92161 9.87388 8.48919 9.81708 9.05887C9.7765 9.461 9.73998 9.86312 9.69941 10.2673C9.67506 10.5145 9.64666 10.7595 9.62434 11.0067C9.61623 11.0967 9.57565 11.124 9.49248 11.124C8.98123 11.1219 8.47202 11.1219 7.96078 11.1198C7.54083 11.1198 7.12291 11.1219 6.70296 11.1156C6.59746 11.1135 6.59341 11.1742 6.59341 11.2559C6.59544 12.1188 6.59544 12.9796 6.59544 13.8425C6.59949 14.7892 6.59949 15.7337 6.59746 16.6804C6.59949 16.6804 6.59746 16.6804 6.59746 16.6804Z" />
</svg>
