<svg xmlns="http://www.w3.org/2000/svg" viewBox="0 0 60 60" class="icon" fill="none" stroke="currentColor" role="presentation" alt=""><path d="M58.79 21.8h-23.9V1.33c0-.28-.22-.5-.5-.5H1.23c-.28 0-.5.22-.5.5v26.1c0 .28.22.5.5.5h7.03v10.4c0 .2.12.38.3.46.06.03.13.04.2.04.12 0 .24-.04.34-.13l11.87-10.77h4.31V48.4c0 .28.22.5.5.5h13.37l11.82 10.25c.09.08.21.12.33.12.07 0 .14-.01.21-.04.18-.08.29-.26.29-.46V48.9h7c.28 0 .5-.22.5-.5V22.3c0-.28-.22-.5-.5-.5Zm-38.02 5.13c-.12 0-.24.05-.34.13L9.25 37.2v-9.77c0-.28-.22-.5-.5-.5H1.73V1.83h32.16V21.8h-8.12c-.28 0-.5.22-.5.5v4.63zm37.52 20.96h-7c-.28 0-.5.22-.5.5v9.28l-11.13-9.66a.5.5 0 0 0-.33-.12H26.27v-25.1h32.02z"/><path d="M49.7 44.66h-6.32c-1.04 0-2.05-.19-3.01-.55l-2.56-.97h-4.65c-.28 0-.5-.22-.5-.5v-8.93c0-.27.22-.5.49-.5l4.64-.06c.67-.29 1.58-.84 2.24-1.86.24-.36.38-.77.5-1.13l.08-.24c.21-.6.65-1.84.77-3.62 0-.15.03-1.07.73-1.58 1-.71 2.35.04 2.92.54.8.68 1.03 1.57 1.13 1.96.23.88.12 1.57.01 2.24-.13.8-.37 1.57-.7 2.3h5.28c1.14 0 2.06.93 2.06 2.06 0 .6-.26 1.14-.67 1.52.36.32.6.76.67 1.25.11.77-.23 1.54-.85 2.01.18.31.33.73.34 1.22 0 .24 0 .88-.44 1.38-.18.2-.4.34-.61.45q.24.435.24.9c.01.93-.68 1.8-1.69 2.11-.05.02-.1.02-.15.02Zm-16.04-2.53h4.24q.09 0 .18.03l2.65 1.01c.84.32 1.73.49 2.65.49h6.24c.55-.19.92-.65.92-1.12 0-.19-.08-.39-.22-.58l-1.46-.06a.5.5 0 0 1 .02-1h1.59c.41-.15.59-.29.68-.39.18-.21.18-.54.18-.71 0-.43-.21-.77-.36-.96h-2.21c-.28 0-.5-.22-.5-.5s.22-.5.5-.5h2.53c.4-.25.62-.69.55-1.13-.06-.39-.33-.73-.72-.88-.12.02-.23.03-.35.03h-2.15c-.28 0-.5-.22-.5-.5s.22-.5.5-.5h2.15c.59 0 1.06-.48 1.06-1.06s-.48-1.06-1.06-1.06h-6.09c-.18 0-.34-.09-.43-.25a.5.5 0 0 1 0-.5c.48-.86.8-1.77.96-2.7.1-.63.19-1.17 0-1.85-.08-.32-.25-.97-.81-1.45-.45-.39-1.28-.78-1.69-.49-.25.19-.32.61-.32.81-.13 1.95-.62 3.33-.83 3.92l-.07.21c-.14.42-.31.92-.61 1.37-.83 1.29-1.98 1.95-2.79 2.28-.06.02-.12.04-.18.04l-4.25.05v7.94Z"/></svg>