<svg xmlns="http://www.w3.org/2000/svg" viewBox="0 0 60 60" role="presentation" alt=""><path d="M52.38 43.11a.5.5 0 0 0-.35-.35l-5.91-1.59c-.17-.05-.36 0-.48.13l-4.33 4.33c-.13.13-.18.31-.13.48l1.59 5.92c.05.17.18.31.35.35l5.91 1.59s.09.02.13.02c.13 0 .26-.05.35-.15l4.33-4.33c.13-.13.18-.31.13-.48l-1.58-5.91ZM49 52.92l-5.36-1.44-1.44-5.36 3.93-3.92 5.36 1.44L52.93 49z"/><path d="M45.58 35.45 24.95 14.81c.63-3.9-.64-7.87-3.44-10.67A12.32 12.32 0 0 0 10.59.75c-.18.03-.33.17-.39.34-.06.18 0 .37.12.5l5.52 5.53c.66.66 1.03 1.54 1.03 2.48s-.37 1.82-1.03 2.48l-3.77 3.77c-1.33 1.32-3.63 1.33-4.95 0L1.6 10.33a.49.49 0 0 0-.5-.12c-.18.06-.31.2-.34.39-.73 3.99.54 8.07 3.39 10.92 2.79 2.8 6.76 4.08 10.66 3.43l20.65 20.64c-.64 3.9.63 7.87 3.43 10.67 2.32 2.32 5.4 3.6 8.68 3.6s6.37-1.28 8.69-3.6c4.79-4.79 4.79-12.58 0-17.37a12.31 12.31 0 0 0-10.67-3.43Zm9.97 20.1c-2.13 2.13-4.96 3.3-7.98 3.3s-5.85-1.17-7.98-3.3a11.27 11.27 0 0 1-3.11-10.04.48.48 0 0 0-.14-.44L15.33 24.05a.5.5 0 0 0-.35-.15h-.09c-3.66.68-7.41-.48-10.03-3.11a11.28 11.28 0 0 1-3.25-9.06l4.82 4.82c.85.85 1.98 1.32 3.18 1.32s2.33-.47 3.18-1.32l3.77-3.77c.85-.85 1.32-1.98 1.32-3.19s-.47-2.33-1.32-3.19l-4.82-4.8c3.34-.33 6.67.86 9.06 3.24a11.3 11.3 0 0 1 3.11 10.04c-.03.16.02.33.14.44l21 21.01c.12.12.28.17.44.14 3.67-.68 7.42.48 10.04 3.11 4.4 4.4 4.4 11.55 0 15.96Z"/></svg>