<svg xmlns="http://www.w3.org/2000/svg" viewBox="0 0 60 60">
  <path d="m18.65 19.01-1.21-1.2-.08-.07c-3.31 1.59-7.4 1.07-10.21-1.63S3.68 9.63 4.94 6.32l.02-.04 5.89 5.64 4.83-5.05-5.89-5.63M46.5 37.51l8.13 8.02a3.19 3.19 0 0 1 .1 4.51h0a3.19 3.19 0 0 1-4.51.1L29.95 30.15" />
  <path d="M9.91 1.19c3.23-1.36 7.1-.77 9.8 1.81s3.52 6.76 2.07 10.13l.08.07 3.16 3.11M27.53 37.45c.37-.43.87-1.09 1.3-1.98 1.3-2.68.9-5.23.75-6.09-.38-2.25-1.4-3.86-2.05-4.72 2.01 1.94 4.01 3.88 6.02 5.81.51.11 3.3.66 5.54-1.09.14-.11.28-.23.4-.35.71-.68.67-1.83-.05-2.5-3.17-2.95-6.33-5.9-9.5-8.85a9.92 9.92 0 0 0-2.75-1.07c-2.62-.58-4.7.08-5.61.38-1.02.34-1.63.56-2.19 1.16-1.22 1.31-.99 3-.96 3.24l-.82 10.67L3.54 45.22l14.43 14.29 13.94-13.73 4.65-.21 7.06-6.66" />
  <path d="m28.8 17.14 3.31-3c.38-.35.97-.34 1.34.02l3.71 3.54M33.73 21.22l4.45-4.01c.36-.32.91-.31 1.25.03l3.84 3.87c.26.27.26.69 0 .96l-4.15 4.16" />
  <path d="m43.3 22.02.69-.65c.19-.18.49-.18.67 0l3.91 3.87c.2.2.21.53 0 .73l-8.49 8.82-4.16-4.18" />
  <path d="m47.11 27.92 4.02 3.87c.31.3.32.8 0 1.1l-6.28 6.24c-.27.27-.71.28-.99.02l-3.74-3.41a.668.668 0 0 1-.04-.95l.48-.52" />
</svg>