<svg xmlns="http://www.w3.org/2000/svg" fill="none" viewBox="0 0 204 56" width="204" height="56"><path fill="currentColor" d="M.284 10.39V4.357h1.82v6.035zm0-6.723V2h1.82v1.667zM9.104 10.39h-1.82V7q0-.598-.227-.862a.7.7 0 0 0-.58-.276q-.25 0-.512.138a1.7 1.7 0 0 0-.477.38q-.205.24-.319.551v3.46H3.35V4.356h1.638v1.012q.228-.356.569-.61.34-.252.785-.379.443-.138.966-.138.58 0 .933.219.363.207.546.551.192.346.25.748.068.39.068.77zM13.168 10.506q-.762 0-1.354-.253a3.1 3.1 0 0 1-1.012-.69 3 3 0 0 1-.625-1 3.3 3.3 0 0 1-.217-1.195q0-.828.376-1.54a3 3 0 0 1 1.103-1.15q.716-.437 1.729-.437 1.023 0 1.728.449.716.436 1.07 1.15l-1.775.54a1.2 1.2 0 0 0-.444-.426 1.17 1.17 0 0 0-.59-.15q-.377 0-.683.196-.296.195-.478.54a1.85 1.85 0 0 0-.17.828q0 .471.181.827.183.357.478.564.295.195.671.195.228 0 .42-.069.206-.08.365-.218.17-.139.261-.31l1.774.551a2.6 2.6 0 0 1-.625.828q-.398.356-.944.563a3.5 3.5 0 0 1-1.24.207M16.776 2h1.82v6.241q0 .38.136.54.136.162.387.162.17 0 .341-.046.181-.057.318-.127l.24 1.38a3.5 3.5 0 0 1-.785.252 4 4 0 0 1-.83.092q-.774 0-1.206-.413-.42-.426-.42-1.196zM20.551 8.218V4.356h1.82v3.46q0 .552.216.85.216.288.614.288.25 0 .478-.08.227-.093.443-.288t.387-.506V4.356h1.82v3.989q0 .276.08.39.09.105.306.127v1.529q-.25.045-.443.069a3 3 0 0 1-.33.023q-.479 0-.762-.196a.88.88 0 0 1-.353-.574l-.034-.368a2.53 2.53 0 0 1-1.023.885 3.2 3.2 0 0 1-1.354.276q-.91 0-1.387-.586-.478-.586-.478-1.702M30.024 10.506a4.5 4.5 0 0 1-1.49-.253 3.2 3.2 0 0 1-1.228-.747l.625-1.161q.546.402 1.058.609.524.207.978.207.352 0 .546-.115a.39.39 0 0 0 .193-.356.32.32 0 0 0-.113-.265 1 1 0 0 0-.353-.184 8 8 0 0 0-.568-.172 10 10 0 0 1-1.138-.448q-.454-.218-.682-.53-.227-.321-.227-.827 0-.609.295-1.057.307-.46.864-.713.558-.253 1.331-.253.615 0 1.194.196.591.195 1.103.655l-.705 1.15a4.8 4.8 0 0 0-.91-.518 2.1 2.1 0 0 0-.773-.16q-.193 0-.352.045a.54.54 0 0 0-.262.161.4.4 0 0 0-.091.276q0 .172.091.276.102.103.307.184l.535.172q.739.219 1.228.448.489.219.728.552.25.322.25.862 0 .92-.66 1.449-.648.516-1.774.517M33.391 10.39V4.357h1.82v6.035zm0-6.723V2h1.82v1.667zM38.003 10.39l-2.115-6.034h1.876l1.308 4.38 1.308-4.38h1.706l-2.104 6.035zM45.43 10.506q-.762 0-1.353-.242a3.15 3.15 0 0 1-1.012-.678 2.9 2.9 0 0 1-.626-.977 3.2 3.2 0 0 1-.216-1.172q0-.874.376-1.586a3 3 0 0 1 1.103-1.161q.716-.45 1.728-.449 1.012 0 1.718.437.716.436 1.091 1.15.376.701.376 1.528 0 .162-.023.322-.012.15-.023.265h-4.413q.034.402.217.678.193.275.489.425.295.138.625.138.41 0 .762-.195.365-.195.5-.53l1.547.438a2.6 2.6 0 0 1-.648.839 3.1 3.1 0 0 1-.978.563 3.5 3.5 0 0 1-1.24.207m-1.319-3.69h2.593a1.6 1.6 0 0 0-.216-.655 1.14 1.14 0 0 0-.455-.437 1.25 1.25 0 0 0-.626-.16 1.27 1.27 0 0 0-.636.16q-.273.15-.444.437a1.6 1.6 0 0 0-.216.655M2.502 22q-.74 0-1.387-.241A3 3 0 0 1 0 21.012l.387-.713q.51.483 1.023.69t1.046.206q.615 0 1.001-.23a.78.78 0 0 0 .387-.7q0-.334-.205-.495-.193-.16-.557-.264-.364-.115-.864-.253a7 7 0 0 1-1.035-.39 1.63 1.63 0 0 1-.637-.518q-.216-.31-.216-.782 0-.575.295-.965.297-.403.808-.61a3.2 3.2 0 0 1 1.183-.206q.66 0 1.194.207.534.205.921.609l-.455.7a2.3 2.3 0 0 0-.773-.54 2.3 2.3 0 0 0-.944-.183q-.307 0-.603.08a1 1 0 0 0-.489.264q-.193.185-.193.53 0 .286.148.459.159.161.454.276.308.114.74.253.67.195 1.16.39.5.196.773.506.273.311.273.862 0 .85-.637 1.334Q3.548 22 2.502 22M9.09 21.586q-.125.058-.341.15-.216.091-.5.16-.285.07-.603.07-.365 0-.671-.127a1.13 1.13 0 0 1-.49-.414q-.18-.287-.181-.712v-4.035h-.808v-.793h.808v-2h1v2h1.33v.793h-1.33v3.724q.023.323.216.483.194.15.455.15.296 0 .546-.104t.33-.15zM9.551 20.15q0-.575.319-.99.33-.424.898-.654.57-.23 1.32-.23.397 0 .84.069.444.057.785.184v-.437q0-.69-.409-1.08-.41-.403-1.16-.403-.489 0-.944.184-.443.173-.944.506l-.364-.713a4.7 4.7 0 0 1 1.16-.597 3.6 3.6 0 0 1 1.206-.207q1.137 0 1.797.643.66.633.66 1.77v2.54q0 .184.068.277.08.08.25.091v.782a5 5 0 0 1-.262.034 2 2 0 0 1-.17.012q-.354 0-.535-.195a.74.74 0 0 1-.193-.414l-.023-.38a2.53 2.53 0 0 1-1.012.782q-.625.276-1.24.276-.591 0-1.058-.241a1.9 1.9 0 0 1-.727-.667 1.76 1.76 0 0 1-.262-.943m3.867.425q.136-.162.216-.322a.7.7 0 0 0 .08-.288v-.747a4 4 0 0 0-.74-.206 3.7 3.7 0 0 0-.762-.081q-.761 0-1.24.31-.466.3-.466.828 0 .288.148.563.16.264.455.437.308.172.75.172.467 0 .888-.183.42-.196.67-.483M21.466 21.885h-1V18.53q-.001-.954-.296-1.391-.285-.448-.876-.448a1.8 1.8 0 0 0-.819.207 2.5 2.5 0 0 0-.716.563q-.308.345-.444.804v3.621h-1v-6h.91v1.287q.238-.424.613-.735a2.926 2.926 0 0 1 1.854-.655q.512 0 .853.195.352.184.546.529.204.333.284.793.09.46.091 1zM22.636 18.897q0-.851.341-1.552.352-.713.955-1.138.614-.425 1.4-.425.716 0 1.284.379.57.38.887.92v-3.587h1.001v7.242q0 .183.068.276.08.08.25.091v.782q-.284.046-.443.046a.75.75 0 0 1-.523-.207.63.63 0 0 1-.216-.46v-.505a2.57 2.57 0 0 1-.944.908 2.47 2.47 0 0 1-1.229.333q-.614 0-1.137-.241a2.9 2.9 0 0 1-.898-.69 3.4 3.4 0 0 1-.591-.988 3.4 3.4 0 0 1-.205-1.184m4.867.885v-1.724a1.9 1.9 0 0 0-.443-.702 2.4 2.4 0 0 0-.694-.505q-.375-.196-.75-.196a1.7 1.7 0 0 0-.808.196q-.353.183-.614.505a2.3 2.3 0 0 0-.387.713 2.6 2.6 0 0 0 .012 1.69q.159.402.432.712.284.31.648.483.376.172.807.172.273 0 .558-.103.296-.104.557-.287.261-.185.443-.426.182-.252.24-.528M29.708 20.15q0-.575.319-.99.33-.424.898-.654.57-.23 1.32-.23.397 0 .841.069.444.057.785.184v-.437q0-.69-.41-1.08-.41-.403-1.16-.403-.489 0-.944.184-.443.173-.944.506l-.363-.713a4.7 4.7 0 0 1 1.16-.597 3.6 3.6 0 0 1 1.205-.207q1.137 0 1.797.643.66.633.66 1.77v2.54q0 .184.068.277.08.08.25.091v.782a5 5 0 0 1-.262.034 2 2 0 0 1-.17.012q-.352 0-.535-.195a.74.74 0 0 1-.193-.414l-.023-.38a2.53 2.53 0 0 1-1.012.782q-.625.276-1.24.276-.59 0-1.057-.241a1.9 1.9 0 0 1-.728-.667 1.76 1.76 0 0 1-.262-.943m3.867.425q.136-.162.216-.322a.7.7 0 0 0 .08-.288v-.747a4 4 0 0 0-.74-.206 3.7 3.7 0 0 0-.761-.081q-.762 0-1.24.31-.465.3-.466.828 0 .288.147.563.16.264.455.437.307.172.751.172.466 0 .887-.183.42-.196.671-.483M39.61 16.77q-.75.012-1.33.39-.569.369-.808 1.024v3.701h-1v-6h.932v1.39a2.8 2.8 0 0 1 .808-1q.51-.39 1.069-.436h.193q.08 0 .137.012zM40.105 18.897a3.5 3.5 0 0 1 .342-1.552q.352-.713.955-1.138.615-.425 1.399-.425.716 0 1.285.379.569.38.887.92v-3.587h1v7.242q0 .183.069.276.08.08.25.091v.782q-.284.046-.444.046a.75.75 0 0 1-.523-.207.63.63 0 0 1-.216-.46v-.505q-.353.574-.944.908a2.47 2.47 0 0 1-1.228.333q-.614 0-1.137-.241a2.9 2.9 0 0 1-.898-.69 3.4 3.4 0 0 1-.592-.988 3.4 3.4 0 0 1-.205-1.184m4.868.885v-1.724a1.9 1.9 0 0 0-.444-.702 2.4 2.4 0 0 0-.693-.505q-.375-.196-.751-.196-.444 0-.807.196-.353.183-.614.505a2.3 2.3 0 0 0-.387.713 2.6 2.6 0 0 0 .011 1.69q.159.402.432.712.285.31.649.483.375.172.807.172.273 0 .557-.103.296-.104.558-.287.261-.185.443-.426.182-.252.239-.528M49.68 22q-.74 0-1.387-.241a3 3 0 0 1-1.115-.747l.387-.713q.51.483 1.023.69.511.206 1.047.206.613 0 1-.23a.78.78 0 0 0 .387-.7q0-.334-.205-.495-.193-.16-.557-.264-.364-.115-.864-.253a7 7 0 0 1-1.035-.39 1.63 1.63 0 0 1-.637-.518q-.216-.31-.216-.782 0-.575.296-.965.296-.403.807-.61a3.2 3.2 0 0 1 1.183-.206q.66 0 1.194.207.534.205.921.609l-.455.7a2.3 2.3 0 0 0-.773-.54 2.3 2.3 0 0 0-.944-.183q-.307 0-.603.08a1 1 0 0 0-.489.264q-.193.185-.193.53 0 .286.148.459.159.161.454.276.308.114.74.253.67.195 1.16.39.5.196.773.506.273.311.273.862 0 .85-.637 1.334-.637.471-1.683.471M110.237 54.278h-30.82a.784.784 0 0 1-.782-.782c0-.43.352-.782.782-.782h30.82c.567 0 1.029-.493 1.029-1.095v-7.76c0-.431.351-.783.781-.783s.782.352.782.782v7.761c0 1.466-1.161 2.659-2.592 2.659M73.339 49.46a.784.784 0 0 1-.782-.781V7.583A6.823 6.823 0 0 1 79.37.77h31.239c1.224 0 2.217.993 2.217 2.216V20.04c0 .43-.352.782-.782.782a.784.784 0 0 1-.782-.782V2.985a.654.654 0 0 0-.653-.653H79.371a5.257 5.257 0 0 0-5.25 5.251V48.68c0 .43-.352.782-.782.782"/><path fill="currentColor" d="M110.17 54.278H78.157a5.61 5.61 0 0 1-5.602-5.603 5.61 5.61 0 0 1 5.602-5.603h33.886c.43 0 .782.352.782.782v7.761a2.66 2.66 0 0 1-2.659 2.659zM78.157 44.64a4.044 4.044 0 0 0-4.038 4.039 4.04 4.04 0 0 0 4.038 4.039h32.009c.603 0 1.095-.493 1.095-1.095v-6.979H78.157zM85.092 20.055c-3.828 0-6.944-3.116-6.944-6.943 0-3.828 3.117-6.944 6.944-6.944 1.294 0 2.557.36 3.652 1.036a.36.36 0 0 1 .117.493.357.357 0 0 1-.493.117 6.24 6.24 0 0 0-3.276-.93 6.235 6.235 0 0 0-6.228 6.228 6.235 6.235 0 0 0 6.228 6.228 6.235 6.235 0 0 0 6.228-6.228c0-.2.16-.36.36-.36s.36.16.36.36c0 3.827-3.116 6.943-6.944 6.943z"/><path fill="currentColor" d="M90.163 9.265a.37.37 0 0 1-.277-.13 6.3 6.3 0 0 0-1.517-1.32.36.36 0 0 1-.118-.493.357.357 0 0 1 .493-.118 7 7 0 0 1 1.693 1.47.359.359 0 0 1-.278.587z"/><path fill="currentColor" d="M85.094 15.175a.35.35 0 0 1-.226-.082l-3.054-2.514a.36.36 0 0 1-.05-.504.355.355 0 0 1 .504-.047l2.783 2.291 7.014-8.03a.363.363 0 0 1 .509-.036.363.363 0 0 1 .035.509l-7.245 8.292a.35.35 0 0 1-.27.121M101.388 19.825c-3.82 0-6.932-3.108-6.932-6.932a6.94 6.94 0 0 1 6.932-6.932 6.94 6.94 0 0 1 6.932 6.932 6.94 6.94 0 0 1-6.932 6.932m0-13.145a6.22 6.22 0 0 0-6.213 6.213 6.22 6.22 0 0 0 6.213 6.212 6.22 6.22 0 0 0 6.213-6.212 6.22 6.22 0 0 0-6.213-6.213"/><path fill="currentColor" d="M104.268 16.212a.36.36 0 0 1-.254-.106l-5.755-5.755a.359.359 0 1 1 .508-.508l5.755 5.755a.358.358 0 0 1-.254.614"/><path fill="currentColor" d="M98.513 16.212a.359.359 0 0 1-.254-.614l5.755-5.755a.36.36 0 0 1 .508 0 .36.36 0 0 1 0 .508l-5.755 5.755a.36.36 0 0 1-.254.106M93.207 47.377h-13.79a.39.39 0 0 1-.39-.391c0-.215.175-.391.39-.391h13.79c.215 0 .391.176.391.39a.39.39 0 0 1-.391.392M93.207 50.602h-13.79a.39.39 0 0 1-.39-.39c0-.216.175-.392.39-.392h13.79c.215 0 .391.176.391.391a.39.39 0 0 1-.391.391M109.006 47.455h-13.79a.39.39 0 0 1-.39-.391c0-.215.175-.391.39-.391h13.79c.215 0 .391.176.391.39a.39.39 0 0 1-.391.392M109.006 50.68h-13.79a.39.39 0 0 1-.39-.39c0-.216.175-.392.39-.392h13.79c.215 0 .391.176.391.391a.39.39 0 0 1-.391.391M90.01 37.164c-1.357 1.459-2.921 2.19-4.684 2.19a6.14 6.14 0 0 1-2.85-.673 7.5 7.5 0 0 1-2.264-1.767 8.5 8.5 0 0 1-1.505-2.502 7.9 7.9 0 0 1-.552-2.905c0-.997.18-2.025.544-2.96a8 8 0 0 1 1.497-2.47 7.1 7.1 0 0 1 2.276-1.701 6.6 6.6 0 0 1 2.862-.63c1.49 0 2.713.313 3.675.93a6.3 6.3 0 0 1 1.712 1.62.924.924 0 0 1-.215 1.297.913.913 0 0 1-1.259-.21 4.4 4.4 0 0 0-1.372-1.236q-1.149-.65-2.58-.65-1.173 0-2.124.509a5.2 5.2 0 0 0-1.626 1.345c-.45.555-.794 1.2-1.04 1.927a7 7 0 0 0-.367 2.264q0 1.236.41 2.33.412 1.095 1.126 1.932.715.834 1.69 1.31a4.8 4.8 0 0 0 2.122.477q2.515 0 4.531-2.428V33.04h-2.58a.734.734 0 1 1 0-1.47h3.64c.325 0 .587.261.587.586v6.263a.825.825 0 0 1-1.65 0V37.16zM100.95 37.598q1.342.001 2.233-.52a4.1 4.1 0 0 0 1.419-1.353c.356-.555.602-1.192.747-1.907q.216-1.075.215-2.178v-6.807a.974.974 0 0 1 1.947 0v6.807q0 1.559-.356 2.96-.358 1.399-1.138 2.459a5.54 5.54 0 0 1-2.025 1.68q-1.248.618-3.022.619c-1.185 0-2.264-.215-3.1-.65q-1.257-.65-2.026-1.724-.767-1.074-1.106-2.47a12.3 12.3 0 0 1-.337-2.874v-6.807a.974.974 0 0 1 1.947 0v6.807q0 1.148.227 2.22c.153.716.403 1.35.759 1.897q.533.822 1.407 1.333c.587.34 1.318.508 2.201.508zM110.99 38.267V24.825a.974.974 0 0 1 1.947 0v13.442a.974.974 0 0 1-1.947 0M116.626 38.978v-14.86c0-.145.117-.266.266-.266h5.067q1.841 0 3.241.606 1.398.609 2.33 1.646a6.9 6.9 0 0 1 1.4 2.44c.309.93.465 1.927.465 2.979q.001 1.754-.52 3.174c-.348.946-.844 1.756-1.497 2.428a6.7 6.7 0 0 1-2.354 1.56c-.919.368-1.939.551-3.069.551h-5.067a.266.266 0 0 1-.266-.265zm10.795-7.452q.001-1.3-.356-2.396a5.1 5.1 0 0 0-1.063-1.877 4.9 4.9 0 0 0-1.725-1.224q-1.018-.445-2.318-.445h-3.116a.266.266 0 0 0-.266.265v11.394c0 .144.117.265.266.265h3.116q1.32 0 2.354-.453a4.7 4.7 0 0 0 1.712-1.26 5.6 5.6 0 0 0 1.04-1.895 7.6 7.6 0 0 0 .356-2.374M142.593 38.322v.109c0 .45-.363.813-.813.813h-9.356a.28.28 0 0 1-.281-.281V24.067a.21.21 0 0 1 .211-.212h9.227c.449 0 .813.364.813.814v.11c0 .449-.364.812-.813.812h-7.398a.09.09 0 0 0-.089.09v4.802c0 .05.043.09.089.09h6.315a.813.813 0 1 1 0 1.626h-6.315a.09.09 0 0 0-.089.09v5.125c0 .051.043.09.089.09h7.593c.45 0 .813.364.813.814zM145.261 39.244V24.72c0-.477.387-.868.868-.868h.215c.477 0 .868.387.868.867v12.79h7.718a.869.869 0 0 1 0 1.735zM157.921 38.376V24.72c0-.477.387-.868.868-.868h.215c.477 0 .868.387.868.867v13.657a.87.87 0 0 1-.868.868h-.215a.87.87 0 0 1-.868-.868M165.505 27.675v10.596a.974.974 0 0 1-1.947 0V24.493c0-.352.285-.637.637-.637h.575a.64.64 0 0 1 .496.238l8.993 11.303c.117.149.351.063.351-.125V24.849a.974.974 0 0 1 1.948 0V38.56a.68.68 0 0 1-.681.68h-.637a.68.68 0 0 1-.532-.254l-9.09-11.354c-.039-.047-.113-.02-.113.04zM190.697 38.322v.109c0 .45-.364.813-.813.813h-9.255a.38.38 0 0 1-.379-.379v-14.63a.38.38 0 0 1 .379-.38h9.059c.45 0 .813.364.813.814v.11c0 .449-.363.812-.813.812h-7.108a.38.38 0 0 0-.379.38v4.226c0 .211.172.38.379.38h6.025a.812.812 0 1 1 0 1.626h-6.025a.38.38 0 0 0-.379.379v4.551c0 .211.172.38.379.38h7.304c.449 0 .813.363.813.812zM202.902 26.213a.846.846 0 0 1-1.197.286 6 6 0 0 0-.977-.509 6.8 6.8 0 0 0-1.181-.367 6.2 6.2 0 0 0-1.333-.141c-1.201 0-2.076.223-2.635.672q-.834.675-.833 1.842-.001.628.238 1.04c.161.274.407.508.747.704q.51.292 1.267.508.758.218 1.798.453 1.19.26 2.158.595a6.3 6.3 0 0 1 1.646.833q.682.496 1.04 1.215.36.72.36 1.756 0 1.103-.434 1.92-.435.813-1.181 1.345-.748.53-1.767.782c-.68.164-1.415.25-2.213.25q-1.775 0-3.37-.551a9.4 9.4 0 0 1-2.228-1.119.91.91 0 0 1-.27-1.196.907.907 0 0 1 1.31-.297c.043.027.082.058.125.086q.55.368 1.259.66.705.294 1.517.478.815.181 1.7.183 1.648 0 2.557-.586.91-.588.911-1.756 0-.65-.293-1.094t-.856-.77a6.7 6.7 0 0 0-1.4-.575 40 40 0 0 0-1.896-.508 19 19 0 0 1-2.061-.607c-.594-.215-1.086-.477-1.485-.782a2.96 2.96 0 0 1-.9-1.106q-.304-.651-.304-1.56c0-.735.136-1.388.41-1.95a4.1 4.1 0 0 1 1.15-1.432 5 5 0 0 1 1.755-.88 8 8 0 0 1 2.213-.293q1.559 0 2.819.477a8.2 8.2 0 0 1 1.611.821.83.83 0 0 1 .25 1.103l-.039.066zM59.5 55V0h1v55a.5.5 0 0 1-1 0"/></svg>
