<svg xmlns="http://www.w3.org/2000/svg" viewbox="0 0 110 70" width="110" height="70" fill="none"><path fill="currentColor" d="M14.782 31.498c0-.065-.078-.094-.123-.049q-1.646 1.686-3.756 1.687a5.1 5.1 0 0 1-2.36-.557 6.2 6.2 0 0 1-1.875-1.463 7 7 0 0 1-1.247-2.073 6.6 6.6 0 0 1-.457-2.406c0-.825.15-1.677.45-2.45a6.7 6.7 0 0 1 1.24-2.047A5.9 5.9 0 0 1 8.54 20.73a5.45 5.45 0 0 1 2.37-.521q1.85 0 3.044.77.855.555 1.418 1.341a.765.765 0 0 1-.178 1.075.756.756 0 0 1-1.043-.175q-.48-.65-1.136-1.023-.952-.538-2.137-.537-.972 0-1.758.42-.79.421-1.347 1.114a5.2 5.2 0 0 0-.862 1.597 5.8 5.8 0 0 0-.304 1.874q0 1.024.34 1.93.34.908.933 1.597.59.69 1.402 1.084a3.96 3.96 0 0 0 1.758.395q2.001.001 3.623-1.858a.54.54 0 0 0 .13-.35v-1.421a.14.14 0 0 0-.14-.14h-1.994a.611.611 0 1 1 0-1.224h2.972c.292 0 .531.237.531.532v5.141a.683.683 0 0 1-1.366 0v-.867zM23.848 31.682q1.112.001 1.85-.43c.488-.289.883-.661 1.174-1.121q.44-.691.619-1.58t.178-1.804V21.11a.806.806 0 0 1 1.613 0v5.637q.001 1.291-.298 2.451a5.9 5.9 0 0 1-.943 2.037q-.646.879-1.677 1.392-1.033.511-2.503.512c-.98 0-1.875-.178-2.567-.538a4.66 4.66 0 0 1-1.678-1.427 5.9 5.9 0 0 1-.916-2.047 10.2 10.2 0 0 1-.279-2.38V21.11a.806.806 0 1 1 1.613 0v5.637q-.001.952.188 1.84.187.889.628 1.57.442.683 1.165 1.104.728.422 1.823.42zM32.16 32.239V21.107a.806.806 0 0 1 1.613 0v11.132a.806.806 0 0 1-1.613 0M36.827 32.724V20.621a.32.32 0 0 1 .32-.32h4.096q1.524 0 2.684.501 1.157.505 1.93 1.363.771.86 1.16 2.02c.255.771.385 1.597.385 2.468q0 1.453-.431 2.63a5.6 5.6 0 0 1-1.24 2.01 5.5 5.5 0 0 1-1.95 1.292q-1.139.456-2.541.457h-4.096a.32.32 0 0 1-.32-.32zm8.94-6.068q.001-1.077-.298-1.984a4.3 4.3 0 0 0-.881-1.555 4.1 4.1 0 0 0-1.428-1.013q-.843-.37-1.92-.37h-2.48a.32.32 0 0 0-.321.321v9.232c0 .178.142.32.32.32h2.48q1.095 0 1.95-.375a3.85 3.85 0 0 0 1.418-1.043c.38-.444.664-.965.862-1.57q.296-.908.297-1.966zM58.334 32.284v.09a.673.673 0 0 1-.674.674h-7.45a.53.53 0 0 1-.531-.53V20.83c0-.291.236-.53.53-.53h7.29c.372 0 .673.3.673.673v.09a.673.673 0 0 1-.674.674h-5.672a.53.53 0 0 0-.532.531v3.07c0 .291.237.53.532.53h4.776a.673.673 0 1 1 0 1.348h-4.776a.53.53 0 0 0-.532.53v3.339c0 .291.237.531.532.531h5.834c.373 0 .674.301.674.674zM60.541 32.517V21.11a.806.806 0 0 1 1.613 0v9.973c0 .291.236.53.53.53h5.862a.72.72 0 0 1 0 1.439h-7.477a.53.53 0 0 1-.53-.531zM71.025 32.239V21.107a.806.806 0 0 1 1.613 0v11.132a.806.806 0 0 1-1.613 0M77.31 23.661v8.578a.81.81 0 0 1-1.618 0V20.886c0-.323.262-.586.586-.586h.388c.179 0 .347.081.457.22l7.506 9.436c.07.09.217.039.217-.075v-8.755a.81.81 0 0 1 1.619 0V32.54a.506.506 0 0 1-.505.505h-.616a.51.51 0 0 1-.395-.191l-7.424-9.27c-.072-.091-.217-.04-.217.074zM98.17 32.284v.09a.673.673 0 0 1-.674.674h-7.45a.53.53 0 0 1-.531-.53V20.83c0-.291.236-.53.53-.53h7.29c.372 0 .673.3.673.673v.09a.673.673 0 0 1-.674.674h-5.673a.53.53 0 0 0-.53.531v3.07c0 .291.236.53.53.53h4.776a.673.673 0 1 1 0 1.348h-4.776a.53.53 0 0 0-.53.53v3.339c0 .291.236.531.53.531h5.835c.373 0 .674.301.674.674zM108.279 22.253a.7.7 0 0 1-.991.236 5 5 0 0 0-.81-.42 6 6 0 0 0-.978-.305 5 5 0 0 0-1.104-.116q-1.49-.001-2.182.557-.69.558-.69 1.525 0 .52.198.86.197.341.618.584.423.241 1.049.42.629.181 1.49.376.986.214 1.787.496c.534.188.988.414 1.363.69q.565.413.862 1.006.296.594.297 1.454 0 .917-.359 1.59-.36.674-.978 1.114a4.3 4.3 0 0 1-1.463.648 7.8 7.8 0 0 1-1.83.207 8.5 8.5 0 0 1-2.791-.457 7.8 7.8 0 0 1-1.846-.926.753.753 0 0 1-.223-.99.75.75 0 0 1 1.085-.247q.051.036.103.072.457.305 1.04.547.584.243 1.256.395.675.151 1.409.152 1.364 0 2.117-.486.754-.486.755-1.454 0-.538-.243-.906t-.709-.638a5.4 5.4 0 0 0-1.16-.476 33 33 0 0 0-1.57-.421 16 16 0 0 1-1.706-.502 4.6 4.6 0 0 1-1.231-.648 2.44 2.44 0 0 1-.744-.916q-.253-.54-.253-1.292c0-.608.113-1.15.34-1.616q.34-.698.952-1.185.61-.485 1.454-.728a6.6 6.6 0 0 1 1.829-.243q1.291.001 2.335.395.728.276 1.34.683a.68.68 0 0 1 .204.904l-.035.061z"/><path fill="currentColor" d="M.681 47A.684.684 0 0 1 0 46.318V5.944C0 2.667 2.663 0 5.936 0H45.07C46.135 0 47 .866 47 1.933v14.875a.684.684 0 0 1-.681.682.684.684 0 0 1-.681-.682V1.933a.57.57 0 0 0-.57-.569H5.937a4.58 4.58 0 0 0-4.574 4.58v40.37a.684.684 0 0 1-.68.683z"/><path fill="currentColor" d="M42.447 55H8.903C3.995 55 0 51.186 0 46.5S3.995 38 8.903 38h36.803c.715 0 1.294.553 1.294 1.236v11.416C47 53.05 44.956 55 42.447 55M8.903 39.3c-4.159 0-7.54 3.23-7.54 7.2s3.381 7.2 7.54 7.2h33.544c1.76 0 3.19-1.37 3.19-3.048V39.301zM1 69.436v-6.034h1.82v6.034zm0-6.724v-1.666h1.82v1.666zM9.82 69.436H8v-3.39q0-.598-.227-.862a.7.7 0 0 0-.58-.276q-.25 0-.512.138a1.7 1.7 0 0 0-.478.379 1.8 1.8 0 0 0-.318.552v3.46h-1.82v-6.035h1.638v1.011q.228-.355.568-.609.342-.252.785-.38.444-.137.967-.137.58 0 .932.218.364.207.546.552.195.345.25.747.069.39.069.77zM13.883 69.551q-.762 0-1.353-.252a3.1 3.1 0 0 1-1.012-.69 3 3 0 0 1-.626-1 3.3 3.3 0 0 1-.216-1.196q0-.827.375-1.54a3 3 0 0 1 1.104-1.15q.716-.436 1.728-.436 1.024 0 1.729.448.716.437 1.069 1.15l-1.774.54a1.2 1.2 0 0 0-.444-.425 1.17 1.17 0 0 0-.591-.15q-.375 0-.683.196-.296.195-.477.54a1.85 1.85 0 0 0-.17.827q0 .472.181.828t.478.563q.295.195.67.196.228 0 .422-.07a1.3 1.3 0 0 0 .364-.218q.17-.138.261-.31l1.774.552a2.6 2.6 0 0 1-.625.827q-.398.356-.944.563a3.5 3.5 0 0 1-1.24.207M17.492 61.046h1.82v6.241q0 .38.136.54.136.162.386.161.171 0 .342-.046.181-.057.318-.126l.239 1.38q-.341.159-.785.252a4 4 0 0 1-.83.092q-.773 0-1.205-.414-.42-.425-.421-1.195zM21.267 67.264v-3.862h1.82v3.46q0 .552.216.85.215.288.614.288.25 0 .477-.08.228-.093.444-.288a1.9 1.9 0 0 0 .387-.506v-3.724h1.82v3.989q0 .275.079.39.09.104.307.127v1.528q-.25.046-.444.07a3 3 0 0 1-.33.022q-.477 0-.761-.195a.88.88 0 0 1-.353-.575l-.034-.367a2.53 2.53 0 0 1-1.024.884 3.2 3.2 0 0 1-1.353.276q-.91 0-1.387-.586-.478-.586-.478-1.701M30.74 69.551a4.5 4.5 0 0 1-1.49-.252 3.2 3.2 0 0 1-1.228-.748l.625-1.16q.546.401 1.058.609.524.207.978.207.352 0 .546-.115a.39.39 0 0 0 .193-.357.32.32 0 0 0-.114-.264 1 1 0 0 0-.352-.184 8 8 0 0 0-.569-.172 10 10 0 0 1-1.137-.449q-.454-.218-.682-.528-.228-.322-.228-.828 0-.61.296-1.058.307-.459.864-.712.558-.253 1.33-.253.615 0 1.195.195.591.196 1.103.656l-.705 1.149a4.8 4.8 0 0 0-.91-.517 2.1 2.1 0 0 0-.773-.161 1.3 1.3 0 0 0-.353.046.54.54 0 0 0-.261.16.4.4 0 0 0-.091.277q0 .172.09.276.103.103.308.183l.534.173q.74.218 1.228.448.49.219.728.552.25.322.25.862 0 .92-.66 1.448-.647.517-1.773.517M34.107 69.436v-6.034h1.82v6.034zm0-6.724v-1.666h1.82v1.666zM38.719 69.436l-2.116-6.034h1.877l1.308 4.38 1.308-4.38h1.706l-2.105 6.034zM46.146 69.551q-.763 0-1.353-.241a3.1 3.1 0 0 1-1.012-.678 2.9 2.9 0 0 1-.626-.977 3.3 3.3 0 0 1-.216-1.173q0-.872.375-1.586.387-.725 1.103-1.16.717-.45 1.729-.449 1.012 0 1.717.437.717.436 1.092 1.15.375.7.375 1.528 0 .161-.023.322-.011.15-.022.264h-4.413q.035.402.216.678.194.276.49.426.294.138.625.138.41 0 .762-.196.364-.195.5-.529l1.547.437a2.6 2.6 0 0 1-.648.84 3.1 3.1 0 0 1-.978.563 3.5 3.5 0 0 1-1.24.206m-1.32-3.69h2.594a1.6 1.6 0 0 0-.216-.654 1.14 1.14 0 0 0-.455-.437 1.25 1.25 0 0 0-.626-.161 1.27 1.27 0 0 0-.637.16q-.273.15-.443.438a1.6 1.6 0 0 0-.216.655M53.718 69.506q-.74 0-1.388-.242a3 3 0 0 1-1.114-.747l.386-.712q.513.481 1.024.69.512.206 1.046.206.614 0 1.001-.23a.78.78 0 0 0 .387-.701q0-.333-.205-.494-.194-.162-.557-.265-.364-.114-.864-.252a7 7 0 0 1-1.035-.391 1.6 1.6 0 0 1-.637-.517q-.216-.31-.216-.782 0-.574.295-.966.296-.401.808-.609a3.2 3.2 0 0 1 1.182-.207q.66 0 1.195.207.534.207.92.61l-.454.7a2.3 2.3 0 0 0-.773-.54 2.3 2.3 0 0 0-.944-.184q-.307 0-.603.08a1 1 0 0 0-.49.265q-.193.185-.193.529 0 .288.148.46.16.16.455.276.307.114.74.252.67.195 1.16.391.499.196.773.506.273.31.273.862 0 .851-.637 1.333-.637.472-1.683.472M60.306 69.092q-.126.057-.341.15-.217.09-.5.16a2.6 2.6 0 0 1-.604.07q-.364 0-.67-.127a1.13 1.13 0 0 1-.49-.414q-.182-.288-.182-.713v-4.034h-.807v-.793h.807v-2h1.001v2h1.33v.793h-1.33v3.724q.023.322.216.483.194.15.455.15.296 0 .546-.104.25-.105.33-.15zM60.767 67.655q0-.575.318-.988.33-.425.899-.656.569-.23 1.319-.23.398 0 .842.07.443.058.784.183v-.436q0-.69-.41-1.08-.408-.403-1.16-.403-.488 0-.943.184-.444.172-.944.505l-.364-.712a4.6 4.6 0 0 1 1.16-.598 3.6 3.6 0 0 1 1.206-.207q1.137 0 1.796.644.66.632.66 1.77v2.54q0 .185.068.276.08.081.25.092v.782a5 5 0 0 1-.261.034 2 2 0 0 1-.17.012q-.354 0-.535-.196a.74.74 0 0 1-.194-.413l-.022-.38a2.53 2.53 0 0 1-1.012.782q-.625.276-1.24.276-.591 0-1.058-.242a1.9 1.9 0 0 1-.727-.666 1.76 1.76 0 0 1-.262-.943m3.867.425q.136-.16.216-.322a.7.7 0 0 0 .08-.287v-.747a4 4 0 0 0-.74-.207 3.7 3.7 0 0 0-.762-.08q-.762 0-1.24.31-.466.3-.466.828 0 .287.148.563.16.264.455.437.307.172.75.172.467 0 .888-.184.42-.195.67-.483M72.682 69.39h-1v-3.356q-.001-.954-.296-1.39-.285-.45-.876-.449-.41 0-.819.207a2.5 2.5 0 0 0-.716.563q-.307.345-.444.805v3.62h-1v-6h.91v1.288q.238-.425.613-.736a2.924 2.924 0 0 1 1.854-.655q.511 0 .853.196.353.184.546.528.204.334.284.794.09.46.091 1zM73.852 66.402q0-.85.34-1.552.353-.712.956-1.137.615-.426 1.399-.426.717 0 1.285.38.57.378.887.92V61h1v7.241q0 .185.069.276.08.081.25.092v.782q-.285.046-.443.046a.76.76 0 0 1-.523-.207.63.63 0 0 1-.216-.46v-.506q-.353.575-.944.908a2.47 2.47 0 0 1-1.229.334q-.614 0-1.137-.242a2.9 2.9 0 0 1-.898-.69 3.4 3.4 0 0 1-.592-.988 3.4 3.4 0 0 1-.204-1.184m4.867.885v-1.724a1.86 1.86 0 0 0-.444-.701 2.4 2.4 0 0 0-.693-.506q-.375-.195-.75-.195a1.7 1.7 0 0 0-.808.195q-.353.184-.614.506a2.3 2.3 0 0 0-.387.713 2.6 2.6 0 0 0 .011 1.69q.159.401.432.712.285.31.649.483.376.172.807.172.273 0 .557-.103.296-.104.558-.288.261-.183.443-.425.182-.253.239-.529M80.924 67.655q0-.575.319-.988.33-.425.898-.656.57-.23 1.32-.23.397 0 .84.07.444.058.786.183v-.436q0-.69-.41-1.08-.41-.403-1.16-.403-.488 0-.944.184-.443.172-.944.505l-.364-.712a4.6 4.6 0 0 1 1.16-.598 3.6 3.6 0 0 1 1.206-.207q1.137 0 1.797.644.66.632.66 1.77v2.54q0 .185.068.276.08.081.25.092v.782a5 5 0 0 1-.262.034 2 2 0 0 1-.17.012q-.353 0-.535-.196a.74.74 0 0 1-.193-.413l-.023-.38a2.53 2.53 0 0 1-1.012.782q-.625.276-1.24.276-.59 0-1.057-.242a1.9 1.9 0 0 1-.728-.666 1.76 1.76 0 0 1-.262-.943m3.867.425q.136-.16.216-.322a.7.7 0 0 0 .08-.287v-.747a4 4 0 0 0-.74-.207 3.7 3.7 0 0 0-.762-.08q-.761 0-1.24.31-.465.3-.466.828 0 .287.148.563.16.264.455.437.307.172.75.172.467 0 .888-.184.42-.195.67-.483M90.826 64.276q-.75.011-1.33.39-.569.369-.808 1.024v3.7h-1v-6h.932v1.391a2.8 2.8 0 0 1 .808-1q.51-.39 1.069-.436h.193q.08 0 .136.011zM91.321 66.402a3.5 3.5 0 0 1 .341-1.552q.353-.712.956-1.137.614-.426 1.398-.426.717 0 1.286.38.568.378.887.92V61h1v7.241q0 .185.069.276.08.081.25.092v.782q-.284.046-.444.046a.76.76 0 0 1-.523-.207.63.63 0 0 1-.216-.46v-.506q-.353.575-.944.908a2.47 2.47 0 0 1-1.228.334q-.614 0-1.137-.242a2.9 2.9 0 0 1-.899-.69 3.4 3.4 0 0 1-.591-.988 3.4 3.4 0 0 1-.205-1.184m4.868.885v-1.724a1.9 1.9 0 0 0-.444-.701 2.4 2.4 0 0 0-.694-.506q-.375-.195-.75-.195a1.7 1.7 0 0 0-.808.195q-.353.184-.614.506a2.3 2.3 0 0 0-.386.713 2.6 2.6 0 0 0 .011 1.69q.159.401.432.712.285.31.648.483.375.172.808.172.273 0 .557-.103.296-.104.557-.288.263-.183.444-.425.181-.253.239-.529M100.896 69.506q-.74 0-1.388-.242a3 3 0 0 1-1.114-.747l.386-.712q.513.481 1.024.69.512.206 1.046.206.614 0 1.001-.23a.78.78 0 0 0 .387-.701q0-.333-.205-.494-.194-.162-.557-.265-.364-.114-.864-.252a7 7 0 0 1-1.035-.391 1.6 1.6 0 0 1-.637-.517q-.216-.31-.216-.782 0-.574.295-.966.296-.401.808-.609.523-.207 1.183-.207.659 0 1.194.207t.921.61l-.455.7a2.3 2.3 0 0 0-.773-.54 2.3 2.3 0 0 0-.944-.184q-.308 0-.603.08a1 1 0 0 0-.49.265q-.192.185-.192.529 0 .288.147.46.16.16.455.276.307.114.74.252.67.195 1.16.391.5.196.773.506t.273.862q0 .851-.637 1.333-.638.472-1.683.472"/></svg>
