<svg xmlns="http://www.w3.org/2000/svg" fill="none" viewBox="0 0 169 69" width="169" height="69"><path fill="currentColor" d="M.681 47A.684.684 0 0 1 0 46.318V5.944C0 2.667 2.663 0 5.936 0H45.07C46.135 0 47 .866 47 1.933v14.875a.684.684 0 0 1-.681.682.684.684 0 0 1-.681-.682V1.933a.57.57 0 0 0-.57-.569H5.937a4.58 4.58 0 0 0-4.574 4.58v40.37a.684.684 0 0 1-.68.683z"/><path fill="currentColor" d="M6.363 33.653V21.7a.845.845 0 0 1 1.69 0V32.15c0 .305.247.556.556.556h6.14a.754.754 0 0 1 0 1.507H6.917a.557.557 0 0 1-.556-.557zM17.348 33.361V21.697a.845.845 0 0 1 1.69 0v11.664a.845.845 0 0 1-1.69 0M31.661 32.825a.173.173 0 0 0-.291-.125q-1.665 1.604-3.773 1.604a5.3 5.3 0 0 1-2.473-.583 6.5 6.5 0 0 1-1.964-1.533 7.4 7.4 0 0 1-1.307-2.172 6.9 6.9 0 0 1-.478-2.52c0-.866.156-1.758.472-2.569a7 7 0 0 1 1.299-2.144 6.1 6.1 0 0 1 1.974-1.476 5.7 5.7 0 0 1 2.484-.546c1.292 0 2.354.272 3.189.808a5.4 5.4 0 0 1 1.486 1.404.795.795 0 0 1-1.279.947 3.8 3.8 0 0 0-1.191-1.072q-.997-.564-2.24-.563a3.8 3.8 0 0 0-1.841.44 4.6 4.6 0 0 0-1.412 1.168 5.4 5.4 0 0 0-.902 1.672 6.1 6.1 0 0 0-.319 1.964q0 1.072.356 2.023.357.95.977 1.672.621.724 1.466 1.137a4.14 4.14 0 0 0 1.842.413q2.146.001 3.874-2.039a.25.25 0 0 0 .058-.159v-1.517a.236.236 0 0 0-.237-.237h-2.002a.637.637 0 1 1 0-1.276h3.43c.132 0 .237.106.237.238v5.706a.716.716 0 0 1-1.431 0v-.668zM59.22 33.26v.393a.557.557 0 0 1-.557.556h-7.955a.557.557 0 0 1-.557-.556V21.409c0-.305.248-.556.557-.556h7.786c.305 0 .556.247.556.556v.393a.557.557 0 0 1-.556.557H52.4a.557.557 0 0 0-.557.556v3.216c0 .306.248.557.557.557h5.153c.305 0 .556.248.556.556v.302a.557.557 0 0 1-.556.556h-5.153a.557.557 0 0 0-.557.557v3.498c0 .305.248.556.557.556h6.262c.306 0 .557.248.557.556zM69.713 23.068a.55.55 0 0 1-.794.18 5.097 5.097 0 0 0-.994-.54 6 6 0 0 0-1.025-.318 5.4 5.4 0 0 0-1.157-.123q-1.56 0-2.286.584-.723.585-.723 1.598 0 .546.207.902c.14.238.353.441.648.611q.443.254 1.1.441c.437.126.96.258 1.56.394q1.033.225 1.873.515a5.5 5.5 0 0 1 1.428.723q.59.431.902 1.052.311.62.312 1.523 0 .957-.376 1.666a3.36 3.36 0 0 1-1.025 1.167 4.5 4.5 0 0 1-1.533.678 8.2 8.2 0 0 1-1.917.217 8.9 8.9 0 0 1-2.924-.478 8.3 8.3 0 0 1-2.11-1.092.56.56 0 0 1-.163-.73l.234-.414a.554.554 0 0 1 .82-.166q.138.106.296.21a6.3 6.3 0 0 0 1.089.574q.612.256 1.316.414.708.159 1.476.16 1.43 0 2.219-.51.79-.51.79-1.523 0-.564-.254-.95c-.17-.258-.418-.478-.743-.668a5.8 5.8 0 0 0-1.215-.5 35 35 0 0 0-1.645-.44 17 17 0 0 1-1.788-.526 4.8 4.8 0 0 1-1.29-.679 2.56 2.56 0 0 1-.78-.96q-.264-.564-.264-1.353 0-.959.356-1.693.357-.733.997-1.242c.428-.34.933-.593 1.524-.763a7 7 0 0 1 1.916-.255q1.353.001 2.447.414a7 7 0 0 1 1.526.8.556.556 0 0 1 .163.737l-.207.36zM37.405 24.374v8.987a.848.848 0 0 1-1.697 0V21.467c0-.34.275-.614.615-.614h.407a.61.61 0 0 1 .478.23l7.864 9.886c.075.095.227.041.227-.078v-9.173a.848.848 0 0 1 1.697 0v11.959a.53.53 0 0 1-.53.529h-.644a.54.54 0 0 1-.414-.2l-7.78-9.713c-.074-.095-.227-.041-.227.078zM42.447 55H8.903C3.995 55 0 51.186 0 46.5S3.995 38 8.903 38h36.803c.715 0 1.294.553 1.294 1.236v11.416C47 53.05 44.956 55 42.447 55M8.903 39.3c-4.159 0-7.54 3.23-7.54 7.2s3.381 7.2 7.54 7.2h33.544c1.76 0 3.19-1.37 3.19-3.048V39.301zM51.535 52.707v-12.91c0-.121.102-.223.224-.223h4.404c1.065 0 2.005.176 2.812.526q1.212.527 2.022 1.428.808.9 1.215 2.117a8.2 8.2 0 0 1 .403 2.585q0 1.522-.45 2.755a5.9 5.9 0 0 1-1.3 2.107 5.8 5.8 0 0 1-2.043 1.353q-1.194.48-2.663.479h-4.403a.226.226 0 0 1-.224-.224zm9.367-6.474q.002-1.129-.312-2.08a4.5 4.5 0 0 0-.923-1.628 4.3 4.3 0 0 0-1.496-1.062q-.884-.386-2.012-.386h-2.71a.226.226 0 0 0-.224.224v9.896c0 .122.101.224.224.224h2.71q1.147-.001 2.043-.394a4.1 4.1 0 0 0 1.486-1.092 4.8 4.8 0 0 0 .902-1.646 6.6 6.6 0 0 0 .312-2.059zM65.004 52.086V40.422a.845.845 0 0 1 1.69 0v11.664a.845.845 0 0 1-1.69 0M69.893 52.086V39.8c0-.122.101-.224.224-.224h5.492c.59 0 1.13.122 1.629.367q.743.366 1.279.977.535.61.838 1.374a4.2 4.2 0 0 1 .301 1.55q.001.698-.196 1.343a4.2 4.2 0 0 1-.563 1.178q-.367.527-.886.902a3.4 3.4 0 0 1-.892.465.224.224 0 0 0-.109.329l2.864 4.526a.223.223 0 0 1-.19.342h-1.388a.23.23 0 0 1-.19-.105l-2.914-4.59a.23.23 0 0 0-.19-.105h-3.19a.226.226 0 0 0-.223.224v3.725a.845.845 0 0 1-1.69 0zm1.692-5.68c0 .123.102.224.224.224h3.82q.527.001.95-.227.423-.225.723-.61.299-.388.472-.893.171-.506.17-1.052c0-.363-.065-.729-.198-1.062a3.2 3.2 0 0 0-.525-.885 2.3 2.3 0 0 0-.737-.583 2.4 2.4 0 0 0-1.089-.234H71.81a.226.226 0 0 0-.224.223v5.103zM91.32 52.133v.095c0 .39-.315.706-.705.706h-8.136a.226.226 0 0 1-.224-.224V39.8c0-.122.102-.224.224-.224h7.97c.39 0 .705.316.705.706v.095c0 .39-.315.706-.706.706h-6.276a.226.226 0 0 0-.224.223v3.878c0 .122.102.224.224.224h5.333a.705.705 0 1 1 0 1.411h-5.333a.226.226 0 0 0-.224.224v4.16c0 .122.102.224.224.224h6.446c.39 0 .706.315.706.705zM92.504 46.159q.001-1.205.424-2.399a6.7 6.7 0 0 1 1.242-2.144 6.3 6.3 0 0 1 2.002-1.533q1.185-.585 2.69-.584 1.786.002 3.067.807.9.57 1.476 1.385a.8.8 0 0 1-.214 1.133.806.806 0 0 1-1.092-.224 3.714 3.714 0 0 0-1.256-1.093 4 4 0 0 0-1.024-.376 5 5 0 0 0-1.035-.112q-1.11 0-1.964.461a4.55 4.55 0 0 0-1.439 1.205 5.2 5.2 0 0 0-.875 1.672 6.3 6.3 0 0 0-.292 1.873q-.001 1.053.35 2.005.347.95.97 1.683.62.733 1.465 1.167a4 4 0 0 0 1.843.434q.526 0 1.082-.132a3.9 3.9 0 0 0 1.062-.424q.508-.29.95-.733.195-.194.359-.428a.82.82 0 0 1 1.059-.258c.421.231.56.777.285 1.168a4 4 0 0 1-.465.55 5.5 5.5 0 0 1-1.299.966 6.4 6.4 0 0 1-1.534.6q-.809.209-1.58.207-1.376 0-2.521-.6a6.7 6.7 0 0 1-1.985-1.57 7.2 7.2 0 0 1-1.3-2.203 7.1 7.1 0 0 1-.46-2.51zM115.075 41.08h-3.633a.226.226 0 0 0-.224.224v10.782a.845.845 0 0 1-1.689 0V41.304a.226.226 0 0 0-.224-.224h-3.634a.753.753 0 0 1 0-1.506h9.404a.754.754 0 0 1 0 1.506M117.745 52.086V39.8c0-.122.102-.224.224-.224h5.493c.59 0 1.129.122 1.628.367q.744.366 1.279.977c.356.407.638.865.838 1.374q.301.761.302 1.55.001.698-.197 1.343a4.2 4.2 0 0 1-.563 1.178 3.7 3.7 0 0 1-.885.902q-.408.296-.893.465a.224.224 0 0 0-.108.329l2.863 4.526a.223.223 0 0 1-.19.342h-1.387a.22.22 0 0 1-.19-.105l-2.915-4.59a.22.22 0 0 0-.19-.105h-3.189a.226.226 0 0 0-.224.224v3.725a.845.845 0 1 1-1.689 0zm1.693-5.68c0 .123.102.224.224.224h3.82q.525.001.95-.227.422-.225.723-.61.3-.388.471-.893.171-.506.17-1.052c0-.363-.065-.729-.197-1.062a3.2 3.2 0 0 0-.526-.885 2.3 2.3 0 0 0-.736-.583 2.4 2.4 0 0 0-1.089-.234h-3.586a.226.226 0 0 0-.224.223v5.103zM130.105 52.086V40.422a.845.845 0 0 1 1.689 0v11.664a.844.844 0 1 1-1.689 0M134.128 46.159q.001-1.205.424-2.399a6.7 6.7 0 0 1 1.242-2.144 6.3 6.3 0 0 1 2.002-1.533q1.185-.585 2.69-.584 1.785.002 3.067.807.9.57 1.476 1.385a.8.8 0 0 1-.214 1.133.806.806 0 0 1-1.092-.224 3.714 3.714 0 0 0-1.256-1.093 4 4 0 0 0-1.024-.376 5 5 0 0 0-1.035-.112q-1.11 0-1.964.461-.857.463-1.439 1.205a5.2 5.2 0 0 0-.875 1.672 6.3 6.3 0 0 0-.292 1.873q0 1.053.35 2.005c.23.634.556 1.194.97 1.683q.62.733 1.466 1.167a4 4 0 0 0 1.842.434q.525 0 1.082-.132a3.9 3.9 0 0 0 1.062-.424q.508-.29.95-.733.195-.194.359-.428a.82.82 0 0 1 1.059-.258c.421.231.56.777.285 1.168a4 4 0 0 1-.465.55 5.5 5.5 0 0 1-1.299.966 6.4 6.4 0 0 1-1.534.6 6.3 6.3 0 0 1-1.581.207q-1.375 0-2.52-.6a6.7 6.7 0 0 1-1.985-1.57 7.2 7.2 0 0 1-1.299-2.203 7.1 7.1 0 0 1-.462-2.51zM156.889 52.177a.754.754 0 0 1-.753.753h-7.783a.53.53 0 0 1-.529-.529V40.106a.53.53 0 0 1 .529-.529h7.613a.754.754 0 0 1 0 1.507h-6.228a.226.226 0 0 0-.224.223v3.878c0 .122.102.224.224.224h5.333a.705.705 0 1 1 0 1.411h-5.333a.226.226 0 0 0-.224.224v4.16c0 .122.102.224.224.224h6.398c.414 0 .753.335.753.753zM167.468 41.646a.715.715 0 0 1-1.015.231q0 0-.007-.003a5 5 0 0 0-.848-.441 6 6 0 0 0-1.024-.32 5.4 5.4 0 0 0-1.157-.121q-1.561-.001-2.287.583-.723.585-.722 1.598-.002.545.207.902c.139.238.352.441.648.611q.442.254 1.099.441c.437.126.96.258 1.56.394q1.033.224 1.873.515a5.5 5.5 0 0 1 1.428.723q.592.431.903 1.052t.312 1.523q0 .957-.377 1.666a3.36 3.36 0 0 1-1.024 1.167 4.5 4.5 0 0 1-1.534.678 8.2 8.2 0 0 1-1.92.218 8.9 8.9 0 0 1-2.924-.479 8.2 8.2 0 0 1-1.934-.97.789.789 0 0 1 .902-1.296q.055.037.109.075.478.319 1.092.573.612.256 1.317.414.707.159 1.475.16 1.43 0 2.219-.51.79-.51.791-1.523 0-.564-.255-.95c-.169-.258-.417-.478-.743-.668a5.8 5.8 0 0 0-1.214-.499 35 35 0 0 0-1.646-.441 17 17 0 0 1-1.788-.526 4.8 4.8 0 0 1-1.289-.678 2.56 2.56 0 0 1-.78-.96q-.265-.565-.265-1.354 0-.958.356-1.693.356-.733.998-1.242.64-.508 1.523-.763a7 7 0 0 1 1.92-.255q1.353.002 2.446.414a7 7 0 0 1 1.412.72.706.706 0 0 1 .21.936l-.054.095zM5.49 68.877H4.425v-3.552q0-1.009-.315-1.472-.303-.474-.933-.474-.436 0-.873.22a2.7 2.7 0 0 0-.764.595 2.2 2.2 0 0 0-.472.851v3.831H0v-6.348h.97v1.362q.254-.45.654-.778.4-.33.91-.511.508-.183 1.066-.183.545 0 .909.207.375.195.582.56.217.352.303.839.096.486.097 1.058zM9.913 68.998q-.716 0-1.297-.255a3.2 3.2 0 0 1-1.006-.718 3.3 3.3 0 0 1-.655-1.058 3.5 3.5 0 0 1-.23-1.253q0-.669.23-1.265t.655-1.045a3 3 0 0 1 1.006-.718 3.1 3.1 0 0 1 1.297-.268q.714 0 1.297.268.581.255 1.006.718.436.45.666 1.045.23.597.23 1.265 0 .657-.23 1.253t-.654 1.058q-.425.45-1.018.718-.582.255-1.297.255m-2.097-3.272q0 .657.279 1.192.29.535.763.852.473.303 1.055.304.582 0 1.054-.316.485-.317.764-.852.29-.547.29-1.204t-.29-1.192a2.2 2.2 0 0 0-.764-.851 1.86 1.86 0 0 0-1.054-.316q-.582 0-1.055.328-.473.316-.763.851a2.6 2.6 0 0 0-.28 1.204M17.75 63.464a2.6 2.6 0 0 0-1.418.414q-.605.39-.86 1.082v3.916h-1.067v-6.348h.994v1.471q.327-.656.86-1.058.546-.413 1.14-.462h.206q.085 0 .145.012zM28.347 68.877H27.28v-3.552q0-.997-.327-1.472-.315-.474-.945-.474-.642 0-1.164.474-.52.463-.74 1.205v3.818h-1.066v-3.55q0-1.01-.315-1.472-.315-.475-.945-.475t-1.164.462q-.52.45-.74 1.204v3.831h-1.066v-6.348h.97v1.362a2.83 2.83 0 0 1 1.006-1.082q.618-.39 1.394-.39.787 0 1.26.438.473.426.582 1.107.424-.755 1.03-1.143a2.45 2.45 0 0 1 1.382-.402q.546 0 .909.207.375.195.594.56.218.352.315.839.097.486.097 1.058zM32.805 68.998q-.715 0-1.309-.255a3.4 3.4 0 0 1-1.018-.718 3.5 3.5 0 0 1-.667-1.058 3.5 3.5 0 0 1-.23-1.265q0-.9.412-1.642a3.2 3.2 0 0 1 1.14-1.192q.74-.45 1.684-.45.958 0 1.66.462.716.45 1.104 1.192a3.24 3.24 0 0 1 .388 1.825q0 .11-.012.17h-5.249q.05.621.34 1.107.303.474.776.754.472.267 1.018.267.582 0 1.09-.291.521-.292.716-.767l.92.256a2.4 2.4 0 0 1-.617.827 2.9 2.9 0 0 1-.958.571q-.546.207-1.188.207m-2.133-3.673h4.315a2.34 2.34 0 0 0-.352-1.094 2.2 2.2 0 0 0-.775-.742 2.1 2.1 0 0 0-1.043-.268q-.557 0-1.03.268a2.2 2.2 0 0 0-.775.742 2.4 2.4 0 0 0-.34 1.094M39.336 68.998a4.2 4.2 0 0 1-1.479-.255 3.2 3.2 0 0 1-1.187-.79l.412-.755q.545.51 1.09.73.546.219 1.116.219.654 0 1.066-.244a.82.82 0 0 0 .412-.741q0-.354-.218-.523-.206-.17-.594-.28-.387-.121-.92-.268a7 7 0 0 1-1.104-.413q-.448-.22-.679-.547-.23-.33-.23-.828 0-.607.315-1.021a1.94 1.94 0 0 1 .86-.645 3.4 3.4 0 0 1 1.261-.219q.703 0 1.273.22.57.218.982.644l-.485.742q-.375-.39-.824-.572a2.5 2.5 0 0 0-1.006-.194 2.5 2.5 0 0 0-.643.085q-.315.072-.52.28-.207.195-.207.559 0 .305.158.486.17.17.484.292.328.121.788.268.716.207 1.237.413.533.207.824.535t.29.913q0 .9-.678 1.41-.679.5-1.794.5M44.582 68.878v-6.385h1.939v6.385zm0-7.114V60h1.939v1.764zM53.982 68.878h-1.94V65.29q0-.631-.242-.912a.75.75 0 0 0-.618-.291q-.267 0-.546.145a1.8 1.8 0 0 0-.509.402q-.217.255-.34.584v3.66H47.85v-6.385h1.745v1.07q.243-.376.606-.644.363-.267.836-.401a3.5 3.5 0 0 1 1.03-.146q.62 0 .994.23.389.22.582.585.206.364.267.79.073.414.073.815zM58.312 69q-.812 0-1.442-.268a3.3 3.3 0 0 1-1.079-.73 3.2 3.2 0 0 1-.666-1.057 3.5 3.5 0 0 1-.23-1.265q0-.876.4-1.63a3.2 3.2 0 0 1 1.175-1.216q.764-.462 1.842-.462 1.092 0 1.843.474.764.463 1.139 1.216l-1.89.572a1.26 1.26 0 0 0-.474-.45 1.25 1.25 0 0 0-.63-.158q-.4 0-.727.206-.315.207-.51.572a1.95 1.95 0 0 0-.18.876q0 .498.193.875.194.377.51.596.315.207.714.207.242 0 .449-.073a1.3 1.3 0 0 0 .387-.23 1.1 1.1 0 0 0 .28-.33l1.89.585a2.7 2.7 0 0 1-.666.875q-.425.377-1.007.596a3.7 3.7 0 0 1-1.32.219M62.158 60h1.94v6.604q0 .401.145.572t.412.17q.182 0 .364-.049.194-.06.34-.133l.254 1.459a3.8 3.8 0 0 1-.837.267 4.4 4.4 0 0 1-.884.098q-.825 0-1.285-.438-.45-.45-.449-1.265zM66.182 66.58v-4.087h1.94v3.661q0 .585.23.9.23.304.654.304.266 0 .509-.085a1.6 1.6 0 0 0 .473-.304q.23-.207.412-.535v-3.94h1.94v4.22q0 .291.084.413.097.11.327.134v1.617a8 8 0 0 1-.473.073 3 3 0 0 1-.351.025q-.51 0-.812-.207a.93.93 0 0 1-.376-.608l-.036-.39a2.7 2.7 0 0 1-1.091.937A3.45 3.45 0 0 1 68.17 69q-.97 0-1.479-.62-.51-.621-.51-1.8M76.278 69q-.812 0-1.588-.268a3.44 3.44 0 0 1-1.31-.79l.668-1.228q.58.425 1.127.644.557.219 1.042.219.376 0 .582-.122a.41.41 0 0 0 .206-.377.34.34 0 0 0-.121-.28 1.1 1.1 0 0 0-.376-.194 9 9 0 0 0-.606-.182 11 11 0 0 1-1.212-.475q-.485-.23-.727-.56-.243-.34-.243-.875 0-.645.315-1.119.328-.486.922-.754.594-.267 1.418-.267.654 0 1.272.206.63.207 1.176.694l-.751 1.216a5 5 0 0 0-.97-.547 2.2 2.2 0 0 0-.824-.17q-.207 0-.376.048a.6.6 0 0 0-.279.17.42.42 0 0 0-.097.292q0 .183.097.292a.95.95 0 0 0 .328.195l.57.182a9.4 9.4 0 0 1 1.308.474q.521.231.776.584.267.34.266.912 0 .974-.703 1.533-.69.547-1.89.547M79.866 68.878v-6.385h1.94v6.385zm0-7.114V60h1.94v1.764zM84.782 68.878l-2.255-6.385h2l1.394 4.634 1.394-4.634h1.818l-2.242 6.385zM92.697 69q-.812 0-1.442-.255a3.4 3.4 0 0 1-1.079-.718 3.1 3.1 0 0 1-.666-1.034 3.4 3.4 0 0 1-.23-1.24q0-.925.4-1.679.411-.765 1.175-1.228.763-.474 1.842-.474t1.83.462q.764.462 1.164 1.216.4.742.4 1.618 0 .17-.024.34-.012.159-.024.28H91.34q.036.426.23.717.206.292.521.45.316.146.667.146.436 0 .812-.206.388-.207.533-.56l1.649.462a2.8 2.8 0 0 1-.691.888 3.3 3.3 0 0 1-1.043.596 3.8 3.8 0 0 1-1.32.219m-1.406-3.904h2.764a1.7 1.7 0 0 0-.23-.693 1.2 1.2 0 0 0-.485-.463 1.34 1.34 0 0 0-.667-.17q-.376 0-.679.17-.29.159-.472.463a1.7 1.7 0 0 0-.23.693M99.406 69q-.811 0-1.588-.268a3.44 3.44 0 0 1-1.309-.79l.667-1.228q.582.425 1.127.644.558.219 1.043.219.375 0 .581-.122a.41.41 0 0 0 .206-.377q0-.182-.121-.28a1.1 1.1 0 0 0-.376-.194 9 9 0 0 0-.605-.182q-.728-.243-1.213-.475-.484-.23-.727-.56-.242-.34-.242-.875 0-.645.315-1.119.327-.486.921-.754.594-.267 1.418-.267.655 0 1.273.206.63.207 1.176.694l-.752 1.216a5 5 0 0 0-.97-.547 2.2 2.2 0 0 0-.824-.17q-.205 0-.376.048a.6.6 0 0 0-.278.17.42.42 0 0 0-.097.292q0 .183.097.292a.95.95 0 0 0 .327.195q.23.072.57.182.787.231 1.309.474.521.231.775.584.267.34.267.912 0 .974-.703 1.533-.691.547-1.89.547"/></svg>
