<svg width="19" height="19" viewBox="0 0 19 19" fill="none" xmlns="http://www.w3.org/2000/svg">
<path fill-rule="evenodd" clip-rule="evenodd" d="M8.40876 0.00287943C8.60938 0.00256545 8.82521 0.0026623 9.05811 0.00276681L9.44198 0.00287943C12.5172 0.00287943 12.8816 0.0139171 14.096 0.0691052C15.219 0.120454 15.8285 0.308094 16.2344 0.465741C16.7719 0.674496 17.1551 0.924043 17.558 1.32716C17.9611 1.73027 18.2107 2.11419 18.4199 2.65167C18.5775 3.05719 18.7654 3.66666 18.8165 4.78962C18.8717 6.00376 18.8837 6.36848 18.8837 9.44222C18.8837 12.516 18.8717 12.8807 18.8165 14.0948C18.7652 15.2178 18.5775 15.8273 18.4199 16.2328C18.2111 16.7703 17.9611 17.153 17.558 17.5558C17.1549 17.959 16.7722 18.2085 16.2344 18.4173C15.8289 18.5756 15.219 18.7628 14.096 18.8141C12.8819 18.8693 12.5172 18.8813 9.44198 18.8813C6.36656 18.8813 6.00208 18.8693 4.78794 18.8141C3.66498 18.7623 3.05551 18.5747 2.64927 18.417C2.11179 18.2083 1.72787 17.9587 1.32476 17.5556C0.921643 17.1525 0.672096 16.7695 0.462861 16.2318C0.305215 15.8263 0.117335 15.2168 0.066226 14.0939C0.0110378 12.8797 0 12.515 0 9.43934C0 6.36368 0.0110378 6.00088 0.066226 4.78674C0.117575 3.66378 0.305215 3.05431 0.462861 2.64831C0.671617 2.11083 0.921643 1.72691 1.32476 1.3238C1.72787 0.920683 2.11179 0.671137 2.64927 0.461901C3.05527 0.303535 3.66498 0.116375 4.78794 0.0647862C5.85043 0.0167964 6.26218 0.00239951 8.40876 0V0.00287943ZM15.5896 1.91552C14.8266 1.91552 14.2075 2.53387 14.2075 3.29714C14.2075 4.06018 14.8266 4.67925 15.5896 4.67925C16.3527 4.67925 16.9717 4.06018 16.9717 3.29714C16.9717 2.53411 16.3527 1.91504 15.5896 1.91504V1.91552ZM3.52734 9.44494C3.52734 6.1786 6.17553 3.53033 9.44184 3.5302C12.7083 3.5302 15.3559 6.17852 15.3559 9.44494C15.3559 12.7114 12.7085 15.3585 9.44208 15.3585C6.17566 15.3585 3.52734 12.7114 3.52734 9.44494Z" />
<path d="M9.37207 5.40527C11.5811 5.40527 13.3721 7.19602 13.3721 9.40527C13.3721 11.6143 11.5811 13.4053 9.37207 13.4053C7.16282 13.4053 5.37207 11.6143 5.37207 9.40527C5.37207 7.19602 7.16282 5.40527 9.37207 5.40527Z" />
</svg>
