<svg width="21" height="20" viewBox="0 0 21 20" fill="none" xmlns="http://www.w3.org/2000/svg">
<path d="M5 7H0V20H5V7Z" />
<path d="M5 2.49914C4.97115 1.08051 4.03485 0 2.51442 0C0.994 0 0 1.08051 0 2.49914C0 3.88838 0.964621 5 2.45673 5H2.48513C4.03485 5 5 3.88838 5 2.49914Z" />
<path d="M21 12.1568C21 7.95541 18.7377 6 15.7199 6C13.2852 6 12.1951 7.32764 11.5864 8.259V6.32156H7C7.06044 7.60507 7 20 7 20H11.5864V12.3608C11.5864 11.952 11.6162 11.5442 11.7374 11.2515C12.0689 10.4348 12.8235 9.58926 14.0904 9.58926C15.7505 9.58926 16.4141 10.8435 16.4141 12.6817V19.9996H20.9998L21 12.1568Z" />
</svg>
