<svg xmlns="http://www.w3.org/2000/svg" viewBox="0 0 60 60" role="presentation" alt=""><path d="m30.18 4.28-2.44 2.93c-.18.21-.15.52.06.7.09.08.21.11.32.11.14 0 .28-.06.38-.18l3.18-3.83c.09-.1.13-.24.11-.37a.47.47 0 0 0-.19-.34L28.12.59a.496.496 0 0 0-.7.09c-.17.22-.13.53.09.7l2.44 1.9C14.61 3.3 1.93 15.8 1.69 31.15v1.01c0 .27.23.49.5.49h.01c.27 0 .49-.23.49-.51v-.97C2.92 16.34 15.17 4.28 30 4.28zM46.16 53.62c-.22.16-.44.32-.66.47-.32.22-.65.44-.98.65a.5.5 0 0 0-.16.68c.09.15.26.23.42.23.09 0 .18-.02.26-.08.34-.22.68-.44 1.02-.67.23-.16.46-.32.69-.49a.495.495 0 0 0-.58-.8ZM4.01 40.02a.494.494 0 0 0-.94.3c.21.65.45 1.3.7 1.93.08.19.26.31.46.31.06 0 .13-.01.19-.04.25-.1.38-.39.27-.65-.25-.61-.48-1.24-.68-1.86ZM45.27 8.84c.16 0 .32-.08.42-.22.15-.23.09-.54-.14-.69-.57-.38-1.16-.73-1.76-1.07a.505.505 0 0 0-.68.19c-.13.24-.05.54.19.68.58.32 1.15.67 1.7 1.03.08.06.18.08.27.08M49.88 50.33c-.45.48-.93.95-1.41 1.4-.2.19-.22.5-.03.7.1.11.23.16.37.16.12 0 .24-.04.34-.13.51-.46 1-.95 1.47-1.45.19-.2.18-.51-.02-.7a.49.49 0 0 0-.7.02ZM3.24 37.14a31 31 0 0 1-.33-1.96.497.497 0 0 0-.56-.43.51.51 0 0 0-.43.56c.09.68.21 1.36.34 2.03.05.23.26.4.49.4.03 0 .07 0 .1-.01.27-.06.44-.32.39-.59M52.54 15.79c.1 0 .2-.03.29-.09.22-.16.27-.47.11-.69-.4-.55-.83-1.1-1.27-1.62a.494.494 0 0 0-.7-.06c-.21.18-.24.49-.06.7.42.5.83 1.03 1.22 1.57.1.13.25.21.4.21ZM49.23 11.99c.13 0 .26-.05.36-.15.19-.2.18-.51-.02-.7-.49-.47-1.01-.93-1.54-1.37a.504.504 0 0 0-.7.07c-.17.21-.15.52.07.7.51.42 1.01.87 1.48 1.32.1.09.22.14.34.14ZM41.92 56.18c-.59.29-1.21.56-1.82.8-.25.1-.38.39-.28.64.08.19.26.31.46.31.06 0 .12-.01.18-.04.63-.25 1.27-.53 1.88-.83.25-.12.35-.42.23-.66s-.42-.35-.66-.23ZM57 27.42c.1.65.18 1.31.23 1.97.02.26.24.46.49.46h.04a.5.5 0 0 0 .46-.53c-.06-.68-.14-1.37-.24-2.04a.5.5 0 1 0-.99.15ZM12.15 52.27a.493.493 0 0 0-.7.05c-.18.21-.16.52.05.7.52.45 1.06.88 1.6 1.29.09.07.19.1.3.1a.493.493 0 0 0 .3-.89c-.53-.4-1.05-.81-1.55-1.24ZM37.28 57.93c-.64.18-1.29.33-1.93.46-.27.05-.44.31-.39.58.05.24.25.4.49.4h.1c.67-.13 1.34-.29 2-.47.26-.07.42-.35.35-.61a.504.504 0 0 0-.61-.35ZM57.82 31.89c-.23 0-.5.21-.51.48-.02.66-.06 1.33-.13 1.98-.03.27.17.52.44.54h.05c.25 0 .47-.19.49-.45.07-.67.11-1.37.13-2.05 0-.27-.21-.5-.48-.51ZM57.31 36.92a.5.5 0 0 0-.59.38c-.14.65-.3 1.3-.48 1.93-.08.26.07.54.34.61.05.01.09.02.14.02a.5.5 0 0 0 .48-.36c.19-.65.36-1.33.5-2a.493.493 0 0 0-.38-.59ZM32.39 58.81c-.66.06-1.33.09-1.98.1a.5.5 0 0 0-.49.5c0 .27.23.49.5.49.68 0 1.37-.04 2.06-.1a.49.49 0 0 0 .45-.54.495.495 0 0 0-.54-.45M38.77 5.71c.62.21 1.25.45 1.86.71a.5.5 0 0 0 .65-.26.495.495 0 0 0-.26-.65c-.63-.27-1.28-.51-1.93-.73a.495.495 0 1 0-.32.94ZM33.95 4.56c.65.09 1.31.21 1.95.36.04 0 .07.01.11.01.23 0 .43-.16.48-.39a.493.493 0 0 0-.38-.59c-.67-.15-1.35-.27-2.03-.37a.496.496 0 0 0-.14.98ZM27.43 58.79c-.66-.06-1.32-.15-1.97-.26-.27-.05-.53.14-.57.41s.14.53.41.57c.67.11 1.36.2 2.04.27h.05c.25 0 .47-.19.49-.45a.5.5 0 0 0-.45-.54M17.93 56.1c-.59-.29-1.18-.61-1.75-.94-.24-.14-.54-.06-.68.18s-.06.54.18.68c.59.35 1.2.67 1.81.98a.505.505 0 0 0 .67-.23c.12-.25.02-.54-.23-.66ZM22.56 57.88c-.64-.18-1.27-.38-1.89-.61a.505.505 0 0 0-.64.3c-.09.26.04.54.3.64.64.23 1.3.45 1.96.63.05.01.09.02.14.02.22 0 .42-.14.48-.36a.5.5 0 0 0-.34-.61ZM5.96 44.57a.495.495 0 0 0-.87.47c.32.6.68 1.2 1.04 1.77a.494.494 0 0 0 .69.15c.23-.15.3-.45.15-.69-.36-.56-.69-1.13-1.01-1.71ZM55.9 41.77c-.25-.1-.54.02-.65.27-.25.61-.53 1.22-.83 1.81-.12.24-.02.54.22.67.07.04.15.05.22.05.18 0 .36-.1.44-.27.31-.61.59-1.24.86-1.87.1-.25-.02-.54-.27-.65ZM53.63 46.28a.5.5 0 0 0-.69.15c-.36.55-.74 1.1-1.14 1.63-.17.22-.12.53.1.7.09.07.19.1.3.1.15 0 .3-.07.4-.2.41-.55.81-1.11 1.18-1.69a.5.5 0 0 0-.15-.69M8.7 48.7a.504.504 0 0 0-.7-.08c-.21.17-.25.48-.08.7.43.53.88 1.06 1.35 1.56.1.1.23.16.36.16a.492.492 0 0 0 .36-.83c-.45-.48-.89-.99-1.3-1.5ZM54.67 19.85c.08.18.26.28.45.28.07 0 .14-.02.21-.05.25-.12.35-.41.23-.66-.29-.62-.61-1.23-.95-1.82a.505.505 0 0 0-.68-.19c-.24.14-.32.44-.19.68.33.57.64 1.16.92 1.76ZM56.74 22.28a.495.495 0 1 0-.94.32c.22.62.41 1.26.58 1.9.06.22.26.37.48.37.04 0 .09 0 .13-.02.27-.07.42-.34.35-.61-.18-.66-.38-1.32-.61-1.97ZM39.95 42.35c0-1.41-.35-2.81-1.01-4.06-.81-1.52-1.77-2.45-2.79-3.43-.84-.81-1.6-1.41-3-2.5-.24-.18-.37-.46-.37-.76s.14-.57.41-.79c1.37-1.07 2.13-1.66 2.96-2.47.68-.66 1.34-1.31 1.94-2.11.02-.02.04-.05.06-.08.28-.38.54-.78.79-1.24a8.7 8.7 0 0 0 1.01-4.06v-4.09c0-.86-.7-1.55-1.55-1.55H21.62c-.86 0-1.55.7-1.55 1.55v4.09c0 1.28.3 2.55.85 3.71v.02c.01.04.04.07.06.11.04.07.06.15.1.22.81 1.52 1.77 2.45 2.79 3.43.84.81 1.59 1.4 3 2.5a.962.962 0 0 1-.02 1.53c-1.38 1.08-2.14 1.67-2.98 2.49-1.02.98-1.98 1.91-2.79 3.44a8.7 8.7 0 0 0-1.01 4.06v4.09c0 .86.7 1.55 1.55 1.55H38.4c.86 0 1.55-.7 1.55-1.55v-4.09Zm-18.9-25.61c0-.31.25-.56.56-.56h16.78c.31 0 .56.25.56.56v4.09c0 1.25-.31 2.49-.89 3.6-.18.34-.37.65-.57.94-1 .04-2-.03-2.97-.21-.91-.17-1.36-.36-1.94-.6-.44-.18-.94-.39-1.73-.61-1.37-.4-3.55-.83-6.12-.64-1.03.08-2.05.27-3.05.53-.4-.95-.63-1.98-.63-3.01zm17.9 29.7c0 .31-.25.56-.56.56H21.61a.56.56 0 0 1-.56-.56v-4.09c0-1.25.31-2.49.89-3.6.73-1.38 1.64-2.26 2.6-3.19.8-.78 1.51-1.33 2.92-2.43.48-.37.75-.94.75-1.54s-.27-1.17-.79-1.57c-1.39-1.09-2.09-1.63-2.89-2.4-.88-.85-1.71-1.67-2.41-2.86.88-.22 1.77-.39 2.67-.45 2.42-.18 4.48.23 5.77.6.73.21 1.19.4 1.63.58.57.24 1.12.46 2.13.65.77.15 1.56.22 2.35.24-.38.43-.79.83-1.23 1.25-.8.77-1.5 1.32-2.92 2.43-.48.37-.75.94-.75 1.54s.27 1.17.77 1.56c1.4 1.09 2.1 1.64 2.91 2.42 1 .97 1.87 1.8 2.6 3.18.58 1.1.89 2.35.89 3.6v4.09Z"/><path d="M30 34.25c-.68 0-1.24.55-1.24 1.24s.55 1.24 1.24 1.24 1.24-.55 1.24-1.24-.55-1.24-1.24-1.24M30 39.82c-.68 0-1.24.55-1.24 1.24s.55 1.24 1.24 1.24 1.24-.55 1.24-1.24-.55-1.24-1.24-1.24"/></svg>