<svg xmlns="http://www.w3.org/2000/svg" viewBox="0 0 60 60" role="presentation" alt=""><path d="M1.99 30.95C2.23 15.68 14.68 3.38 30 3.38M30 3.38c.33 0 .67 0 1 .02"/><path d="M34.05 3.67C47.6 5.63 58.02 17.3 58.02 31.39c0 9.57-4.8 18.02-12.12 23.07A27.87 27.87 0 0 1 30 59.4c-14.77 0-26.87-11.43-27.94-25.93" style="fill:none;stroke:#000;stroke-linecap:round;stroke-linejoin:round;stroke-dasharray:2.04 3.06"/><path d="M1.99 31.95v-1M27.8.57l3.51 2.73-3.2 3.85M29.33 47.41h9.12c.59 0 1.07-.48 1.07-1.07v-4.12c0-1.34-.33-2.67-.96-3.86-.78-1.46-1.71-2.36-2.72-3.33-.83-.8-1.57-1.38-2.96-2.47h-.02c-.75-.6-.75-1.74 0-2.33h.02c1.4-1.11 2.14-1.69 2.96-2.48 1-.97 1.94-1.87 2.72-3.33.63-1.19.96-2.51.96-3.86v-4.12c0-.59-.48-1.07-1.07-1.07h-9.12 1.34-9.12c-.59 0-1.07.48-1.07 1.07v4.12c0 1.34.33 2.67.96 3.86.78 1.46 1.71 2.36 2.72 3.33.83.8 1.57 1.38 2.96 2.47h.02c.75.6.75 1.74 0 2.33h-.02c-1.4 1.11-2.14 1.69-2.96 2.48-1 .97-1.94 1.87-2.72 3.33a8.24 8.24 0 0 0-.96 3.86v4.12c0 .59.48 1.07 1.07 1.07h9.12"/><circle cx="30" cy="35.31" r="1.24"/><circle cx="30" cy="40.92" r="1.24"/><path d="M21.32 24.17c.8-.24 1.97-.52 3.41-.62 2.81-.21 5.09.36 5.99.62 1.77.51 2.03.9 3.74 1.23 1.39.27 2.57.27 3.34.22"/></svg>