<svg xmlns="http://www.w3.org/2000/svg" viewBox="0 0 60 60" role="presentation" alt=""><path d="m30.18 3.88-2.45 2.95c-.18.21-.15.53.07.7.09.08.21.12.32.12.14 0 .29-.06.39-.18l3.2-3.86c.09-.1.13-.24.11-.37a.47.47 0 0 0-.19-.34L28.11.17a.496.496 0 0 0-.7.09c-.17.22-.13.53.09.7l2.46 1.91C14.5 2.9 1.73 15.48 1.49 30.94v1.02c0 .27.23.49.5.49H2c.28 0 .5-.23.49-.51v-.98C2.72 16.02 15.06 3.88 30 3.88zM46.28 53.57c-.22.16-.44.32-.67.47-.32.22-.65.44-.99.65-.23.15-.3.46-.16.69.1.15.26.23.42.23.09 0 .18-.02.27-.08a29.281 29.281 0 0 0 1.71-1.16c.22-.16.27-.48.11-.7a.507.507 0 0 0-.7-.11ZM3.82 39.87a.493.493 0 0 0-.63-.32c-.26.08-.41.37-.32.63.21.65.45 1.31.71 1.95.08.19.27.31.46.31.06 0 .13-.01.19-.04.26-.1.38-.4.27-.65-.25-.62-.48-1.25-.68-1.88M45.38 8.48c.16 0 .32-.08.42-.22.15-.23.09-.54-.14-.69-.57-.38-1.17-.74-1.77-1.08a.503.503 0 0 0-.68.19c-.13.24-.05.55.19.68.58.33 1.16.67 1.71 1.04.08.06.18.08.27.08M50.02 50.26c-.45.48-.93.95-1.42 1.41-.2.19-.22.5-.03.71.1.11.23.16.37.16.12 0 .24-.04.34-.13.51-.47 1.01-.96 1.48-1.46.19-.2.18-.52-.02-.71a.504.504 0 0 0-.71.02ZM3.05 36.97c-.13-.65-.24-1.31-.33-1.97a.503.503 0 0 0-.56-.43c-.27.04-.47.29-.43.56.09.69.21 1.37.34 2.04.05.24.26.4.49.4.03 0 .07 0 .1-.01.27-.06.44-.32.39-.59M52.71 15.48a.506.506 0 0 0 .4-.8c-.4-.56-.83-1.11-1.27-1.63a.494.494 0 0 0-.7-.06c-.21.18-.24.49-.06.7.43.51.84 1.04 1.23 1.58.1.13.25.21.41.21ZM49.36 11.65c.13 0 .26-.05.36-.15.19-.2.18-.52-.02-.71-.5-.47-1.02-.94-1.55-1.38a.486.486 0 0 0-.7.07c-.18.21-.15.53.07.7.51.43 1.02.87 1.5 1.33.1.09.22.14.35.14ZM42 56.15q-.9.435-1.83.81a.498.498 0 0 0 .18.96c.06 0 .12-.01.19-.04.64-.25 1.28-.54 1.9-.84a.5.5 0 1 0-.44-.9ZM57.19 27.19c.1.65.18 1.32.23 1.99.02.26.24.46.5.46h.04c.28-.02.48-.26.46-.54-.06-.69-.14-1.38-.24-2.06a.5.5 0 1 0-.99.15M12.02 52.21a.506.506 0 0 0-.71.05c-.18.21-.16.52.05.71.52.45 1.06.89 1.62 1.3.09.07.19.1.3.1.15 0 .3-.07.4-.2.17-.22.12-.53-.1-.7-.53-.4-1.06-.82-1.56-1.25ZM37.33 57.92c-.64.18-1.3.33-1.95.46a.501.501 0 0 0 .1.99h.1c.67-.13 1.35-.29 2.02-.48a.496.496 0 1 0-.26-.96ZM58.02 31.69c-.23 0-.51.21-.51.49a27 27 0 0 1-.13 2c-.03.27.17.52.45.55h.05c.25 0 .47-.19.5-.45.07-.68.11-1.38.13-2.07 0-.28-.21-.51-.49-.51ZM57.5 36.75a.49.49 0 0 0-.59.39c-.14.65-.3 1.31-.49 1.94-.08.27.08.54.34.62.05.01.09.02.14.02.22 0 .42-.14.48-.36.19-.66.36-1.34.51-2.01a.495.495 0 0 0-.39-.59ZM32.41 58.8c-.66.06-1.34.09-2 .1-.28 0-.5.23-.49.51 0 .27.23.49.5.49.69 0 1.38-.04 2.07-.1a.503.503 0 0 0-.08-1M38.83 5.33c.63.21 1.26.45 1.87.71a.494.494 0 0 0 .65-.27.503.503 0 0 0-.27-.66c-.64-.27-1.29-.52-1.94-.74a.495.495 0 0 0-.63.31c-.09.26.05.55.31.63ZM33.97 4.16c.65.09 1.32.22 1.97.36.04 0 .07.01.11.01.23 0 .44-.16.49-.39a.503.503 0 0 0-.38-.6c-.67-.15-1.36-.27-2.04-.37-.27-.04-.53.15-.57.42s.15.53.42.57M27.41 58.78c-.66-.06-1.33-.15-1.98-.26-.27-.05-.53.14-.58.41s.14.53.41.58c.68.11 1.37.2 2.06.27h.05a.495.495 0 0 0 .05-.99ZM17.84 56.08c-.6-.3-1.19-.62-1.76-.95-.24-.14-.54-.06-.68.18s-.06.54.18.68c.59.35 1.21.68 1.83.99a.505.505 0 0 0 .67-.23.5.5 0 0 0-.23-.67ZM22.5 57.87c-.64-.18-1.28-.39-1.9-.61a.501.501 0 0 0-.34.94c.65.23 1.31.45 1.97.64.05.01.09.02.14.02a.501.501 0 0 0 .14-.98ZM5.79 44.46a.504.504 0 0 0-.68-.2c-.24.13-.33.44-.2.68.33.6.68 1.21 1.05 1.79.1.15.26.23.42.23a.5.5 0 0 0 .42-.77c-.36-.56-.7-1.14-1.01-1.72ZM56.08 41.64c-.25-.1-.55.02-.65.27-.26.62-.54 1.23-.83 1.82-.12.25-.02.55.22.67a.505.505 0 0 0 .67-.23c.31-.61.6-1.25.86-1.89a.493.493 0 0 0-.27-.65ZM53.8 46.18a.5.5 0 0 0-.69.15c-.36.56-.75 1.11-1.15 1.64a.498.498 0 0 0 .4.8c.15 0 .3-.07.4-.2.42-.55.82-1.12 1.19-1.7a.5.5 0 0 0-.15-.69M8.55 48.62a.505.505 0 0 0-.7-.08c-.22.17-.25.49-.08.7.43.54.89 1.06 1.36 1.57.1.11.23.16.37.16.12 0 .24-.04.34-.13.2-.19.21-.5.02-.71-.45-.49-.89-1-1.31-1.51M54.85 19.57a.494.494 0 0 0 .66.23c.25-.12.35-.42.24-.67-.3-.62-.62-1.24-.96-1.84a.505.505 0 0 0-.68-.19c-.24.14-.32.44-.19.68q.495.87.93 1.77ZM56.93 22.01a.506.506 0 0 0-.64-.31c-.26.09-.4.38-.31.64.22.62.42 1.27.59 1.91.06.22.26.37.48.37.04 0 .09 0 .13-.02.27-.07.43-.35.35-.61-.18-.67-.38-1.33-.61-1.98Z"/><path d="M40.02 42.22c0-1.42-.35-2.83-1.02-4.09-.81-1.53-1.78-2.47-2.81-3.46-.85-.82-1.61-1.42-3.02-2.52-.24-.19-.37-.46-.37-.76s.14-.58.41-.79c1.38-1.08 2.14-1.68 2.99-2.49.69-.66 1.35-1.32 1.95-2.13.02-.02.04-.05.06-.08.28-.38.55-.78.8-1.25a8.85 8.85 0 0 0 1.02-4.09v-4.12c0-.86-.7-1.56-1.56-1.56h-16.9c-.86 0-1.56.7-1.56 1.56v4.12c0 1.29.3 2.57.85 3.73v.02c.01.04.04.07.06.11.04.07.06.15.1.22.81 1.53 1.78 2.47 2.81 3.46.84.81 1.6 1.41 3.02 2.52.24.19.37.46.37.76s-.14.58-.39.78c-1.39 1.09-2.16 1.69-3 2.5-1.03.99-2 1.93-2.81 3.46A8.85 8.85 0 0 0 20 42.21v4.12c0 .86.7 1.56 1.56 1.56h16.9c.86 0 1.56-.7 1.56-1.56v-4.12ZM20.98 16.43c0-.31.25-.56.56-.56h16.9c.31 0 .56.25.56.56v4.12c0 1.26-.31 2.51-.9 3.62-.18.35-.38.66-.58.94-1.01.04-2.02-.03-3-.21-.92-.18-1.37-.36-1.95-.6-.44-.18-.95-.39-1.74-.62-1.38-.4-3.57-.83-6.16-.64-1.04.08-2.07.27-3.08.54-.41-.96-.63-1.99-.63-3.03v-4.12Zm18.04 29.92c0 .31-.25.56-.56.56h-16.9a.56.56 0 0 1-.56-.56v-4.12c0-1.26.31-2.51.9-3.62.74-1.39 1.65-2.27 2.62-3.21.81-.78 1.52-1.33 2.94-2.45.48-.38.76-.94.76-1.55s-.28-1.18-.79-1.58c-1.4-1.09-2.1-1.64-2.91-2.42-.89-.86-1.72-1.69-2.42-2.88.88-.22 1.78-.39 2.68-.46 2.44-.18 4.51.23 5.81.61.74.21 1.2.4 1.64.58.58.24 1.13.46 2.14.66.78.15 1.57.22 2.37.24-.39.43-.8.83-1.23 1.26-.81.78-1.51 1.33-2.94 2.45-.48.38-.76.94-.76 1.55s.28 1.18.78 1.57c1.41 1.1 2.11 1.65 2.93 2.44 1.01.98 1.88 1.82 2.62 3.21.59 1.11.9 2.36.9 3.62v4.12Z"/><path d="M30 34.07a1.24 1.24 0 1 0 0 2.48 1.24 1.24 0 0 0 0-2.48M30 39.67a1.24 1.24 0 1 0 0 2.48 1.24 1.24 0 0 0 0-2.48"/></svg>