<svg xmlns="http://www.w3.org/2000/svg" viewBox="0 0 60 60" class="icon" fill="none" stroke="currentColor" role="presentation" alt=""><path d="M16.06 21.55c-2.66 0-4.83-2.17-4.83-4.83s2.17-4.83 4.83-4.83 4.83 2.17 4.83 4.83-2.17 4.83-4.83 4.83m0-8.66c-2.11 0-3.83 1.72-3.83 3.83s1.72 3.83 3.83 3.83 3.83-1.72 3.83-3.83-1.72-3.83-3.83-3.83"/><path d="M19.04 32.4h-5.95c-.28 0-.5-.22-.5-.5V28l-2.01-.88-2.79 2.79c-.2.2-.51.2-.71 0L2.87 25.7c-.2-.2-.2-.51 0-.71l2.81-2.81-.82-1.99H.88c-.28 0-.5-.22-.5-.5v-5.95c0-.28.22-.5.5-.5h3.97l.79-2.03-2.77-2.77c-.2-.2-.2-.51 0-.71l4.21-4.2c.2-.2.51-.2.71 0l2.79 2.79 2.01-.84V1.55c0-.28.22-.5.5-.5h5.95c.28 0 .5.22.5.5v3.9l2.05.84 2.75-2.75c.2-.2.51-.2.71 0l4.21 4.21c.2.2.2.51 0 .71l-2.73 2.73.87 2.07h3.85c.28 0 .5.22.5.5v5.95c0 .28-.22.5-.5.5H27.4l-.87 2.08 2.73 2.72c.09.09.15.22.15.35s-.05.26-.15.35l-4.21 4.21c-.2.2-.51.2-.71 0l-2.75-2.75-2.05.84v3.89c0 .28-.22.5-.5.5m-5.45-1h4.95v-3.73c0-.2.12-.39.31-.46l2.67-1.1c.19-.08.4-.03.54.11l2.63 2.63 3.5-3.5-2.61-2.6a.51.51 0 0 1-.11-.55l1.13-2.7c.08-.19.26-.31.46-.31h3.68v-4.95h-3.68c-.2 0-.38-.12-.46-.31l-1.13-2.69c-.08-.19-.04-.4.11-.55l2.61-2.61-3.5-3.5-2.63 2.63c-.14.14-.36.19-.54.11l-2.67-1.09a.5.5 0 0 1-.31-.46V2.04h-4.95v3.77c0 .2-.12.38-.31.46l-2.63 1.1c-.19.08-.4.04-.55-.11L7.43 4.59l-3.5 3.5 2.65 2.65c.14.14.18.35.11.53l-1.03 2.65c-.07.19-.26.32-.47.32H1.38v4.95h3.81c.2 0 .39.12.46.31l1.07 2.61c.08.19.03.4-.11.54l-2.69 2.69 3.5 3.5 2.67-2.67c.15-.15.36-.19.55-.1l2.63 1.14c.18.08.3.26.3.46v3.73ZM52.49 60.45c-.09 0-.18-.02-.26-.07l-6.32-3.76a.5.5 0 0 1-.24-.43v-7.32c0-.17.09-.33.24-.43l6.42-3.97c.16-.1.36-.1.53 0l6.43 3.97c.15.09.24.25.24.43v6.96c0 .17-.09.33-.23.42l-6.53 4.12c-.08.05-.17.08-.27.08Zm-5.82-4.55 5.81 3.46 6.04-3.81v-6.41l-5.93-3.66-5.92 3.66z"/><path d="M52.59 56.11c-2.03 0-3.68-1.65-3.68-3.68s1.65-3.68 3.68-3.68 3.68 1.65 3.68 3.68-1.65 3.68-3.68 3.68m0-6.36a2.68 2.68 0 1 0 0 5.36 2.68 2.68 0 0 0 0-5.36M14.76 59.47h-.3c-1.33-.08-2.56-.67-3.45-1.67s-1.34-2.28-1.26-3.62c.08-1.33.67-2.56 1.67-3.45l22.32-19.87c-1.81-5.07-.34-10.83 3.7-14.42 4.06-3.62 9.65-4.42 14.57-2.09.15.07.28.23.31.39.02.17-.01.34-.14.46l-8.22 7.33 5.9 6.63 8.22-7.33c.2-.18.52-.17.71.04.06.07.1.16.12.25.02.03.04.07.05.1 1.66 5.04.17 10.58-3.8 14.11s-9.98 4.33-14.75 2L18.09 58.21c-.92.82-2.09 1.27-3.32 1.27Zm31.47-45.44c-2.94 0-5.8 1.07-8.13 3.14-3.82 3.4-5.15 8.88-3.31 13.64.07.19.02.41-.12.54l-.11.1-22.48 20.01c-1.65 1.47-1.8 4.01-.33 5.65.71.8 1.69 1.27 2.76 1.34s2.1-.3 2.89-1.01l22.57-20.1c.16-.15.39-.18.57-.08 4.45 2.34 10.18 1.64 13.93-1.7 3.53-3.14 4.94-7.99 3.68-12.5l-8.02 7.15c-.1.09-.23.13-.36.13s-.26-.07-.34-.17l-6.56-7.38a.505.505 0 0 1 .04-.71l8.02-7.14c-1.54-.62-3.13-.93-4.7-.93Z"/></svg>