<svg xmlns="http://www.w3.org/2000/svg" viewBox="0 0 60 60" role="presentation" alt=""><path d="M36.24 1.7c-9.21-1.76-19.6 1.45-27.12 8.4-3.29 3.04-5.74 6.68-7.1 10.54-3.17 9-.25 17 1.14 20.02 2.6 5.61 7.01 10.06 13.11 13.23 4.06 2.1 8.66 3.29 13.32 3.43h26.47c.37 0 .69-.21.84-.55s.09-.72-.16-.99l-4.43-4.91c-.68-.75-.68-1.9 0-2.63 2.61-2.76 5.96-7.44 7.12-14.05.46-2.62 1.14-9.5-2.5-16.89C50.8 4.81 37.71 1.98 36.24 1.7m22.22 32.32c-1.12 6.37-4.35 10.87-6.87 13.54-1.04 1.1-1.05 2.85-.02 3.98s4.32 4.78 4.32 4.78H29.61c-4.5-.14-8.96-1.28-12.88-3.32-2.2-1.14-8.89-4.61-12.67-12.76-1.35-2.91-4.15-10.61-1.11-19.27 1.3-3.71 3.67-7.21 6.84-10.14 5.98-5.51 13.81-8.61 21.34-8.61 1.66 0 3.31.15 4.92.46 1.42.27 14.07 3.01 20 15.07 3.51 7.13 2.85 13.75 2.41 16.27"/><path d="M30.21 19.56a4.31 4.31 0 1 0 0-8.62 4.31 4.31 0 0 0 0 8.62m0-7.62c1.83 0 3.31 1.49 3.31 3.31s-1.49 3.31-3.31 3.31-3.31-1.49-3.31-3.31 1.49-3.31 3.31-3.31M37.57 43.53h-5.19V24.05c0-.65-.53-1.18-1.18-1.18h-2.66c-.28 0-.5.22-.5.5s.22.5.5.5h2.66c.1 0 .18.08.18.18v19.48h-5.19c-.28 0-.5.22-.5.5s.22.5.5.5h11.38c.28 0 .5-.22.5-.5s-.22-.5-.5-.5"/></svg>