<svg xmlns="http://www.w3.org/2000/svg" viewBox="0 0 60 60" role="presentation" alt=""><path d="M51.89 51.36c-.86-.95-.86-2.4.01-3.33 2.32-2.45 5.85-7.11 7.05-13.89.25-1.42 1.42-8.78-2.47-16.7C50.35 4.98 37.12 2.22 35.98 2 26.45.17 16.14 3.83 9.1 10.33c-3.11 2.87-5.61 6.41-7.02 10.42-3.32 9.44.15 17.66 1.13 19.78C7 48.72 13.76 52.35 16.19 53.61c5.38 2.79 10.38 3.31 13.19 3.4h26.66c.37 0 .56-.44.32-.71-1.49-1.65-2.98-3.29-4.46-4.94Z"/><path d="M28.32 23.32H31c.38 0 .69.31.69.69v20.12"/><circle cx="30.21" cy="15.25" r="3.81"/><path d="M25.96 44.13h11.46"/></svg>