<svg xmlns="http://www.w3.org/2000/svg" viewBox="0 0 60 60" class="icon" fill="none" stroke="currentColor" role="presentation" alt=""><path d="M17.73 53.84H1.38c-.28 0-.5-.22-.5-.5v-20.1c0-.28.22-.5.5-.5h11.76c.13 0 .26.05.35.15l4.59 4.61c.09.09.15.22.15.35v15.48c0 .28-.22.5-.5.5Zm-15.85-1h15.35V38.06l-4.29-4.32H1.88z"/><path d="M17.73 38.42h-4.59c-.28 0-.5-.22-.5-.5v-4.68c0-.28.22-.5.5-.5s.5.22.5.5v4.18h4.09c.28 0 .5.22.5.5s-.22.5-.5.5M30.12 10.73c-2.52 0-4.57-2.05-4.57-4.57s2.05-4.57 4.57-4.57 4.57 2.05 4.57 4.57-2.05 4.57-4.57 4.57m0-8.14c-1.97 0-3.57 1.6-3.57 3.57s1.6 3.57 3.57 3.57 3.57-1.6 3.57-3.57-1.6-3.57-3.57-3.57M38.53 22.34H21.79a.5.5 0 0 1-.5-.49l-.04-3.53c0-3.57 2.66-6.59 6.06-6.88.2-.02.39-.03.59-.03h4.42c.21 0 .42 0 .62.03 3.36.29 6.03 3.31 6.03 6.87l.04 3.43s.01.07.01.1c0 .28-.22.5-.5.5Zm-16.24-1h15.73l-.03-3.03c0-3.05-2.26-5.63-5.15-5.88-.19-.03-.35-.03-.5-.03h-4.42c-.17 0-.33 0-.5.03-2.89.25-5.16 2.83-5.16 5.88zM49.12 46.25c-1.63 0-2.96-1.33-2.96-2.96s1.33-2.96 2.96-2.96 2.96 1.33 2.96 2.96-1.33 2.96-2.96 2.96m0-4.92c-1.08 0-1.96.88-1.96 1.96s.88 1.96 1.96 1.96 1.96-.88 1.96-1.96-.88-1.96-1.96-1.96"/><path d="M50.81 53.79h-3.87c-.28 0-.5-.22-.5-.5v-2.42l-1.1-.48-1.73 1.73c-.2.2-.51.2-.71 0l-2.74-2.74c-.09-.09-.15-.22-.15-.35s.05-.26.15-.35l1.76-1.75-.45-1.09H39c-.28 0-.5-.22-.5-.5v-3.87c0-.28.22-.5.5-.5h2.46l.43-1.11-1.73-1.73c-.09-.09-.15-.22-.15-.35s.05-.26.15-.35l2.74-2.73c.2-.19.51-.19.71 0l1.74 1.74 1.1-.46v-2.45c0-.28.22-.5.5-.5h3.87c.28 0 .5.22.5.5v2.42l1.12.45 1.7-1.7c.2-.19.51-.2.71 0l2.74 2.73c.2.19.2.51 0 .71l-1.69 1.7.48 1.14h2.39c.28 0 .5.22.5.5v3.87c0 .28-.22.5-.5.5h-2.39l-.48 1.14 1.69 1.69c.09.09.15.22.15.35s-.05.26-.15.35l-2.74 2.74a.5.5 0 0 1-.35.15.47.47 0 0 1-.35-.15l-1.7-1.71-1.12.46v2.42c0 .28-.22.5-.5.5Zm-3.37-1h2.87v-2.25c0-.2.12-.39.31-.46l1.74-.71c.19-.08.4-.03.54.11l1.58 1.59 2.04-2.03-1.57-1.57a.51.51 0 0 1-.11-.55l.73-1.76c.08-.19.26-.31.46-.31h2.22v-2.87h-2.22c-.2 0-.38-.12-.46-.31l-.73-1.75c-.08-.19-.04-.4.11-.55l1.58-1.58-2.04-2.03-1.58 1.58c-.14.14-.35.19-.54.11l-1.74-.7a.5.5 0 0 1-.31-.46v-2.26h-2.87v2.28c0 .2-.12.38-.31.46l-1.71.72c-.19.08-.4.04-.55-.11l-1.62-1.62-2.04 2.03 1.6 1.6c.14.14.18.35.11.53l-.67 1.73c-.07.19-.26.32-.47.32h-2.31v2.87h2.31c.2 0 .38.12.46.31l.7 1.71c.08.19.03.4-.11.55l-1.64 1.63 2.04 2.03 1.62-1.62c.15-.14.36-.19.55-.11l1.71.74c.18.08.3.26.3.46v2.25Z"/><path d="M29.61 58.19c-5.11 0-10.04-1.52-14.24-4.39a.5.5 0 0 1-.13-.7.5.5 0 0 1 .7-.13c4.03 2.76 8.76 4.21 13.67 4.21 6.38 0 12.41-2.46 16.98-6.92.2-.19.52-.19.71 0 .19.2.19.51 0 .71-4.75 4.65-11.03 7.2-17.68 7.2ZM54.31 35.66h-.04a.503.503 0 0 1-.46-.54c.07-.77.1-1.52.1-2.23 0-11.98-8.56-22.06-20.36-23.98a.49.49 0 0 1-.41-.57c.04-.27.3-.46.57-.41 12.28 2 21.2 12.5 21.2 24.97 0 .74-.04 1.52-.1 2.31-.02.26-.24.46-.5.46ZM4.81 33.74c-.28 0-.5-.22-.5-.5v-.34c0-12.76 9.53-23.55 22.17-25.11a.503.503 0 1 1 .12 1C14.46 10.29 5.31 20.65 5.31 32.91v.34c0 .28-.22.5-.5.5Z"/></svg>