<svg xmlns="http://www.w3.org/2000/svg" viewBox="0 0 60 60" width="60" height="60" role="presentation" alt=""><path d="M30 .41C13.68.41.41 13.68.41 30S13.68 59.59 30 59.59 59.59 46.32 59.59 30 46.32.41 30 .41m0 58.18C14.24 58.59 1.41 45.76 1.41 30S14.24 1.41 30 1.41 58.59 14.24 58.59 30 45.76 58.59 30 58.59"/><path d="M30.57 45.29c-2.16 0-3.92 1.76-3.92 3.92s1.76 3.92 3.92 3.92 3.92-1.76 3.92-3.92-1.76-3.92-3.92-3.92m0 6.84c-1.61 0-2.92-1.31-2.92-2.92s1.31-2.92 2.92-2.92 2.92 1.31 2.92 2.92-1.31 2.92-2.92 2.92M37.36 9.26c-2.09-1.89-4.81-2.86-8.09-2.87-3.41-.02-6.49 1.13-8.66 3.23-2.07 2-2.8 4.31-3.11 5.3-.63 1.99-.8 4.14-.49 6.22a.5.5 0 1 0 .99-.15c-.28-1.94-.12-3.94.46-5.78.31-.99.96-3.06 2.85-4.88 2-1.93 4.73-2.95 7.91-2.95h.06c3.03.01 5.53.89 7.43 2.61 1.73 1.57 2.43 3.38 2.72 4.16 1.05 2.74.76 5.17.63 6.21-.09.74-.27 2.28-1.11 4.03-.86 1.78-1.98 2.92-2.8 3.75-.57.58-.97.91-1.44 1.29-.56.46-1.2.99-2.31 2.09-.8.8-1.5 1.56-1.96 2.73-.28.72-.44 1.5-.46 2.32v4.59c0 .28.22.5.5.5s.5-.22.5-.5v-4.57c.02-.69.15-1.35.39-1.96.39-1 .99-1.64 1.74-2.39 1.07-1.07 1.69-1.58 2.24-2.03.47-.38.91-.74 1.52-1.37.87-.88 2.06-2.09 2.99-4.02.91-1.89 1.11-3.55 1.2-4.34.13-1.11.45-3.72-.69-6.69-.32-.84-1.08-2.81-2.98-4.54Z"/></svg>