<svg xmlns="http://www.w3.org/2000/svg" viewBox="0 0 60 60" role="presentation" alt=""><path d="M53.94 18.63a.49.49 0 0 0 .67.2c.24-.13.34-.43.21-.68-.31-.57-.64-1.14-.98-1.69a.504.504 0 0 0-.69-.16c-.23.15-.3.46-.16.69.33.53.65 1.08.95 1.63ZM51.37 14.67c.1.13.25.19.39.19.11 0 .22-.03.31-.11.22-.17.26-.48.08-.7-.4-.51-.83-1.02-1.26-1.5a.505.505 0 0 0-.71-.04c-.21.19-.22.5-.04.71.42.47.83.95 1.22 1.45ZM56.53 25.7q.195.915.33 1.86c.04.25.25.43.49.43h.07a.5.5 0 0 0 .42-.57c-.09-.65-.21-1.29-.34-1.93a.507.507 0 0 0-.59-.39c-.27.06-.44.32-.39.59ZM55.79 22.96c.07.21.26.35.48.35.05 0 .1 0 .15-.02a.5.5 0 0 0 .32-.63c-.2-.62-.43-1.24-.67-1.84a.501.501 0 0 0-.93.37c.24.58.45 1.18.65 1.77M47.16 10.38c.33.27.66.56.98.84.1.09.22.13.33.13a.505.505 0 0 0 .33-.88q-.495-.45-1.02-.87l-.48-.39a.496.496 0 0 0-.7.09c-.17.22-.13.53.09.7.16.12.31.25.46.37ZM40.55 5.31c-.6-.24-1.22-.47-1.84-.67a.5.5 0 0 0-.31.95c.6.19 1.19.41 1.77.65.06.02.12.04.19.04a.498.498 0 0 0 .18-.96ZM35.67 4.85s.07.01.1.01a.501.501 0 0 0 .1-.99c-.64-.14-1.29-.25-1.93-.34a.485.485 0 0 0-.56.43c-.04.27.15.53.43.56q.945.135 1.86.33M42.54 6.76c-.13.24-.04.55.21.68.55.29 1.1.61 1.64.95a.482.482 0 0 0 .68-.15c.15-.23.08-.54-.16-.69-.55-.35-1.12-.68-1.69-.98a.5.5 0 0 0-.68.21ZM57.59 29.88a.49.49 0 0 0-.48.52c.01.33.02.65.02.98 0 14.96-12.17 27.12-27.12 27.12S2.88 46.34 2.88 31.38 15.04 4.26 30 4.26h.16l-2.41 2.9c-.18.21-.15.53.07.7.09.08.21.12.32.12.14 0 .29-.06.39-.18L31.69 4c.09-.1.13-.24.11-.37a.47.47 0 0 0-.19-.34L28.15.6a.496.496 0 0 0-.7.09c-.17.22-.13.53.09.7l2.41 1.88C14.46 3.3 1.88 15.9 1.88 31.38S14.5 59.5 30 59.5s28.12-12.62 28.12-28.12c0-.34 0-.68-.02-1.02 0-.28-.26-.5-.52-.48Z"/><path d="M19.96 49.9c.08.05.17.07.25.07.14 0 .28-.06.38-.17l19.97-23.17c.13-.15.16-.36.08-.54s-.26-.29-.45-.29H33.8l6.18-10.35c.09-.15.09-.35 0-.5a.49.49 0 0 0-.44-.25H28.75c-.19 0-.36.1-.44.27l-8.95 17.14a.504.504 0 0 0 .45.73h6.15L19.74 49.3c-.09.23 0 .48.21.61Zm7.19-17.4c.06-.15.04-.33-.06-.46a.49.49 0 0 0-.41-.22h-6.05l8.43-16.14h9.6l-6.18 10.35c-.09.15-.09.35 0 .5.09.16.25.25.44.25h6.18l-17.42 20.2 5.47-14.5Z"/></svg>