<svg xmlns="http://www.w3.org/2000/svg" viewBox="0 0 60 60" role="presentation" alt=""><path d="M58.01 31.39C58.01 46.86 45.47 59.4 30 59.4S1.99 46.86 1.99 31.39 14.53 3.38 30 3.38M30 3.38c.33 0 .67 0 1 .02"/><path d="M33.92 3.65c5.19.73 9.93 2.88 13.81 6.05 5.68 4.65 9.51 11.49 10.18 19.23" style="fill:none;stroke:#000;stroke-linecap:round;stroke-linejoin:round;stroke-dasharray:1.95 2.93"/><path d="M58 30.39c.01.33.02.67.02 1M27.8.57l3.51 2.73-3.2 3.85M28.74 14.97h10.94l-6.72 11.26h7.37l-20.26 23.5 6.57-17.38h-6.97z"/></svg>