<svg xmlns="http://www.w3.org/2000/svg" viewBox="0 0 60 60" class="icon" fill="none" stroke="currentColor" role="presentation" alt=""><path d="M59.37 59.33H12.64c-.28 0-.5-.22-.5-.5v-3.84c0-.28.22-.5.5-.5s.5.22.5.5v3.34h45.73V14.8L46.05 1.89H13.14v29.32c0 .28-.22.5-.5.5s-.5-.22-.5-.5V1.39c0-.28.22-.5.5-.5h33.61c.13 0 .26.05.35.15l13.12 13.2c.09.09.15.22.15.35v44.24c0 .28-.22.5-.5.5"/><path d="M59.37 15.27H46.25c-.28 0-.5-.22-.5-.5V1.39c0-.28.22-.5.5-.5s.5.22.5.5v12.87h12.62c.28 0 .5.22.5.5s-.22.5-.5.5ZM28.19 19.88c-2.26 0-4.09-1.83-4.09-4.09s1.83-4.09 4.09-4.09 4.09 1.83 4.09 4.09-1.83 4.09-4.09 4.09m0-7.18c-1.7 0-3.09 1.39-3.09 3.09s1.39 3.09 3.09 3.09 3.09-1.39 3.09-3.09-1.39-3.09-3.09-3.09M35.6 30.12H20.85a.5.5 0 0 1-.5-.49l-.04-3.11c0-3.18 2.38-5.87 5.41-6.12.19-.01.36-.02.53-.02h3.89c.18 0 .37 0 .55.02 3.01.25 5.39 2.94 5.39 6.12l.04 3.1c0 .28-.22.5-.49.51h-.02Zm-14.26-1H35.1l-.03-2.6c0-2.67-1.97-4.92-4.49-5.13-.16-.02-.3-.02-.45-.02h-3.89c-.15 0-.3 0-.46.02-2.51.21-4.48 2.46-4.48 5.12l.03 2.61ZM9.57 47.83h-.06a.53.53 0 0 1-.36-.22L6.2 43.15a.498.498 0 0 1 .83-.55l2.63 3.97 8.81-8.05c.2-.19.52-.17.71.03s.17.52-.03.71L9.91 47.7c-.09.08-.21.13-.34.13"/><path d="M12.71 55.49C5.88 55.49.32 49.93.32 43.1s5.56-12.39 12.39-12.39S25.1 36.27 25.1 43.1s-5.56 12.39-12.39 12.39m0-23.78c-6.28 0-11.39 5.11-11.39 11.39s5.11 11.39 11.39 11.39S24.1 49.38 24.1 43.1s-5.11-11.39-11.39-11.39M37.63 30.12H18.82c-.28 0-.5-.22-.5-.5V8.01c0-.28.22-.5.5-.5h18.81c.28 0 .5.22.5.5v21.62c0 .28-.22.5-.5.5Zm-18.31-1h17.81V8.51H19.32v20.62Z"/></svg>