<svg xmlns="http://www.w3.org/2000/svg" viewBox="0 0 60 60" role="presentation" alt=""><path d="M19.67 16.14c.13 0 .26-.05.35-.15.2-.2.2-.51 0-.71l-5.31-5.31c-.2-.2-.51-.2-.71 0s-.2.51 0 .71l5.31 5.31c.1.1.23.15.35.15ZM10.6 18.21c-.28 0-.5.22-.5.5s.22.5.5.5h7.51c.28 0 .5-.22.5-.5s-.22-.5-.5-.5zM21.97 5.67v7.55c0 .28.22.5.5.5s.5-.22.5-.5V5.67c0-.28-.22-.5-.5-.5s-.5.22-.5.5M44.09 41.66c-.2-.2-.51-.2-.71 0s-.2.51 0 .71l5.31 5.31a.485.485 0 0 0 .7 0c.2-.2.2-.51 0-.71l-5.31-5.31ZM52.81 38.44H45.3c-.28 0-.5.22-.5.5s.22.5.5.5h7.51c.28 0 .5-.22.5-.5s-.22-.5-.5-.5M41.05 43.69c-.28 0-.5.22-.5.5v7.51c0 .28.22.5.5.5s.5-.22.5-.5v-7.51c0-.28-.22-.5-.5-.5M44.13.41A14.53 14.53 0 0 0 33.97 5.1l-9.6 10.43a14.6 14.6 0 0 0-3.04 5.1c-2.88.66-5.46 2.15-7.46 4.32l-9.6 10.43c-2.63 2.86-4 6.6-3.83 10.51.16 3.91 1.83 7.52 4.69 10.16 2.71 2.49 6.2 3.85 9.88 3.85.21 0 .42 0 .63-.01A14.53 14.53 0 0 0 25.8 55.2l9.6-10.43c1.4-1.52 2.41-3.26 3.04-5.09 2.88-.66 5.46-2.16 7.46-4.33l9.6-10.43c2.63-2.86 4-6.6 3.83-10.51a14.53 14.53 0 0 0-4.69-10.16C51.78 1.62 48.05.26 44.13.42ZM25.23 36.2c1.24 1.14 2.66 2.04 4.21 2.69l-9.69 10.53a6.73 6.73 0 0 1-4.7 2.18c-1.79.07-3.53-.56-4.86-1.78s-2.1-2.89-2.18-4.7.56-3.53 1.78-4.86l9.7-10.54c.41-.44.88-.81 1.38-1.12.63 2.92 2.13 5.56 4.36 7.61Zm9.44 7.89-9.6 10.43c-5.09 5.53-13.73 5.89-19.26.8-2.67-2.45-4.22-5.81-4.37-9.46s1.12-7.13 3.57-9.79l9.6-10.43c1.73-1.88 3.92-3.21 6.38-3.88a14.7 14.7 0 0 0-.31 5.79c-.71.4-1.36.9-1.91 1.5l-9.7 10.54c-2.9 3.15-2.69 8.07.46 10.97a7.7 7.7 0 0 0 5.25 2.05h.33c2.07-.09 3.99-.97 5.39-2.5l9.7-10.54c1.4-1.53 2.13-3.51 2.04-5.58s-.97-3.99-2.5-5.39c-.23-.21-.46-.4-.71-.58a.4.4 0 0 0-.25-.08 6.78 6.78 0 0 1 .07-5.99c1.87.6 3.56 1.57 5.02 2.91 5.53 5.09 5.89 13.73.8 19.26Zm-.13-20c-1.5-1.38-3.25-2.39-5.17-3.04.16-.22.33-.44.52-.64l9.7-10.54c2.52-2.74 6.81-2.92 9.56-.4a6.73 6.73 0 0 1 2.18 4.7c.07 1.81-.56 3.53-1.78 4.86l-9.7 10.54c-.37.4-.79.73-1.24 1.03-.73-2.41-2.08-4.67-4.07-6.5Zm20.22.14-9.6 10.43a13.4 13.4 0 0 1-6.38 3.88c.59-2.27.62-4.66.1-6.94.62-.38 1.2-.83 1.69-1.37l9.7-10.54c2.9-3.15 2.69-8.07-.46-10.97s-8.07-2.69-10.97.46l-9.7 10.54c-2.9 3.15-2.69 8.07.46 10.97.34.31.63.55 1.02.8.95 2.1.77 4.61-.56 6.58-1.54-.61-2.94-1.48-4.17-2.61-5.53-5.09-5.89-13.73-.8-19.26l9.6-10.43c2.45-2.67 5.81-4.22 9.46-4.37 3.64-.15 7.13 1.12 9.79 3.57 2.67 2.45 4.22 5.81 4.37 9.46s-1.12 7.13-3.57 9.79Z"/></svg>