<svg xmlns="http://www.w3.org/2000/svg" viewBox="0 0 60 60" role="presentation" alt=""><path d="m14.43 10.08 5.34 5.33M10.65 18.5h7.55M22.47 5.67v7.55M49.3 47.26l-5.34-5.34M53.08 38.84h-7.55M41.26 51.66v-7.55M30.31 38.55c-1.66-.62-3.23-1.56-4.61-2.84h0c-5.75-5.29-6.12-14.32-.84-20.07l9.65-10.49C39.8-.6 48.83-.97 54.58 4.31h0c5.75 5.29 6.12 14.32.84 20.07l-9.65 10.49c-2.03 2.2-4.6 3.61-7.33 4.22"/><path d="M31.19 31.01c-.43-.25-.7-.48-1.08-.83h0a7.303 7.303 0 0 1-.43-10.32l9.75-10.6a7.303 7.303 0 0 1 10.32-.43h0a7.303 7.303 0 0 1 .43 10.32l-9.75 10.6c-.54.59-1.16 1.07-1.83 1.44"/><path d="M28.75 21.11c2.04.59 3.97 1.64 5.63 3.17h0c5.75 5.29 6.12 14.32.84 20.07l-9.65 10.49c-5.29 5.75-14.32 6.12-20.07.84h0c-5.75-5.29-6.12-14.32-.84-20.07l9.65-10.49a14.08 14.08 0 0 1 7.51-4.26"/><path d="M28.88 28.25q.345.255.66.54h0a7.303 7.303 0 0 1 .43 10.32l-9.75 10.6a7.303 7.303 0 0 1-10.32.43h0a7.303 7.303 0 0 1-.43-10.32l9.75-10.6a7.2 7.2 0 0 1 1.9-1.48"/></svg>