<svg xmlns="http://www.w3.org/2000/svg" viewBox="0 0 60 60" class="icon" fill="none" stroke="currentColor" role="presentation" alt=""><path d="M47.34 24.25h-34c-.28 0-.5-.22-.5-.5V2.39c0-.28.22-.5.5-.5h34.01c.28 0 .5.22.5.5v21.35c0 .28-.22.5-.5.5Zm-33.5-1h33.01V2.89H13.84v20.35ZM24.7 40.6H11.17c-.28 0-.5-.22-.5-.5v-3.63c0-.28.22-.5.5-.5h13.28c.28 0 .5.22.5.5s-.22.5-.5.5H11.67v2.63H24.7c.28 0 .5.22.5.5s-.22.5-.5.5M48.15 40.6H35.77c-.28 0-.5-.22-.5-.5s.22-.5.5-.5h11.88v-2.63H35.77c-.28 0-.5-.22-.5-.5s.22-.5.5-.5h12.38c.28 0 .5.22.5.5v3.63c0 .28-.22.5-.5.5"/><path d="M18.93 57c-.28 0-.5-.22-.5-.5V40.1c0-.28.22-.5.5-.5s.5.22.5.5v16.4c0 .28-.22.5-.5.5M40.93 57.2c-.28 0-.5-.22-.5-.5V40.3c0-.28.22-.5.5-.5s.5.22.5.5v16.4c0 .28-.22.5-.5.5M36.93 48.34H23.3c-.28 0-.5-.22-.5-.5v-4.57c0-.28.22-.5.5-.5h.92v-8.54c0-2.66 2.16-4.83 4.83-4.84h2.15c2.67 0 4.84 2.17 4.84 4.84v8.54h.9c.28 0 .5.22.5.5v4.57c0 .28-.22.5-.5.5Zm-13.13-1h12.63v-3.57h-.8c-.29.06-.6-.18-.6-.49v-9.05c0-2.12-1.72-3.84-3.84-3.84h-2.14c-2.12 0-3.84 1.72-3.84 3.84v9.05c0 .31-.31.55-.6.49h-.82v3.57ZM34.17 57c-.28 0-.5-.22-.5-.5v-1.86h-7.2v1.86c0 .28-.22.5-.5.5s-.5-.22-.5-.5v-2.36c0-.28.22-.5.5-.5h8.2c.28 0 .5.22.5.5v2.36c0 .28-.22.5-.5.5"/><path d="M30.06 54.5c-.28 0-.5-.22-.5-.5v-6.01c0-.28.22-.5.5-.5s.5.22.5.5V54c0 .28-.22.5-.5.5M56.73 57c-.28 0-.5-.22-.5-.5v-1.86h-7.2v1.86c0 .28-.22.5-.5.5s-.5-.22-.5-.5v-2.36c0-.28.22-.5.5-.5h8.2c.28 0 .5.22.5.5v2.36c0 .28-.22.5-.5.5"/><path d="M52.62 54.5c-.28 0-.5-.22-.5-.5v-6.01c0-.28.22-.5.5-.5s.5.22.5.5V54c0 .28-.22.5-.5.5"/><path d="M58.76 48.47H45.03c-.28 0-.5-.22-.5-.5v-4.88c0-.28.22-.5.5-.5h9.16c.28 0 .5.22.5.5s-.22.5-.5.5h-8.66v3.88h12.73v-4.38c0-.28.22-.5.5-.5s.5.22.5.5v4.88c0 .28-.22.5-.5.5"/><path d="M58.76 43.59c-.28 0-.5-.22-.5-.5V30.86h-3.57v12.23c0 .28-.22.5-.5.5s-.5-.22-.5-.5V30.36c0-.28.22-.5.5-.5h4.57c.28 0 .5.22.5.5v12.73c0 .28-.22.5-.5.5M11.48 56.73c-.28 0-.5-.22-.5-.5v-1.86h-7.2v1.86c0 .28-.22.5-.5.5s-.5-.22-.5-.5v-2.36c0-.28.22-.5.5-.5h8.2c.28 0 .5.22.5.5v2.36c0 .28-.22.5-.5.5"/><path d="M7.38 54.31c-.28 0-.5-.22-.5-.5v-6.08c0-.28.22-.5.5-.5s.5.22.5.5v6.08c0 .28-.22.5-.5.5"/><path d="M14.97 48.21H1.24c-.28 0-.5-.22-.5-.5v-4.88c0-.28.22-.5.5-.5s.5.22.5.5v4.38h12.73v-3.88H5.82c-.28 0-.5-.22-.5-.5s.22-.5.5-.5h9.16c.28 0 .5.22.5.5v4.88c0 .28-.22.5-.5.5Z"/><path d="M5.82 43.32c-.28 0-.5-.22-.5-.5V30.59H1.74v12.23c0 .28-.22.5-.5.5s-.5-.22-.5-.5V30.09c0-.28.22-.5.5-.5h4.57c.28 0 .5.22.5.5v12.73c0 .28-.22.5-.5.5Z"/></svg>