<svg xmlns="http://www.w3.org/2000/svg" width="2015" height="1327" fill="none" viewBox="0 0 2015 1327" class="stage-bg" role="presentation"><path fill="var(--fl-bgColor, var(--color-guidelines-red-light))" d="M959.504 56.682C765.908 77.27 627.156 140.438 544.219 178.966 239.438 320.865 121.192 500.771 87.113 557.38c-39.247 65.392-62.78 127.139-63.96 197.152-1.841 104.924 47.522 219.324 128.494 262.828 41.551 22.4 87.849 29.84 133.609 33.7 220.307 18.75 451.843 12.4 671.198 67.26 217.966 54.54 412.426 234.8 645.916 182.38 73.26-16.45 224.42-50.41 311.36-196.59 131.8-221.737 46.86-585.862-101.16-790.913C1579.86-9.283 1171.86 34.144 959.504 56.682" opacity=".6" style="mix-blend-mode:multiply"/></svg>
