<svg xmlns="http://www.w3.org/2000/svg" viewBox="0 0 60 60" class="icon" fill="none" stroke="currentColor" role="presentation" alt=""><path d="M20.17 10.62c-2.38 0-4.32-1.94-4.32-4.32s1.94-4.32 4.32-4.32 4.32 1.94 4.32 4.32-1.94 4.32-4.32 4.32m0-7.64c-1.83 0-3.32 1.49-3.32 3.32s1.49 3.32 3.32 3.32 3.32-1.49 3.32-3.32S22 2.98 20.17 2.98M16.36 50.36c-.2 0-.41-.02-.62-.07a2.694 2.694 0 0 1-2-3.18l2.2-10.15-.61-17.07-1.97 2.25-.97 6.24a2.18 2.18 0 0 1-2.34 1.84c-.6-.06-1.15-.36-1.52-.83s-.53-1.08-.45-1.66l1.29-8.44s.02-.08.03-.11a12.3 12.3 0 0 1 2.54-3.96c1.3-1.36 2.94-2.42 4.74-3.08.08-.05.17-.09.27-.09h6.06c.45 0 .9.1 1.31.3l5.71 2.76 4.85-2.64c.96-.52 2.16-.21 2.75.7.31.48.4 1.07.26 1.62-.14.56-.5 1.03-1.01 1.31l-8.09 4.45a.51.51 0 0 1-.48 0L24.8 18.6v6.13l4.72 3.88c.08.07.14.16.17.26l2.49 9.23c.31 1.16-.32 2.39-1.45 2.8a2.33 2.33 0 0 1-3.05-1.58l-2.01-7.35-3.94-1.99-.33 7.87-2.41 10.43a2.7 2.7 0 0 1-2.62 2.08Zm-.57-32.25c.06 0 .11 0 .17.03.19.07.32.25.33.45l.65 18.39s0 .08-.01.12l-2.21 10.22c-.2.89.36 1.78 1.25 1.99.91.21 1.82-.35 2.03-1.26l2.4-10.33.34-8.55c0-.17.1-.32.25-.41s.33-.09.48-.02l4.84 2.44a.5.5 0 0 1 .26.31l2.07 7.56c.1.37.34.66.67.83s.72.2 1.07.07c.64-.24 1.01-.94.83-1.6l-2.45-9.08-4.78-3.93a.5.5 0 0 1-.18-.39v-7.21c0-.18.09-.34.25-.43.15-.09.34-.09.5 0l4.01 2.23 7.84-4.32a1.076 1.076 0 0 0 .4-1.52c-.3-.47-.93-.63-1.43-.36L30.3 16.1c-.14.08-.31.08-.46.01l-5.94-2.87c-.27-.13-.57-.2-.87-.2h-5.91c-1.69.6-3.22 1.59-4.43 2.86-.99 1.04-1.77 2.25-2.31 3.59L9.1 27.86c-.05.32.04.64.24.9s.5.42.82.45c.62.06 1.17-.38 1.26-1l.99-6.38c.01-.09.06-.18.12-.25l2.89-3.31a.5.5 0 0 1 .38-.17ZM21 59.87H1.07c-.28 0-.5-.22-.5-.5V52.4c0-.28.22-.5.5-.5H21c.28 0 .5.22.5.5v6.97c0 .28-.22.5-.5.5m-19.43-1H20.5V52.9H1.57zM38.17 59.87h-9.62c-.28 0-.5-.22-.5-.5V44.33c0-.28.22-.5.5-.5h9.62c.28 0 .5.22.5.5v15.04c0 .28-.22.5-.5.5m-9.13-1h8.62V44.83h-8.62zM58.96 59.87h-13c-.28 0-.5-.22-.5-.5V29.29c0-.28.22-.5.5-.5h13c.28 0 .5.22.5.5v30.08c0 .28-.22.5-.5.5m-12.5-1h12V29.79h-12zM37.07 1.7h-.08a.5.5 0 0 1-.43-.5c0-.28.22-.5.5-.5h.02c.28 0 .5.22.5.5 0 .25-.19.46-.44.5z"/><path d="M38.57 10.66h-3.03c-.28 0-.5-.22-.5-.5V9.13l-1.42-2.65c-.14-.28-.31-.64-.39-1.05A3.941 3.941 0 0 1 37.07.71c2.16 0 3.92 1.77 3.92 3.93 0 .3-.03.57-.08.81-.07.33-.2.67-.38 1.03L39.08 9.2v.98c0 .28-.22.5-.5.5Zm-2.53-1h2.03v-.62c0-.12.04-.23.11-.32L39.64 6c.14-.27.24-.53.29-.78a2.938 2.938 0 0 0-2.86-3.52 2.932 2.932 0 0 0-2.86 3.52c.05.24.14.48.3.79l1.5 2.79c.06.12.08.25.04.38v.48Z"/></svg>