<svg xmlns="http://www.w3.org/2000/svg" viewBox="0 0 60 60" class="icon" fill="none" stroke="currentColor" role="presentation" alt=""><path d="M29.08 58.72c-.09 0-.17-.02-.25-.07C19.5 53.21 13.7 42.53 13.7 30.76S19.5 8.32 28.83 2.88c.24-.14.54-.06.68.18s.06.54-.18.68C20.3 9 14.7 19.36 14.7 30.76s5.61 21.76 14.63 27.02c.24.14.32.45.18.68-.09.16-.26.25-.43.25Z"/><path d="M27.53 58.72c-.17 0-.34-.09-.43-.25a.493.493 0 0 1 .18-.68c9.03-5.26 14.64-15.61 14.64-27.02 0-1.32-.08-2.67-.23-4-.03-.27.16-.52.44-.55s.52.17.55.44c.16 1.37.24 2.75.24 4.11 0 11.77-5.8 22.45-15.14 27.89-.08.05-.17.07-.25.07ZM33.79 8.8c-.13 0-.27-.05-.36-.16-1.83-1.94-3.9-3.59-6.14-4.9a.496.496 0 0 1-.18-.68c.14-.24.45-.32.68-.18 2.32 1.36 4.46 3.06 6.36 5.08a.504.504 0 0 1-.36.85Z"/><path d="M27.94 20.43c-7.63 0-15-2.49-20.75-7.02-.11-.08-.17-.21-.19-.34s.03-.27.12-.37c5.34-6.28 13.11-9.89 21.32-9.89 6.39 0 12.65 2.22 17.61 6.25.21.17.25.49.07.7-.17.21-.49.25-.7.07A27 27 0 0 0 28.44 3.8c-7.75 0-15.09 3.32-20.22 9.14 5.51 4.18 12.49 6.48 19.72 6.48 4.86 0 9.5-.99 13.79-2.95.25-.12.55 0 .66.25s0 .55-.25.66c-4.43 2.02-9.21 3.04-14.21 3.04ZM28.44 58.72c-8.07 0-15.75-3.5-21.07-9.6a.5.5 0 0 1-.12-.37c.01-.14.08-.26.18-.35 5.79-4.66 13.25-7.22 21.01-7.22s15.22 2.56 21.01 7.22c.11.09.17.21.18.35a.5.5 0 0 1-.12.37c-5.32 6.1-13 9.6-21.07 9.6M8.48 48.86c5.11 5.64 12.36 8.86 19.97 8.86s14.86-3.22 19.97-8.86c-5.55-4.31-12.62-6.68-19.97-6.68s-14.42 2.37-19.97 6.68"/><path d="M49.14 49.3a.5.5 0 0 1-.31-.11c-5.61-4.51-12.85-7-20.38-7s-14.77 2.49-20.38 7a.5.5 0 0 1-.69-.06C2.93 44.04.49 37.52.49 30.77s2.35-13.03 6.63-18.06c.17-.2.48-.23.69-.07 5.57 4.39 12.73 6.8 20.14 6.8.28 0 .5.22.5.5s-.22.5-.5.5c-7.46 0-14.68-2.38-20.37-6.72-3.94 4.8-6.09 10.83-6.09 17.05s2.24 12.49 6.33 17.34c5.73-4.47 13.04-6.92 20.63-6.92s14.9 2.46 20.63 6.92c3.68-4.3 6.11-8.65 6.11-15.56 0-.28.22-.5.5-.5s.5.22.5.5c0 7.42-2.67 12-6.67 16.58-.1.11-.24.17-.38.17M54.73 14.53a.5.5 0 0 1-.32-.12.494.494 0 0 1-.06-.7c4.29-5.06 3.5-5.81 3.03-6.26-.44-.42-1.48-1.39-6.67 3.63-.2.19-.51.19-.71-.01-.19-.2-.19-.51.01-.71 4.87-4.72 6.74-4.87 8.05-3.64 1.27 1.19 1.18 2.76-2.95 7.63-.1.12-.24.18-.38.18"/><path d="M39.52 29.4c-.15 0-.3-.07-.4-.2a.496.496 0 0 1 .09-.7c2.35-1.8 5.39-4.55 8.56-7.74.2-.2.51-.2.71 0 .2.19.2.51 0 .71-3.21 3.22-6.28 5.99-8.66 7.82-.09.07-.2.1-.3.1ZM37.05 27.02a.5.5 0 0 1-.28-.09.49.49 0 0 1-.13-.69c2.09-3.09 4.29-5.95 6.54-8.52.18-.21.5-.23.71-.05s.23.5.05.71a88 88 0 0 0-6.47 8.42c-.1.14-.25.22-.41.22Z"/><path d="M35.66 30.84a.52.52 0 0 1-.31-.1l-5.11-3.97c-.11-.08-.18-.21-.19-.35s.03-.27.12-.38l1.14-1.32c.13-.15.32-.21.51-.16l5.36 1.47a.496.496 0 1 1-.26.96l-5.06-1.39-.59.68 4.69 3.65a.496.496 0 0 1-.31.89Z"/><path d="M39.63 36.06h-.05a.5.5 0 0 1-.35-.19l-3.97-5.22a.5.5 0 0 1 .1-.7c.22-.17.53-.12.7.1l3.65 4.8.68-.59-1.35-5.22c-.07-.27.09-.54.36-.61s.54.09.61.36l1.42 5.52a.48.48 0 0 1-.16.5l-1.32 1.14c-.09.08-.21.12-.33.12ZM43.55 18.55c-.1 0-.2-.03-.28-.09l-11.39-7.82a.5.5 0 0 1-.21-.35c-.02-.14.02-.28.12-.39l3.11-3.62c.13-.15.32-.21.51-.16l15.09 4.12a.496.496 0 1 1-.26.96L35.45 7.16l-2.54 2.96 10.94 7.51a.504.504 0 0 1-.28.92ZM55.57 33.34h-.07a.5.5 0 0 1-.35-.23l-7.44-11.72a.5.5 0 0 1 .15-.69.5.5 0 0 1 .69.15l7.14 11.25c.2-.09.44-.04.58.13.18.21.16.52-.05.71l-.33.28c-.09.08-.21.12-.33.12Z"/><path d="M55.9 33.05c-.14 0-.28-.06-.38-.17a.505.505 0 0 1 .05-.71l3.05-2.62-4.37-15.39c-.08-.27.08-.54.34-.62s.54.08.62.34l4.46 15.7c.05.19 0 .39-.16.52l-3.29 2.83c-.09.08-.21.12-.33.12Z"/></svg>