<svg width="18" height="19" viewBox="0 0 18 19" fill="none" xmlns="http://www.w3.org/2000/svg">
<path d="M17.8207 5.70004C17.8207 5.70004 17.6449 4.39008 17.1035 3.81488C16.418 3.05785 15.6516 3.05414 15.3 3.00961C12.7828 2.81664 9.00352 2.81664 9.00352 2.81664H8.99648C8.99648 2.81664 5.21719 2.81664 2.7 3.00961C2.34844 3.05414 1.58203 3.05785 0.896484 3.81488C0.355078 4.39008 0.182812 5.70004 0.182812 5.70004C0.182812 5.70004 0 7.24008 0 8.7764V10.2162C0 11.7526 0.179297 13.2926 0.179297 13.2926C0.179297 13.2926 0.355078 14.6026 0.892969 15.1778C1.57852 15.9348 2.47852 15.9088 2.8793 15.9905C4.3207 16.1352 9 16.1797 9 16.1797C9 16.1797 12.7828 16.1723 15.3 15.983C15.6516 15.9385 16.418 15.9348 17.1035 15.1778C17.6449 14.6026 17.8207 13.2926 17.8207 13.2926C17.8207 13.2926 18 11.7563 18 10.2162V8.7764C18 7.24008 17.8207 5.70004 17.8207 5.70004ZM7.14023 11.9641V6.62406L12.0023 9.30336L7.14023 11.9641Z" fill="black"/>
</svg>
