<svg width="21" height="16" viewBox="0 0 21 16" fill="none" xmlns="http://www.w3.org/2000/svg">
<path d="M10.706 15.12C8.89512 15.0752 7.29704 15.063 5.69895 14.9856C4.61081 14.9327 3.51865 14.8472 2.45058 14.6639C1.37046 14.4807 0.695896 13.7478 0.426871 12.6769C0.165877 11.6467 0.117694 10.588 0.0574642 9.52932C-0.0348875 7.93315 -0.014811 6.34105 0.109663 4.74895C0.169892 3.99972 0.254214 3.24642 0.41081 2.51349C0.667789 1.31229 1.43872 0.57935 2.63528 0.387972C3.44637 0.257672 4.26951 0.192522 5.08863 0.143659C8.03585 -0.0192154 10.9871 -0.0395748 13.9383 0.062222C15.2473 0.107013 16.5563 0.204737 17.8613 0.302462C18.4435 0.347253 19.0096 0.477553 19.5035 0.827734C20.1741 1.30414 20.5194 1.97193 20.6599 2.77409C20.8727 4.00786 20.941 5.24979 20.9812 6.49985C21.0333 8.07566 20.9771 9.6474 20.8125 11.2151C20.7603 11.7322 20.6921 12.2575 20.5475 12.7542C20.2303 13.8577 19.4834 14.5296 18.3632 14.7047C17.5722 14.8268 16.7691 14.9083 15.9701 14.9408C14.1471 15.0263 12.3202 15.0671 10.706 15.12ZM8.4173 10.7753C10.2362 9.70034 12.0311 8.63351 13.858 7.55039C12.0271 6.46728 10.2282 5.40044 8.4173 4.32954C8.4173 6.49171 8.4173 8.61722 8.4173 10.7753Z" />
</svg>
