<svg xmlns="http://www.w3.org/2000/svg" width="60" height="60" class="icon" fill="none" stroke="currentColor" viewBox="0 0 60 60"><path d="m10.32 58.14-4.91 1.29L.62 40.64l4.91-1.3zM24.06 7.49 43.48.46v28.56c-6.47-2.49-12.95-4.98-19.42-7.47zm19.42 1.23c3 0 5.44 2.43 5.44 5.44s-2.43 5.44-5.44 5.44m7.43-9.59c1.18 1 1.92 2.49 1.92 4.15 0 1.79-.87 3.39-2.21 4.38"/><path d="M50.91 10.01c1.18 1 1.92 2.49 1.92 4.15 0 1.79-.87 3.39-2.21 4.38m2.82-10.4a8.32 8.32 0 0 1 2.94 6.35c0 2.75-1.33 5.18-3.38 6.7"/><path d="M55.63 6.35c2.29 1.95 3.75 4.85 3.75 8.1 0 3.5-1.7 6.61-4.31 8.54M15.58 7.27h8.48v14.28h-8.48zm-.33 12.83c-3 0-5.44-2.43-5.44-5.44s2.43-5.44 5.44-5.44M6 41.19l7.64-7.87 4.69-1.86m-3.08 4.56 9.12-2.7c1.07-.3 2.19.11 2.75.98.67 1.04.44 2.54-.63 3.39-2.43.74-4.86 1.47-7.3 2.21m7.31-2.21c.11.05 1.43.68 1.69 2.21.26 1.52-.76 2.56-.85 2.65-2.51.79-5.02 1.57-7.52 2.36m7.52-2.36c.16.19 1.01 1.23.89 2.75-.12 1.6-1.21 2.5-1.4 2.65-2.22.69-4.44 1.39-6.67 2.08m6.72-1.88c.15.09 1.15.69 1.35 1.88.19 1.14-.45 2.34-1.59 2.93-4.35 1.23-8.7 2.46-13.04 3.68-1.19-.19-2.38-.39-3.56-.58m8.56-34.63v13.38m4.35-13.38v12.31"/></svg>
