<svg xmlns="http://www.w3.org/2000/svg" viewBox="0 0 60 60" class="icon" fill="none" stroke="currentColor" role="presentation" alt=""><path d="M45.41 23.31c-.28 0-.5-.22-.5-.5s.22-.5.5-.5c3.2 0 5.8-2.65 5.8-5.9s-2.6-5.9-5.8-5.9c-.28 0-.5-.22-.5-.5s.22-.5.5-.5c3.75 0 6.8 3.09 6.8 6.9s-3.05 6.9-6.8 6.9M56.17 23.02c-.15 0-.3-.07-.4-.2a.5.5 0 0 1 .1-.7c1.82-1.36 2.91-3.55 2.91-5.86 0-2.14-.92-4.17-2.54-5.57a.505.505 0 0 1-.05-.71c.18-.21.5-.23.71-.05a8.36 8.36 0 0 1 2.88 6.32c0 2.62-1.24 5.11-3.31 6.66-.09.07-.19.1-.3.1ZM4.79 58.69a.495.495 0 0 1-.48-.37L.24 42.8a.51.51 0 0 1 .31-.6l5.7-2.13 8.39-8.64c.05-.05.11-.09.17-.12l5.18-2.06c.26-.1.55.02.65.28s-.02.55-.28.65l-5.08 2.02-8.39 8.64q-.075.075-.18.12l-5.38 2.01 3.82 14.57 5.71-1.82c.07-.02.15-.03.23-.02.73.12 1.42.43 2.1.74.6.27 1.18.54 1.74.64l14.29-4.03c1.03-.55 1.62-1.66 1.46-2.7-.17-1.04-1.07-1.62-1.25-1.73a.496.496 0 0 1-.18-.68c.14-.24.45-.32.68-.18.35.2 1.5.98 1.73 2.43.24 1.48-.6 3.03-2.03 3.77-.03.02-.06.03-.09.04l-14.45 4.07c-.07.02-.14.02-.21.01-.73-.12-1.42-.43-2.1-.74-.6-.27-1.17-.53-1.73-.64l-6.09 1.94s-.1.02-.15.02Zm24.59-5.15"/><path d="M21.14 39.59c-.21 0-.41-.14-.48-.35a.5.5 0 0 1 .33-.62l7.98-2.42c.88-.77 1.12-2.11.52-3.04-.51-.78-1.54-1.14-2.5-.88L16.9 35.27a.493.493 0 0 1-.62-.34c-.08-.26.07-.54.34-.62l10.1-3c1.39-.38 2.87.15 3.62 1.3.9 1.39.55 3.33-.8 4.42-.05.04-.11.07-.17.09l-8.08 2.45s-.1.02-.15.02"/><path d="M21.82 45.13c-.21 0-.41-.14-.48-.35-.08-.26.06-.54.33-.63l8.21-2.57c.25-.28.93-1.18.72-2.42-.24-1.42-1.45-2.01-1.59-2.08a.493.493 0 0 1-.24-.66c.12-.25.41-.36.66-.24.3.14 1.83.94 2.15 2.82.33 1.92-.93 3.23-1.07 3.38-.06.06-.13.1-.2.12l-8.33 2.61s-.1.02-.15.02Zm8.33-3.11"/><path d="M22.21 50.81c-.21 0-.41-.14-.48-.35-.08-.26.06-.54.33-.63l7.29-2.27c.35-.3 1.18-1.16 1.29-2.53.11-1.43-.63-2.41-.86-2.68a.506.506 0 0 1 .05-.71c.21-.18.52-.16.71.05.3.34 1.25 1.6 1.1 3.41-.14 1.87-1.36 2.99-1.72 3.29-.05.04-.11.07-.17.09l-7.39 2.3s-.1.02-.15.02ZM45.09 33.63c-.07 0-.13-.01-.2-.04l-19.1-8.25v6.78c0 .28-.22.5-.5.5s-.5-.22-.5-.5v-7.39a.5.5 0 0 1 .49-.5h.33c.07 0 .15 0 .21.03l18.77 8.11V1.72l-18.78 7.4q-.09.03-.18.03h-8v1.52c0 .19-.1.36-.27.44l-.37.19c-.07.04-.15.06-.23.06-3.04 0-5.52 2.52-5.52 5.62s2.48 5.62 5.52 5.62h.37c.28 0 .5.22.5.5v1.13h2.85c.28 0 .5.22.5.5v8.41c0 .28-.22.5-.5.5s-.5-.22-.5-.5v-7.91h-2.85c-.28 0-.5-.22-.5-.5V23.6c-3.53-.07-6.39-3.01-6.39-6.61s2.85-6.54 6.39-6.61V8.67c0-.28.22-.5.5-.5h8.41L44.91.53a.5.5 0 0 1 .68.46v32.14c0 .17-.08.33-.23.42a.53.53 0 0 1-.27.08"/></svg>