<svg xmlns="http://www.w3.org/2000/svg" viewBox="0 0 60 60" class="icon" fill="none" stroke="currentColor" role="presentation" alt=""><path d="M4.88 59.55c.03.13.12.24.23.31.08.05.17.07.25.07.04 0 .09 0 .13-.02l4.86-1.28c.27-.07.42-.34.36-.61l-.34-1.35 3.02.49h.08c.05 0 .09 0 .14-.02l12.92-3.65s.06-.02.09-.04c1.3-.67 2.06-2.08 1.84-3.43-.16-.97-.75-1.6-1.18-1.94a4.28 4.28 0 0 0 1.19-2.62c.1-1.26-.39-2.22-.74-2.74.37-.49.91-1.46.69-2.73-.19-1.12-.87-1.82-1.38-2.2.82-1.01.95-2.45.25-3.53-.68-1.05-2.03-1.53-3.29-1.18l-.76.23v-10.9h.5l19.15 7.36q.09.03.18.03c.1 0 .2-.03.28-.09a.49.49 0 0 0 .22-.41v-8.86c3.01-.26 5.38-2.78 5.38-5.86s-2.37-5.6-5.38-5.86v-7.7a.499.499 0 0 0-.67-.47L24.1 7.36a.5.5 0 0 0-.27-.09h-8.4c-.28 0-.5.22-.5.5v1.45c-3.16.09-5.71 2.69-5.71 5.88s2.54 5.78 5.71 5.88v.95c0 .28.22.5.5.5h2.5v8.86l-4.6 1.83c-.07.03-.12.07-.17.12l-6.94 7.15-.25-.97a.52.52 0 0 0-.23-.31.46.46 0 0 0-.38-.05L.5 40.34c-.27.07-.42.34-.36.61l4.74 18.61Zm43.07-44.96c0 2.52-1.93 4.58-4.38 4.83V9.75c2.45.25 4.38 2.31 4.38 4.83Zm-5.38 13.99-18.24-7.01V8.34l18.24-6.6v26.85ZM10.23 15.1c0-2.63 2.1-4.77 4.71-4.87v9.73c-2.61-.1-4.71-2.23-4.71-4.87Zm5.7-6.83h7.4v13.14h-.28c-.09-.07-.19-.12-.31-.12s-.23.05-.31.12h-3.68c-.09-.07-.19-.12-.31-.12s-.23.05-.31.12h-2.18V8.27Zm6.31 14.15v11.2l-3.31.98V22.42zM13.8 34l4.13-1.64v2.54l-2.96.88c-.26.08-.42.36-.34.62s.36.42.62.34l9.02-2.67c.83-.23 1.73.08 2.17.76.52.8.32 1.97-.44 2.63l-7.13 2.16a.5.5 0 0 0-.33.62c.07.22.26.35.48.35.05 0 .1 0 .15-.02l7.03-2.13c.32.19 1.06.72 1.24 1.73.18 1.06-.4 1.85-.62 2.1l-7.33 2.29c-.26.08-.41.36-.33.63.07.21.26.35.48.35.05 0 .1 0 .15-.02l7.12-2.23c.27.4.64 1.14.57 2.1-.09 1.2-.82 1.95-1.13 2.22l-6.51 2.03c-.26.08-.41.36-.33.63.07.21.26.35.48.35.05 0 .1 0 .15-.02l6.22-1.94.03.03c.16.09.94.59 1.09 1.51.15.91-.37 1.87-1.27 2.35l-12.76 3.6-3.35-.55-3.59-14.1 7.3-7.52Zm-8.67 6.15 4.49 17.64-3.9 1.03-4.49-17.65 3.9-1.03ZM50.14 19.43c.1 0 .21-.03.3-.1a5.92 5.92 0 0 0 2.39-4.74c0-1.73-.76-3.37-2.08-4.49a.506.506 0 0 0-.71.06c-.18.21-.15.53.06.71 1.1.93 1.73 2.29 1.73 3.73 0 1.54-.74 3.01-1.98 3.93-.22.16-.27.48-.11.7.1.13.25.2.4.2"/><path d="M55.35 14.92c0 2.45-1.18 4.78-3.15 6.23-.22.16-.27.48-.1.7.1.13.25.2.4.2.1 0 .21-.03.3-.1a8.79 8.79 0 0 0 3.55-7.04c0-2.57-1.13-5-3.09-6.67a.506.506 0 0 0-.71.06c-.18.21-.15.53.06.7a7.75 7.75 0 0 1 2.74 5.91Z"/><path d="M58.31 14.88c0 3.16-1.52 6.17-4.07 8.06-.22.16-.27.48-.1.7.1.13.25.2.4.2.1 0 .21-.03.3-.1 2.8-2.07 4.47-5.38 4.47-8.86 0-3.24-1.42-6.3-3.89-8.4a.493.493 0 0 0-.7.06c-.18.21-.15.53.06.7a10 10 0 0 1 3.54 7.64Z"/></svg>