<svg xmlns="http://www.w3.org/2000/svg" width="60" height="61" class="icon" fill="none" stroke="currentColor" viewBox="0 0 60 61" role="presentation" alt="">
<path d="M54.77 34.41v-20.7L41.76.5H8.44v18.81"/>
<path d="M41.76.5v13.38h13.01M.34 19.48h35.22v37.85H.34z"/>
<path d="M4.13 23.18h27.48v6.05H4.13zm26.76 17.64v13.35h-4.24V40.82zm-26.76-8.7h7.34v5.61H4.13zm9.71.12h7.34v5.61h-7.34zm-9.71 8.12h7.34v5.61H4.13zm9.71.12h7.34v5.61h-7.34zM4.13 48.6h7.34v5.61H4.13zm9.71.12h7.34v5.61h-7.34zm9.71-16.36h7.34v5.61h-7.34zm12.01 1.62c2.53-2.06 5.75-3.29 9.26-3.29 8.16 0 14.77 6.67 14.77 14.9s-6.61 14.9-14.77 14.9c-3.57 0-6.84-1.28-9.4-3.4"/>
<path stroke-miterlimit="10" d="M48.83 41.71c-.15-.39-.64-1.56-1.92-2.35-.21-.13-1.64-.99-3.46-.59-.57.12-2.32.51-2.88 2.05-.3.83-.18 1.78.25 2.47.84 1.39 2.72 1.53 3.29 1.58.89.07 1.03-.15 1.83.02.45.09 1.47.31 2.17 1.21.57.73.9 1.88.5 2.94-.53 1.4-2 1.79-2.54 1.93-1.54.41-2.82-.17-3.38-.42a6.17 6.17 0 0 1-2.5-2.1m4.32-12.5v17.57M20.17 8.43c-.12-.31-.51-1.24-1.53-1.88-.17-.11-1.31-.79-2.76-.47-.45.1-1.85.41-2.29 1.63-.24.66-.14 1.42.2 1.97.67 1.11 2.17 1.22 2.63 1.26.71.06.82-.12 1.46.01.36.07 1.17.24 1.73.96.45.58.72 1.5.4 2.34-.42 1.11-1.6 1.43-2.03 1.54-1.23.33-2.25-.14-2.69-.34a4.8 4.8 0 0 1-1.99-1.68m3.43-9.93v14.02m6.36-12.19h7.97m-7.97 4.67H37.2m-14.11 4.57H37.2"/></svg>
