<svg xmlns="http://www.w3.org/2000/svg" width="60" height="61" viewBox="0 0 60 61" class="icon" fill="none" stroke="currentColor"><circle cx="30.81" cy="28.75" r="6.21" fill="none" stroke="currentColor"/><circle cx="53.3" cy="29.36" r="6.21" fill="none" stroke="currentColor"/><path d="M31.78 14.41V.55h24.71v14.41H44.13l-7.65 4.52v-4.71h-4.7zM37.4 4.19h14.33M37.4 7.86h14.33M37.4 11.52h14.33M47.51 50.07v10.45h12v-18.8c0-2.31-1.88-4.19-4.19-4.19h-3.28c-1.65 0-3.21.72-4.29 1.97l-5.3 6.17h-5.21a3.05 3.05 0 1 0 0 6.1h7.32l8.13-6.11"/><circle cx="6.76" cy="29.36" r="6.21" fill="none" stroke="currentColor"/><path d="M12.54 50.07v10.45H.55v-18.8c0-2.31 1.88-4.19 4.19-4.19h3.28c1.65 0 3.21.72 4.29 1.97l5.3 6.17h5.21a3.05 3.05 0 1 1 0 6.1H15.5l-8.13-6.11"/><path d="M16.34 52.12v5.06h27.07v-5.06M38.41 57.49v3.03H21.23v-3.03M42.27 44.79a9.704 9.704 0 0 0-9.4-7.26h-4.38 2.02-4.38c-4.52 0-8.31 3.08-9.4 7.26"/></svg>
