<svg xmlns="http://www.w3.org/2000/svg" viewBox="0 0 60 61" class="icon" fill="none" stroke="currentColor" role="presentation" alt=""><path d="M30.77 35.63c3.66 0 6.64-2.98 6.64-6.64s-2.98-6.64-6.64-6.64-6.64 2.98-6.64 6.64 2.98 6.64 6.64 6.64m0-12.27c3.11 0 5.64 2.53 5.64 5.64s-2.53 5.64-5.64 5.64-5.64-2.53-5.64-5.64 2.53-5.64 5.64-5.64M46.37 29.6c0 3.66 2.98 6.64 6.64 6.64s6.64-2.98 6.64-6.64-2.98-6.64-6.64-6.64-6.64 2.98-6.64 6.64m12.27 0c0 3.11-2.53 5.64-5.64 5.64s-5.64-2.53-5.64-5.64 2.53-5.64 5.64-5.64 5.64 2.53 5.64 5.64M31.73 15.68h4.15v4.15c0 .18.1.35.25.43.08.04.16.07.25.07s.18-.02.25-.07l7.45-4.4h12.08c.28 0 .5-.22.5-.5V1.11c0-.28-.22-.5-.5-.5H31.73c-.28 0-.5.22-.5.5v14.06c0 .28.22.5.5.5Zm.5-14.07h23.43v13.24H43.94a.43.43 0 0 0-.25.07l-6.81 4.02v-3.77c0-.28-.22-.5-.5-.5h-4.15z"/><path d="M37.28 5.22h14.17c.28 0 .5-.22.5-.5s-.22-.5-.5-.5H37.28c-.28 0-.5.22-.5.5s.22.5.5.5M37.28 8.84h14.17c.28 0 .5-.22.5-.5s-.22-.5-.5-.5H37.28c-.28 0-.5.22-.5.5s.22.5.5.5M37.28 12.46h14.17c.28 0 .5-.22.5-.5s-.22-.5-.5-.5H37.28c-.28 0-.5.22-.5.5s.22.5.5.5M7 36.23c3.66 0 6.64-2.98 6.64-6.64S10.66 22.95 7 22.95.36 25.94.36 29.6 3.34 36.24 7 36.24Zm0-12.27c3.11 0 5.64 2.53 5.64 5.64S10.11 35.24 7 35.24s-5.64-2.53-5.64-5.64S3.89 23.96 7 23.96M38.78 60.39v-2.8h4.45c.28 0 .5-.22.5-.5v-4.84h.64c.11 0 .21-.04.3-.1l2.11-1.59v9.83c0 .28.22.5.5.5h11.86c.28 0 .5-.22.5-.5V41.81c0-2.56-2.08-4.64-4.64-4.64h-3.24c-1.78 0-3.46.77-4.62 2.12l-4.58 5.34c-1.19-4.4-5.18-7.46-9.74-7.46h-6.66c-4.26 0-8.01 2.66-9.46 6.58l-3.83-4.46a6.08 6.08 0 0 0-4.62-2.12H5.01c-2.56 0-4.64 2.08-4.64 4.64v18.58c0 .28.22.5.5.5h11.86c.28 0 .5-.22.5-.5v-9.83l2.11 1.59c.09.06.19.1.3.1h.34v4.84c0 .28.22.5.5.5h4.33v2.8c0 .28.22.5.5.5h16.98c.28 0 .5-.22.5-.5Zm9.11-20.45a5.07 5.07 0 0 1 3.86-1.77h3.24a3.64 3.64 0 0 1 3.64 3.64v18.08H47.77v-9.83c0-.08-.02-.15-.05-.21l4.97-3.74c.22-.17.27-.48.1-.7a.507.507 0 0 0-.7-.1l-7.9 5.94h-7.07c-1.39 0-2.52-1.13-2.52-2.52s1.13-2.52 2.52-2.52h5.15a.5.5 0 0 0 .38-.17zM7.9 45.32a.496.496 0 0 0-.7.1c-.17.22-.12.53.1.7l4.97 3.74c-.03.06-.05.14-.05.21v9.83H1.36V41.82A3.64 3.64 0 0 1 5 38.18h3.24a5.1 5.1 0 0 1 3.86 1.77l4.26 4.97c.02.2.16.36.36.42l.61.72c.1.11.23.17.38.17h5.15c1.39 0 2.52 1.13 2.52 2.52s-1.13 2.52-2.52 2.52h-7.07l-7.9-5.94Zm9.07 6.93h5.9c1.94 0 3.52-1.58 3.52-3.52s-1.58-3.52-3.52-3.52h-4.92l-.5-.58a9.09 9.09 0 0 1 8.7-6.46h6.66c4.14 0 7.76 2.8 8.8 6.8.03.1.09.18.16.24h-4.64c-1.94 0-3.52 1.58-3.52 3.52s1.58 3.52 3.52 3.52h5.6v4.34H16.98v-4.34Zm4.83 7.64v-2.3h15.98v2.3z"/></svg>