<svg xmlns="http://www.w3.org/2000/svg" viewBox="0 0 60 60" class="icon" fill="none" stroke="currentColor" role="presentation" alt=""><path d="M34.05 43.09h3.72c.28 0 .5-.22.5-.5v-.26l1.66.63c.86.33 1.75.49 2.67.49h5.57c.05 0 .1 0 .15-.02.91-.29 1.54-1.07 1.53-1.92 0-.31-.09-.57-.2-.78.2-.11.37-.23.5-.38.41-.45.41-1.03.41-1.25 0-.43-.14-.8-.29-1.08.54-.43.83-1.09.74-1.77-.06-.42-.28-.79-.58-1.08.36-.34.58-.82.58-1.35 0-1.04-.84-1.88-1.88-1.88h-4.56c.28-.63.47-1.28.58-1.94.09-.57.2-1.21 0-2.02-.09-.34-.3-1.15-1.02-1.75-.56-.48-1.75-1.11-2.64-.47-.56.4-.66 1.08-.68 1.44-.11 1.57-.51 2.71-.68 3.19l-.07.2c-.09.29-.23.66-.43.98-.34.53-.79.96-1.34 1.3v-.1c0-.28-.22-.5-.5-.5h-3.72c-.28 0-.5.22-.5.5v9.84c0 .28.22.5.5.5Zm6.4-10.99c.27-.42.43-.87.54-1.22l.06-.17c.18-.52.62-1.75.74-3.47 0-.12.04-.52.26-.68.32-.23 1.03.1 1.42.43.47.4.62.94.69 1.24.16.6.08 1.09 0 1.61a7.4 7.4 0 0 1-.84 2.36c-.09.15-.09.34 0 .5s.25.25.43.25h5.37c.48 0 .88.39.88.88s-.39.88-.88.88h-1.9c-.28 0-.5.22-.5.5s.22.5.5.5h1.9q.135 0 .27-.03c.33.12.56.4.61.73.05.36-.13.72-.45.92h-2.22c-.28 0-.5.22-.5.5s.22.5.5.5h1.93c.13.17.28.44.29.78 0 .13 0 .41-.15.58-.06.06-.19.18-.56.33h-1.39c-.28 0-.5.22-.5.5s.22.5.5.5h1.2c.09.11.2.29.2.51 0 .39-.3.76-.76.92H42.6c-.79 0-1.57-.14-2.31-.42l-2.01-.77v-7.27c.91-.44 1.65-1.06 2.18-1.88Zm-5.9 1.16h2.72v8.84h-2.72zM5.64 7.1h21.55c.28 0 .5-.22.5-.5s-.22-.5-.5-.5H5.64c-.28 0-.5.22-.5.5s.22.5.5.5M27.69 12.37c0-.28-.22-.5-.5-.5H5.64c-.28 0-.5.22-.5.5s.22.5.5.5h21.55c.28 0 .5-.22.5-.5M16.5 17.64H5.64c-.28 0-.5.22-.5.5s.22.5.5.5H16.5c.28 0 .5-.22.5-.5s-.22-.5-.5-.5"/><path d="M58.79 21.8h-23.9V1.33c0-.28-.22-.5-.5-.5H1.23c-.28 0-.5.22-.5.5v26.1c0 .28.22.5.5.5h7.03v10.4c0 .2.12.38.3.46.06.03.13.04.2.04.12 0 .24-.04.34-.13l11.87-10.77h4.31V48.4c0 .28.22.5.5.5h13.37l11.82 10.25c.09.08.21.12.33.12.07 0 .14-.01.21-.04.18-.08.29-.26.29-.46V48.9h7c.28 0 .5-.22.5-.5V22.3c0-.28-.22-.5-.5-.5Zm-38.02 5.13c-.12 0-.24.05-.34.13L9.25 37.2v-9.77c0-.28-.22-.5-.5-.5H1.73V1.83h32.16V21.8h-8.12c-.28 0-.5.22-.5.5v4.63zm37.52 20.96h-7c-.28 0-.5.22-.5.5v9.28l-11.13-9.66a.5.5 0 0 0-.33-.12H26.27v-25.1h32.02z"/></svg>