<svg xmlns="http://www.w3.org/2000/svg" width="60" height="60" viewBox="0 0 60 60" class="icon" fill="none" stroke="currentColor" role="presentation" alt=""><path d="M34.14 32.81h3.81V42.9h-3.81zM37.96 33.76c.66-.27 1.62-.81 2.31-1.89.22-.35.37-.73.5-1.13s.66-1.67.79-3.6c0-.19.05-.79.48-1.1.63-.46 1.62.07 2.08.46.61.52.79 1.2.88 1.53.18.71.1 1.28 0 1.86-.1.61-.33 1.54-.92 2.59h5.51c.78 0 1.41.63 1.41 1.41s-.63 1.41-1.41 1.41h-1.94M50.05 35.31c.51.19.89.64.96 1.16.09.62-.24 1.24-.83 1.53h-2.41M49.98 38.01c.13.13.57.61.57 1.31 0 .19 0 .62-.28.94-.29.32-.84.49-.87.5h-1.52M49.39 40.83c.1.11.42.46.43.96 0 .63-.47 1.24-1.21 1.47H42.9c-.87 0-1.74-.16-2.55-.47l-2.4-.91M5 5.99h22.11M5 11.91h22.11M5 17.82h11.14"/><path d="M51.83 48.85h7.68V22.09H25.65v26.76h13.91l12.27 10.64z"/><path d="M25.62 27.35h-5.09L8.21 38.52V27.35H.49V.58h34V21.7"/></svg>
