<svg xmlns="http://www.w3.org/2000/svg" viewBox="0 0 60 60" class="icon" fill="none" stroke="currentColor" role="presentation" alt=""><path d="M10.39 40.88c.07.03.15.05.22.05.19 0 .36-.1.45-.28l2.5-5.13h6.93l2.53 5.13a.5.5 0 1 0 .9-.44L17.45 27.1a.5.5 0 0 0-.45-.28c-.19 0-.36.11-.45.28l-3.68 7.54c-.1.09-.17.21-.17.35l-2.54 5.21a.5.5 0 0 0 .23.67Zm6.6-12.42 2.99 6.06h-5.95l2.95-6.06Z"/><path d="M50.8 38.6c.09.09.21.13.34.13.07 0 .14-.01.2-.04.18-.08.3-.26.3-.46V27.86h7.01c.28 0 .5-.22.5-.5V1.32c0-.28-.22-.5-.5-.5H25.56c-.28 0-.5.22-.5.5v20.42H1.23c-.28 0-.5.22-.5.5v26.03c0 .28.22.5.5.5h6.98v9.85c0 .2.11.37.29.46.07.03.14.04.21.04q.18 0 .33-.12l11.79-10.23h13.34c.28 0 .5-.22.5-.5V27.85h4.3l11.84 10.74Zm-17.14 9.17H20.63c-.12 0-.24.04-.33.12L9.2 57.52v-9.25c0-.28-.22-.5-.5-.5H1.73V22.74h31.94v25.03Zm.5-26.03h-8.1V1.82h32.08v25.03h-7.01c-.28 0-.5.22-.5.5v9.74L39.48 26.98a.5.5 0 0 0-.34-.13h-4.49v-4.62c0-.28-.22-.5-.5-.5Z"/><path d="M36.44 11.36h9c-.51 1.37-1.17 2.68-1.98 3.9-.1.15-.22.29-.33.44l-3.69-2.6a.5.5 0 0 0-.7.12c-.16.23-.1.54.12.7l3.67 2.59c-1.05 1.32-2.28 2.5-3.67 3.5a.506.506 0 0 0 .59.82c1.48-1.07 2.79-2.32 3.9-3.73l4.72 3.33c.09.06.19.09.29.09.16 0 .31-.07.41-.21.16-.23.1-.54-.12-.7l-4.71-3.32c.11-.16.23-.3.34-.46.92-1.38 1.66-2.88 2.21-4.45h1.87c.28 0 .5-.22.5-.5s-.22-.5-.5-.5h-5.13V7.26c0-.28-.22-.5-.5-.5s-.5.22-.5.5v3.12h-5.8c-.28 0-.5.22-.5.5s.22.5.5.5Z"/></svg>