<svg xmlns="http://www.w3.org/2000/svg" width="60" height="60" viewBox="0 0 60 60" class="icon" fill="none" stroke="currentColor" role="presentation" alt=""><g fill="none" stroke="currentColor"><circle cx="16.84" cy="16.81" r="6.54"/><path d="M10.76 6.29 7.51 3.03 2.99 7.55l3.22 3.22-1.1 2.85H.48v6.39h4.63l1.15 2.8-3.27 3.27 4.52 4.52 3.25-3.26 2.82 1.23v4.54h6.38v-4.54l2.88-1.18 3.2 3.21 4.51-4.52-3.18-3.18 1.21-2.89h4.49v-6.39h-4.49l-1.21-2.89 3.18-3.18-4.51-4.52-3.2 3.2-2.88-1.17V.52h-6.38V5.1z"/></g><path d="M4.48 35.46h6.86l4.06 6.45-3.71 6.23H4.48L.56 41.8z"/><circle cx="7.98" cy="41.8" r="3.13" fill="none" stroke="currentColor"/><path d="M53.01 44.98v6.86l-6.45 4.07-6.23-3.72v-7.21l6.34-3.92z"/><circle cx="46.67" cy="48.48" r="3.13" fill="none" stroke="currentColor"/><path d="M58.52 20.16c1.89 4.5 1.07 9.89-2.52 13.64s-9.4 4.9-14.11 2.88l-.1.11-20.51 21.42a4.45 4.45 0 0 1-6.28.14 4.45 4.45 0 0 1-.14-6.28l20.51-21.42.1-.11c-2.22-4.61-1.48-10.31 2.26-14.22s9.03-4.83 13.63-3.07l.05.02-7.85 8.2 7.03 6.73 7.85-8.2"/></svg>
