<svg xmlns="http://www.w3.org/2000/svg" viewBox="0 0 60 60" class="icon" fill="none" stroke="currentColor" role="presentation" alt=""><path d="M17.14 23.99c3.81 0 6.91-3.1 6.91-6.91s-3.1-6.91-6.91-6.91-6.91 3.1-6.91 6.91 3.1 6.91 6.91 6.91m0-12.81c3.26 0 5.91 2.65 5.91 5.91S20.4 23 17.14 23s-5.91-2.65-5.91-5.91 2.65-5.91 5.91-5.91"/><path d="M1.11 20.71h4.2l.88 2.13-2.97 2.97c-.2.2-.2.51 0 .71l4.42 4.42c.2.2.51.2.71 0l2.95-2.95 2.15.93v4.12c0 .28.22.5.5.5h6.26c.28 0 .5-.22.5-.5v-4.11l2.19-.9 2.9 2.9c.2.2.51.2.71 0l4.42-4.42c.09-.09.15-.22.15-.35s-.05-.26-.15-.35l-2.88-2.88.92-2.22h4.07c.28 0 .5-.22.5-.5v-6.26c0-.28-.22-.5-.5-.5h-4.07l-.92-2.22 2.88-2.88c.2-.2.2-.51 0-.71l-4.42-4.42c-.2-.2-.51-.2-.71 0l-2.9 2.9-2.19-.9v-4.1c0-.28-.22-.5-.5-.5h-6.26c-.28 0-.5.22-.5.5v4.16l-2.15.9-2.95-2.95c-.2-.2-.51-.2-.71 0L3.22 7.65c-.2.2-.2.51 0 .71l2.92 2.92-.84 2.17H1.11c-.28 0-.5.22-.5.5v6.26c0 .28.22.5.5.5m.5-6.26h4.04c.21 0 .39-.13.47-.32l1.08-2.8c.07-.18.03-.39-.11-.53L4.29 8l3.72-3.72 2.83 2.83c.14.14.36.19.55.11l2.76-1.16c.19-.08.31-.26.31-.46V1.62h5.26v3.95c0 .2.12.39.31.46l2.81 1.15c.19.08.4.03.54-.11l2.78-2.78 3.72 3.72-2.76 2.76c-.14.14-.19.36-.11.55l1.18 2.83c.08.19.26.31.46.31h3.9v5.26h-3.9c-.2 0-.38.12-.46.31l-1.18 2.83c-.08.19-.04.4.11.55l2.76 2.76-3.72 3.72-2.78-2.78a.495.495 0 0 0-.54-.11l-2.81 1.15c-.19.08-.31.26-.31.46v3.95h-5.26v-3.95c0-.2-.12-.38-.3-.46l-2.76-1.2a.5.5 0 0 0-.55.1l-2.83 2.83-3.72-3.72 2.85-2.85c.14-.14.19-.36.11-.54l-1.13-2.74a.5.5 0 0 0-.46-.31H1.61v-5.26ZM16.16 41.92a.51.51 0 0 0 0-.52l-3.98-6.31a.48.48 0 0 0-.42-.23H5.04a.52.52 0 0 0-.43.24L.77 41.31c-.1.16-.1.37 0 .53l3.84 6.21c.09.15.25.24.43.24h7.07c.18 0 .34-.09.43-.24l3.64-6.11Zm-4.35 5.35h-6.5l-3.53-5.71 3.53-5.71h6.17l3.67 5.82-3.33 5.6Z"/><path d="M8.46 37.99c-1.97 0-3.57 1.6-3.57 3.57s1.6 3.57 3.57 3.57 3.57-1.6 3.57-3.57-1.6-3.57-3.57-3.57m0 6.14a2.57 2.57 0 1 1 0-5.14 2.57 2.57 0 1 1 0 5.14M46.1 40.41l-6.21 3.84c-.15.09-.24.25-.24.43v7.07c0 .18.09.34.24.43L46 55.82c.08.05.17.07.26.07s.19-.03.27-.08l6.31-3.98c.15-.09.23-.25.23-.42v-6.72a.52.52 0 0 0-.24-.43l-6.21-3.84c-.16-.1-.37-.1-.53 0Zm5.97 10.72-5.82 3.67-5.6-3.33v-6.5l5.71-3.53 5.71 3.53v6.17Z"/><path d="M42.8 48.11c0 1.97 1.6 3.57 3.57 3.57s3.57-1.6 3.57-3.57-1.6-3.57-3.57-3.57-3.57 1.6-3.57 3.57m6.14 0a2.57 2.57 0 1 1-5.14 0 2.57 2.57 0 1 1 5.14 0M14.84 51.28c-1.85 1.93-1.78 5.01.15 6.86.94.9 2.15 1.34 3.35 1.34 1.28 0 2.55-.5 3.5-1.49L41.8 37.14c4.84 1.92 10.45.7 14.06-3.07a12.88 12.88 0 0 0 2.57-13.9c-.01-.03-.03-.06-.05-.09a.5.5 0 0 0-.14-.24.504.504 0 0 0-.71.02l-7.35 7.68-6.17-5.9 7.35-7.68c.12-.12.14-.3.1-.47a.58.58 0 0 0-.33-.37c-4.85-1.84-10.3-.61-13.89 3.13-3.61 3.77-4.58 9.43-2.45 14.18L14.83 51.28Zm23.13-34.34a11.85 11.85 0 0 1 12.14-3.12l-7.16 7.48c-.19.2-.18.52.02.71l6.89 6.59c.2.19.52.18.71-.02l7.16-7.48c1.54 4.23.55 8.99-2.59 12.27-3.41 3.56-8.74 4.65-13.26 2.71a.51.51 0 0 0-.56.11L21.13 57.28c-1.47 1.53-3.91 1.59-5.44.12s-1.59-3.91-.12-5.44l20.09-20.99.1-.1c.14-.15.18-.37.09-.56-2.13-4.44-1.28-9.81 2.13-13.37Z"/></svg>