<svg xmlns="http://www.w3.org/2000/svg" viewBox="0 0 68.33 60" class="icon" fill="none" stroke="currentColor" role="presentation" alt=""><path d="M34.34 12.29c3.26 0 5.91-2.65 5.91-5.9S37.6.48 34.34.48s-5.91 2.65-5.91 5.91 2.65 5.9 5.91 5.9m0-10.81c2.7 0 4.91 2.2 4.91 4.91s-2.2 4.9-4.91 4.9-4.91-2.2-4.91-4.9 2.2-4.91 4.91-4.91M9.37 47.88c2.51 0 4.55-2.04 4.55-4.55 0-2.34-1.78-4.25-4.05-4.5v-7.87h18.54c.02.09.06.18.13.25l1.78 1.78c.2.2.51.2.71 0l1.04-1.04.5.22v1.46c0 .28.22.5.5.5h2.51c.28 0 .5-.22.5-.5v-1.45l.51-.21L37.62 33c.2.2.51.2.71 0l1.78-1.78c.07-.07.11-.16.13-.25h18.2v7.87c-2.27.25-4.05 2.16-4.05 4.5 0 2.51 2.04 4.55 4.55 4.55s4.55-2.04 4.55-4.55c0-2.33-1.77-4.24-4.04-4.5v-8.37c0-.28-.22-.5-.5-.5H39.58l-.47-.47.22-.52h1.44c.28 0 .5-.22.5-.5v-.35h4.22c.28 0 .5-.22.5-.5v-5.09c0-4.65-3.47-8.59-7.91-8.97-.25-.02-.51-.03-.77-.03h-5.87c-.26 0-.52.01-.77.03-4.44.38-7.91 4.32-7.91 8.97v4.69c0 .28.22.5.5.5h4.17v.76c0 .28.22.5.5.5h1.49l.2.49-.54.54a.4.4 0 0 0-.16-.03H9.36c-.28 0-.5.22-.5.5v8.37c-2.27.26-4.04 2.16-4.04 4.5 0 2.51 2.04 4.55 4.55 4.55Zm53.09-4.55a3.55 3.55 0 1 1-7.102-.002 3.55 3.55 0 0 1 7.102.002M23.73 26.72v-4.19c0-4.13 3.07-7.64 6.99-7.97q.345-.03.69-.03h5.87c.23 0 .46 0 .69.03 3.92.34 6.99 3.84 6.99 7.97v4.59h-3.72v-1.16c0-.28-.22-.5-.5-.5H39.3l-.22-.52 1.02-1.02c.09-.09.15-.22.15-.35s-.05-.26-.15-.35l-1.78-1.78c-.2-.2-.51-.2-.71 0l-1.03 1.03-.51-.21v-1.45c0-.28-.22-.5-.5-.5h-2.51c-.28 0-.5.22-.5.5v1.47l-.5.21-1.04-1.04c-.2-.2-.51-.2-.71 0l-1.78 1.78c-.2.2-.2.51 0 .71l1.04 1.04-.19.5H27.9c-.28 0-.5.22-.5.5v.76h-3.67Zm4.66 1.26v-1.52h1.32c.21 0 .39-.13.47-.32l.43-1.12c.07-.18.03-.39-.11-.53l-.91-.91 1.07-1.07.93.93c.14.14.36.19.55.11l1.11-.47c.19-.08.31-.26.31-.46v-1.3h1.51v1.29c0 .2.12.39.31.46l1.13.46c.19.08.4.03.54-.11l.91-.91 1.07 1.07-.9.9c-.14.14-.19.36-.11.55l.48 1.14c.08.19.26.31.46.31h1.27V28h-1.27c-.2 0-.38.12-.46.31l-.48 1.14c-.08.19-.04.4.11.55l.9.9-1.07 1.07-.91-.91a.51.51 0 0 0-.54-.11l-1.13.46c-.19.08-.31.26-.31.46v1.29h-1.51v-1.29c0-.2-.12-.38-.3-.46l-1.11-.48a.5.5 0 0 0-.55.1l-.93.93-1.07-1.07.93-.94c.14-.14.19-.36.11-.54l-.45-1.1a.5.5 0 0 0-.46-.31h-1.32ZM9.37 39.79a3.55 3.55 0 1 1-.002 7.102 3.55 3.55 0 0 1 .002-7.102M1.09 59.43h16.64c.13 0 .26-.05.36-.15.09-.09.15-.22.14-.36l-.04-3.5c0-3.55-2.65-6.55-6.04-6.84-.19-.02-.39-.03-.59-.03H7.17c-.2 0-.4 0-.59.03-3.39.29-6.04 3.29-6.04 6.85l.04 3.51c0 .27.23.49.5.49Zm5.58-9.85c.17-.01.33-.02.5-.02h4.39c.17 0 .34 0 .5.02 2.87.25 5.12 2.81 5.12 5.85l.03 3H1.58l-.03-3.01c0-3.03 2.25-5.6 5.12-5.84"/><path d="M38.84 43.28c0-2.51-2.04-4.55-4.55-4.55s-4.55 2.04-4.55 4.55 2.04 4.55 4.55 4.55 4.55-2.04 4.55-4.55m-8.09 0a3.55 3.55 0 1 1 7.102.002 3.55 3.55 0 0 1-7.102-.002M25.47 55.37l.04 3.51c0 .27.23.49.5.49h16.64c.13 0 .26-.05.36-.15.09-.09.15-.22.14-.36l-.04-3.5c0-3.55-2.65-6.55-6.04-6.84-.19-.02-.39-.03-.59-.03h-4.39c-.2 0-.4 0-.59.03-3.39.29-6.04 3.29-6.04 6.84Zm6.12-5.84c.17-.01.33-.02.5-.02h4.39c.17 0 .34 0 .5.02 2.87.25 5.12 2.81 5.12 5.85l.03 3H26.49l-.03-3.01c0-3.03 2.25-5.6 5.12-5.84ZM34.34 30.29c1.7 0 3.08-1.38 3.08-3.08s-1.38-3.08-3.08-3.08-3.08 1.38-3.08 3.08 1.38 3.08 3.08 3.08m0-5.15c1.14 0 2.08.93 2.08 2.08s-.93 2.08-2.08 2.08-2.08-.93-2.08-2.08.93-2.08 2.08-2.08M11.6 23.79l2.18 1.28a.495.495 0 0 0 .68-.18l1.29-2.19c.14-.24.06-.54-.18-.68a.49.49 0 0 0-.68.18l-.72 1.22c-.3-1.73-.46-4.62.89-7.74 1.62-3.74 4.47-5.69 6.02-6.52.24-.13.34-.43.21-.68a.507.507 0 0 0-.68-.21c-1.67.89-4.72 2.99-6.46 7-1.45 3.34-1.29 6.42-.97 8.28l-1.07-.63a.493.493 0 0 0-.68.18c-.14.24-.06.54.18.68ZM47.52 9.16c1.55.83 4.4 2.78 6.02 6.52 1.36 3.12 1.2 6.01.89 7.74l-.72-1.22a.496.496 0 0 0-.68-.18c-.24.14-.32.45-.18.68l1.29 2.19a.495.495 0 0 0 .68.18L57 23.79c.24-.14.32-.45.18-.68a.496.496 0 0 0-.68-.18l-1.07.63c.32-1.86.48-4.95-.97-8.28-1.74-4.02-4.8-6.11-6.46-7a.5.5 0 0 0-.68.21c-.13.24-.04.55.21.68ZM61.11 48.56h-4.39c-.2 0-.4 0-.59.03-3.39.29-6.04 3.29-6.04 6.83l-.04 3.51c0 .13.05.26.14.36s.22.15.36.15h16.64a.5.5 0 0 0 .5-.49l.04-3.51c0-3.55-2.65-6.55-6.04-6.84-.19-.02-.39-.03-.59-.03Zm5.62 6.86-.03 3.01H51.06l.03-3.01c0-3.03 2.25-5.6 5.12-5.84.17-.01.33-.02.5-.02h4.39c.17 0 .34 0 .5.02 2.87.25 5.12 2.81 5.12 5.84Z"/></svg>