<svg xmlns="http://www.w3.org/2000/svg" width="68.33" height="60" viewBox="0 0 68.33 60" class="icon" fill="none" stroke="currentColor" role="presentation" alt=""><circle cx="34.34" cy="6.06" r="5.5" fill="none" stroke="currentColor"/><path d="M27.78 27.26h-4.75v-4.77c0-4.37 3.23-8.25 7.58-8.62.24-.02.49-.03.74-.03h3.88-1.79 3.88c.25 0 .5.01.74.03 4.36.37 7.58 4.25 7.58 8.62v5.18h-4.81"/><circle cx="8.93" cy="43.66" r="4.12" fill="none" stroke="currentColor"/><path d="M17.44 59.53H.5l-.04-3.57c0-3.27 2.42-6.17 5.68-6.45.18-.02.37-.02.56-.02h2.9-1.34 2.9c.19 0 .37 0 .56.02 3.26.28 5.68 3.18 5.68 6.45l.04 3.57"/><circle cx="34.29" cy="43.61" r="4.12" fill="none" stroke="currentColor"/><path d="M42.8 59.48H25.86l-.04-3.57c0-3.27 2.42-6.17 5.68-6.45.18-.02.37-.02.56-.02h2.9-1.34 2.9c.19 0 .37 0 .56.02 3.26.28 5.68 3.18 5.68 6.45l.04 3.57"/><g fill="none" stroke="currentColor"><circle cx="34.34" cy="27.26" r="2.62"/><path d="m31.9 23.04-1.3-1.3-1.81 1.81 1.29 1.29-.44 1.14h-1.86v2.56h1.86l.46 1.12-1.31 1.31 1.81 1.81 1.3-1.3 1.13.49v1.82h2.56v-1.82l1.16-.47 1.28 1.28 1.81-1.81-1.28-1.27.49-1.16h1.8v-2.56h-1.8l-.49-1.16 1.28-1.27-1.81-1.81-1.28 1.28-1.16-.47v-1.82h-2.56v1.83z"/></g><path d="M13.43 24.09c-.27-1.21-.91-4.79.83-8.78 1.87-4.32 5.3-6.32 6.35-6.88"/><path d="m11.45 23.34 2.22 1.3 1.31-2.23M55.17 24.09c.27-1.21.91-4.79-.83-8.78-1.87-4.32-5.3-6.32-6.35-6.88"/><path d="m57.15 23.34-2.22 1.3-1.31-2.23M8.92 39.54v-8.97h19.87"/><circle cx="59.35" cy="43.66" r="4.12" fill="none" stroke="currentColor"/><path d="M50.84 59.53h16.94l.04-3.57c0-3.27-2.42-6.17-5.68-6.45-.18-.02-.37-.02-.56-.02h-2.9 1.34-2.9c-.19 0-.37 0-.56.02-3.26.28-5.68 3.18-5.68 6.45l-.04 3.57M59.36 39.54v-8.97H39.54"/></svg>
