<svg xmlns="http://www.w3.org/2000/svg" viewBox="0 0 68.33 60" class="icon" fill="none" stroke="currentColor" role="presentation" alt=""><path d="M34.35 12.34c-3.27 0-5.92-2.66-5.92-5.92S31.08.5 34.35.5s5.92 2.66 5.92 5.92-2.66 5.92-5.92 5.92m0-10.84c-2.71 0-4.92 2.21-4.92 4.92s2.21 4.92 4.92 4.92 4.92-2.21 4.92-4.92-2.21-4.92-4.92-4.92M45.51 28.2h-4.73c-.28 0-.5-.22-.5-.5s.22-.5.5-.5h4.23v-4.6c0-4.14-3.08-7.65-7.02-7.99q-.345-.03-.69-.03h-5.89c-.24 0-.47 0-.7.03-3.93.34-7.01 3.85-7.01 7.99v4.2h4.18c.28 0 .5.22.5.5s-.22.5-.5.5H23.2c-.28 0-.5-.22-.5-.5v-4.7c0-4.66 3.48-8.61 7.93-8.99.26-.02.51-.03.78-.03h5.89c.25 0 .52 0 .78.03 4.45.38 7.93 4.33 7.93 8.99v5.1c0 .28-.22.5-.5.5M9.92 48.01c-2.51 0-4.56-2.04-4.56-4.56s2.04-4.56 4.56-4.56 4.56 2.04 4.56 4.56-2.04 4.56-4.56 4.56m0-8.12c-1.96 0-3.56 1.6-3.56 3.56s1.6 3.56 3.56 3.56 3.56-1.6 3.56-3.56-1.6-3.56-3.56-3.56M18.3 59.58H1.61a.5.5 0 0 1-.5-.49l-.04-3.51c0-3.55 2.66-6.57 6.05-6.86.19-.02.39-.02.6-.02h4.4c.2 0 .4 0 .6.02 3.38.29 6.04 3.3 6.04 6.86l.04 3.51c0 .28-.22.5-.49.51Zm-16.19-1H17.8l-.03-3.01c0-3.05-2.26-5.62-5.14-5.87-.18-.02-.35-.02-.51-.02h-4.4c-.17 0-.33 0-.5.02-2.89.25-5.15 2.83-5.15 5.86l.03 3.01ZM34.29 46.33c-2.83 0-5.13-2.3-5.13-5.13s2.3-5.13 5.13-5.13 5.13 2.3 5.13 5.13-2.3 5.13-5.13 5.13m0-9.25a4.131 4.131 0 0 0 0 8.26 4.131 4.131 0 0 0 0-8.26M43.86 59.54H24.82a.5.5 0 0 1-.5-.49l-.04-4.01c0-4.02 3-7.42 6.84-7.76.22-.02.45-.02.67-.02h5.01c.23 0 .45 0 .68.02 3.83.32 6.83 3.73 6.83 7.75l.04 4c0 .28-.22.5-.49.51m-18.55-1h18.04l-.04-3.5c0-3.51-2.6-6.48-5.92-6.76-.2-.02-.39-.02-.59-.02h-5.01c-.19 0-.38 0-.58.02-3.33.29-5.93 3.26-5.93 6.76l.04 3.51Z"/><path d="M35.57 34.23h-2.52c-.28 0-.5-.22-.5-.5v-1.46l-.51-.22L31 33.09c-.2.2-.51.2-.71 0l-1.78-1.78c-.2-.2-.2-.51 0-.71l1.05-1.05-.2-.49h-1.5c-.28 0-.5-.22-.5-.5v-2.53c0-.28.22-.5.5-.5h1.49l.19-.5-1.04-1.04a.504.504 0 0 1 0-.71l1.78-1.79a.5.5 0 0 1 .35-.15c.13 0 .26.05.35.15l1.05 1.05.5-.21v-1.48c0-.28.22-.5.5-.5h2.52c.28 0 .5.22.5.5v1.46l.51.21 1.03-1.03a.5.5 0 0 1 .35-.15c.13 0 .26.05.35.15l1.78 1.79c.09.09.15.22.15.35s-.05.26-.15.35l-1.02 1.01.22.52h1.44c.28 0 .5.22.5.5v2.53c0 .28-.22.5-.5.5h-1.44l-.22.52 1.02 1.01c.09.09.15.22.15.35s-.05.26-.15.35l-1.78 1.78c-.19.19-.51.2-.71 0l-1.03-1.03-.52.21v1.46c0 .28-.22.5-.5.5Zm-2.01-1h1.52v-1.29c0-.2.12-.39.31-.46l1.13-.46c.19-.08.4-.03.54.11l.91.91 1.07-1.07-.9-.9a.51.51 0 0 1-.11-.55l.47-1.14c.08-.19.26-.31.46-.31h1.27v-1.53h-1.27c-.2 0-.38-.12-.46-.31l-.47-1.14c-.08-.19-.03-.4.11-.55l.9-.9-1.08-1.08-.91.91c-.14.14-.36.19-.54.11l-1.13-.46a.5.5 0 0 1-.31-.46v-1.29h-1.52v1.31c0 .2-.12.38-.31.46l-1.11.46c-.19.08-.4.04-.55-.11l-.93-.93-1.08 1.08.92.92c.14.14.18.35.11.53l-.44 1.12c-.07.19-.26.32-.47.32h-1.33v1.53h1.33c.2 0 .39.12.46.31l.46 1.1c.08.19.03.4-.11.54l-.93.93 1.07 1.07.92-.92c.15-.14.37-.19.55-.11l1.12.48c.18.08.3.26.3.46v1.29ZM6.57 29.73a.51.51 0 0 1-.49-.39c-.39-1.72-.8-5.16.84-8.95 1.82-4.19 5.14-6.31 6.48-7.02.24-.13.55-.04.68.21.13.24.04.55-.21.68-1.25.66-4.33 2.63-6.03 6.54a13.5 13.5 0 0 0-.78 8.33c.06.27-.11.54-.38.6-.04 0-.07.01-.11.01Z"/><path d="M6.81 30.27a.43.43 0 0 1-.25-.07l-2.18-1.29a.505.505 0 0 1 .51-.87l1.75 1.03 1.04-1.77a.505.505 0 0 1 .87.51l-1.3 2.2c-.07.11-.18.2-.31.23-.04.01-.08.02-.12.02ZM62.14 29.46s-.07 0-.11-.01a.503.503 0 0 1-.38-.6c.36-1.6.75-4.81-.78-8.34-1.7-3.9-4.78-5.87-6.03-6.53a.507.507 0 0 1-.21-.68c.13-.24.43-.34.68-.21 1.66.89 4.72 2.98 6.48 7.02 1.64 3.79 1.23 7.24.84 8.96-.05.23-.26.39-.49.39"/><path d="M61.9 30s-.08 0-.12-.02a.52.52 0 0 1-.31-.23l-1.3-2.2a.493.493 0 0 1 .18-.68c.24-.14.54-.06.68.18l1.04 1.77 1.75-1.03c.24-.14.54-.06.69.18.14.24.06.54-.18.69l-2.18 1.29c-.08.05-.17.07-.25.07ZM58.42 48.01c-2.51 0-4.56-2.04-4.56-4.56s2.04-4.56 4.56-4.56 4.56 2.04 4.56 4.56-2.04 4.56-4.56 4.56m0-8.12c-1.96 0-3.56 1.6-3.56 3.56s1.6 3.56 3.56 3.56 3.56-1.6 3.56-3.56-1.6-3.56-3.56-3.56M50.03 59.58a.49.49 0 0 1-.49-.51l.04-3.51c0-3.55 2.66-6.57 6.05-6.85.19-.02.39-.02.59-.02h4.4c.2 0 .4 0 .6.02 3.38.3 6.04 3.31 6.04 6.86l-.04 3.52a.5.5 0 0 1-.5.49zm.5-1h15.69l.03-3.02c0-3.03-2.26-5.6-5.14-5.86-.18-.02-.34-.02-.51-.02h-4.4c-.17 0-.33 0-.5.02-2.89.24-5.15 2.82-5.15 5.86l-.03 3.01Z"/></svg>