<svg xmlns="http://www.w3.org/2000/svg" viewBox="0 0 60 60" class="icon" fill="none" stroke="currentColor" role="presentation" alt=""><path d="M3.15 39.48h2.91c.28 0 .5-.22.5-.5s-.22-.5-.5-.5H3.15c-.28 0-.5.22-.5.5s.22.5.5.5M3.15 41.84h4.21c.28 0 .5-.22.5-.5s-.22-.5-.5-.5H3.15c-.28 0-.5.22-.5.5s.22.5.5.5M14.91 43.2H3.15c-.28 0-.5.22-.5.5s.22.5.5.5h11.76c.28 0 .5-.22.5-.5s-.22-.5-.5-.5M14.91 45.56H3.15c-.28 0-.5.22-.5.5s.22.5.5.5h11.76c.28 0 .5-.22.5-.5s-.22-.5-.5-.5M14.91 47.93H3.15c-.28 0-.5.22-.5.5s.22.5.5.5h11.76c.28 0 .5-.22.5-.5s-.22-.5-.5-.5M14.91 50.29H3.15c-.28 0-.5.22-.5.5s.22.5.5.5h11.76c.28 0 .5-.22.5-.5s-.22-.5-.5-.5M21.31 22.02h17.56c.13 0 .26-.05.36-.15s.15-.22.14-.36l-.04-3.7c0-3.73-2.79-6.89-6.35-7.19-.2-.02-.41-.03-.62-.03h-4.63c-.21 0-.42 0-.62.03-3.56.3-6.35 3.46-6.35 7.2l.04 3.7c0 .27.23.49.5.49Zm5.89-10.4c.18-.01.35-.02.53-.02h4.63c.18 0 .36 0 .53.02 3.04.26 5.43 2.98 5.43 6.2l.04 3.2H21.8l-.04-3.2c0-3.21 2.39-5.93 5.43-6.19ZM49.19 39.48c-2.57 0-4.66 2.09-4.66 4.66s2.09 4.66 4.66 4.66 4.66-2.09 4.66-4.66-2.09-4.66-4.66-4.66m0 8.33c-2.02 0-3.66-1.64-3.66-3.66s1.64-3.66 3.66-3.66 3.66 1.64 3.66 3.66-1.64 3.66-3.66 3.66M33.51 30.74l-5.56 5.08-1.59-2.4a.498.498 0 0 0-.83.55l1.91 2.89c.08.12.21.2.36.22h.06c.12 0 .24-.05.34-.13l5.99-5.47c.2-.19.22-.5.03-.71-.19-.2-.5-.22-.71-.03"/><path d="M29.9 25.63c-4.53 0-8.21 3.68-8.21 8.21s3.68 8.21 8.21 8.21 8.21-3.68 8.21-8.21-3.68-8.21-8.21-8.21m0 15.43c-3.98 0-7.21-3.24-7.21-7.21s3.24-7.21 7.21-7.21 7.21 3.24 7.21 7.21-3.24 7.21-7.21 7.21"/><path d="M29.51 59.64c6.76 0 12.54-2.15 17.22-6.35v.85c0 .28.22.5.5.5h3.92c.28 0 .5-.22.5-.5v-2.45l1.14-.47 1.73 1.73c.19.19.52.19.71 0L58 50.18c.2-.2.2-.51 0-.71l-1.71-1.71.48-1.16h2.42c.28 0 .5-.22.5-.5v-3.92c0-.28-.22-.5-.5-.5h-2.42l-.48-1.16L58 38.81c.2-.2.2-.51 0-.71l-2.17-2.17.05-.5c.07-.74.16-1.67.16-2.33 0-12.88-9.08-23.73-21.66-26.06.28-.61.45-1.28.45-1.99 0-2.63-2.14-4.77-4.77-4.77s-4.77 2.14-4.77 4.77c0 .64.13 1.25.36 1.81-12.92 1.9-22.59 13-22.66 26.11H.88c-.28 0-.5.22-.5.5v21.09c0 .28.22.5.5.5h13.74c4.4 2.99 9.55 4.57 14.89 4.57Zm25.83-19.58c-.14.14-.19.36-.11.55l.74 1.77c.08.19.26.31.46.31h2.25v2.92h-2.25c-.2 0-.38.12-.46.31l-.74 1.77c-.08.19-.04.4.11.55l1.6 1.6-2.06 2.06-1.61-1.61a.51.51 0 0 0-.54-.11l-1.76.72c-.19.08-.31.26-.31.46v2.29h-2.92v-2.29c0-.2-.12-.38-.3-.46l-1.73-.75a.5.5 0 0 0-.55.1l-1.64 1.64-2.06-2.06 1.65-1.65c.14-.14.19-.36.11-.54l-.71-1.72a.5.5 0 0 0-.46-.31h-2.34v-2.92h2.34c.21 0 .39-.13.47-.32l.68-1.75c.07-.18.03-.39-.11-.53l-1.62-1.62 2.06-2.06 1.64 1.64c.14.14.36.19.55.11l1.73-.73c.19-.08.31-.26.31-.46v-2.31h2.92v2.29c0 .2.12.39.31.46l1.76.72c.19.08.4.03.54-.11l1.61-1.61 2.06 2.06-1.6 1.6ZM30.05 1.29c2.08 0 3.77 1.69 3.77 3.77s-1.69 3.77-3.77 3.77-3.77-1.69-3.77-3.77 1.69-3.77 3.77-3.77m-3.88 6.52c.87 1.22 2.28 2.02 3.89 2.02s2.89-.74 3.77-1.88c12.3 2.09 21.22 12.64 21.22 25.16 0 .57-.08 1.39-.14 2.09-.14 0-.27.04-.38.14l-1.73 1.73-1.14-.47v-2.45c0-.28-.22-.5-.5-.5h-3.92c-.28 0-.5.22-.5.5v2.48l-1.11.47-1.76-1.76c-.2-.2-.51-.2-.71 0l-2.77 2.77c-.09.09-.15.22-.15.35s.05.26.15.35l1.74 1.74-.44 1.13h-2.5c-.28 0-.5.22-.5.5v3.92c0 .28.22.5.5.5h2.51l.45 1.1-1.77 1.77c-.2.2-.2.51 0 .71l2.77 2.77c.2.2.51.2.71 0l1.75-1.75 1.12.48v.27c-4.61 4.43-10.39 6.69-17.22 6.69-4.62 0-9.08-1.24-13.01-3.57h.55c.28 0 .5-.22.5-.5V38.33a.47.47 0 0 0-.15-.35l-4.82-4.85a.6.6 0 0 0-.16-.11.4.4 0 0 0-.19-.04H3.99c.07-12.74 9.56-23.51 22.18-25.16ZM12.73 34.68l3.18 3.2h-3.18zm-11.35-.71h10.35v4.41c0 .28.22.5.5.5h4.32v15.18H1.38z"/></svg>