<svg xmlns="http://www.w3.org/2000/svg" width="60" height="60" viewBox="0 0 60 60" class="icon" fill="none" stroke="currentColor"><g fill="none" stroke="currentColor"><path d="M.57 33.56v21.32h16.34V38.46l-4.87-4.9zM2.86 39.13h2.95M2.86 41.51h4.25M2.86 43.9h11.89M2.86 46.29h11.89M2.86 48.67h11.89M2.86 51.06h11.89"/><path d="M12.04 33.56v4.96h4.87"/></g><circle cx="30.05" cy="4.84" r="4.32" fill="none" stroke="currentColor"/><path d="M38.97 21.47H21.22l-.04-3.74c0-3.43 2.53-6.47 5.95-6.76.19-.02.39-.02.58-.02h3.04-1.4 3.04c.2 0 .39 0 .58.02 3.42.29 5.95 3.33 5.95 6.76l.04 3.74"/><g fill="none" stroke="currentColor"><circle cx="49.39" cy="44.34" r="4.21"/><path d="m45.67 37.82-2.02-2.02-2.8 2.8 2 2-.69 1.76h-2.87v3.96h2.87l.72 1.74-2.03 2.03 2.8 2.8 2.02-2.02 1.74.76v2.82h3.96v-2.82l1.78-.73 1.99 1.99 2.8-2.8-1.98-1.97.75-1.8h2.79v-3.96h-2.79l-.75-1.79 1.98-1.97-2.8-2.8-1.99 1.98-1.78-.72v-2.82h-3.96v2.84z"/></g><path d="m25.9 33.78 1.93 2.92 6.06-5.53"/><circle cx="29.9" cy="33.94" r="7.8" fill="none" stroke="currentColor"/><path d="M47.41 52.47c-4.74 4.63-10.75 7.03-17.9 7.03a26.15 26.15 0 0 1-14.8-4.56M33.77 7.23c12.5 2.04 22.04 12.89 22.04 25.96 0 .81-.14 2.06-.21 2.85M3.2 33.56v-.37c0-13.43 10.06-24.5 23.05-26.11"/></svg>
