<svg xmlns="http://www.w3.org/2000/svg" viewBox="0 0 60 60" class="icon" fill="none" stroke="currentColor" role="presentation" alt=""><path d="M49.94 48.34c0 .28.22.5.5.5s.5-.22.5-.5v-6.99a.51.51 0 0 0-.5-.5h-7.03c-.28 0-.5.22-.5.5s.22.5.5.5h5.82l-8.68 8.68c-.2.2-.2.51 0 .71a.485.485 0 0 0 .7 0l8.68-8.68v5.79Z"/><path d="M59.64 46.11c0-4.58-2.3-8.64-5.8-11.08V1.28c0-.28-.22-.5-.5-.5H1.19c-.28 0-.5.22-.5.5V42.4c0 .28.22.5.5.5h31.79c-.25 1.03-.4 2.11-.4 3.22 0 7.46 6.07 13.53 13.53 13.53s13.53-6.07 13.53-13.53ZM41.01 1.78 36.3 7.4H1.69V1.78zm-7.75 40.11H1.69V8.4h34.84c.15 0 .29-.07.38-.18l5.4-6.45h10.53v32.61a13.4 13.4 0 0 0-6.73-1.81c-5.99 0-11.07 3.91-12.85 9.31Zm.32 4.22c0-6.91 5.62-12.53 12.53-12.53s12.53 5.62 12.53 12.53-5.62 12.53-12.53 12.53-12.53-5.62-12.53-12.53"/><path d="M11.48 15.04h35.49c.28 0 .5-.22.5-.5s-.22-.5-.5-.5H11.48c-.28 0-.5.22-.5.5s.22.5.5.5M6.39 23.97h40.36c.28 0 .5-.22.5-.5s-.22-.5-.5-.5H6.39c-.28 0-.5.22-.5.5s.22.5.5.5M6.66 32.9h29.38c.23 0 .42-.22.42-.5s-.19-.5-.42-.5H6.66c-.23 0-.42.22-.42.5s.19.5.42.5"/></svg>