<svg xmlns="http://www.w3.org/2000/svg" viewBox="0 0 60 60" class="icon" fill="none" stroke="currentColor" role="presentation" alt=""><path d="M22.12 21.94c4.29 0 7.78-3.44 7.78-7.67S26.41 6.6 22.12 6.6s-7.78 3.44-7.78 7.67 3.49 7.67 7.78 7.67m0-14.34c3.74 0 6.78 2.99 6.78 6.67s-3.04 6.67-6.78 6.67-6.78-2.99-6.78-6.67 3.04-6.67 6.78-6.67M5.75 55.14c.08.12.21.2.35.22h.06c.12 0 .24-.05.33-.13l5.13-4.61c.21-.18.22-.5.04-.71a.505.505 0 0 0-.71-.04l-4.7 4.23-1.31-1.96a.498.498 0 0 0-.83.55l1.64 2.43Z"/><path d="M7.91 59.55c3.91 0 7.1-3.14 7.1-7s-3.18-7-7.1-7-7.1 3.14-7.1 7 3.18 7 7.1 7m0-12.99c3.36 0 6.1 2.69 6.1 6s-2.74 6-6.1 6-6.1-2.69-6.1-6 2.74-6 6.1-6M20.9 52.14a.498.498 0 0 0-.83.55l1.64 2.43c.08.12.21.2.35.22h.06c.12 0 .24-.05.33-.13l5.13-4.61c.21-.18.22-.5.04-.71a.505.505 0 0 0-.71-.04l-4.7 4.23-1.31-1.96Z"/><path d="M16.77 52.55c0 3.86 3.18 7 7.1 7s7.1-3.14 7.1-7-3.18-7-7.1-7-7.1 3.14-7.1 7m13.19 0c0 3.31-2.74 6-6.1 6s-6.1-2.69-6.1-6 2.74-6 6.1-6 6.1 2.69 6.1 6M36.8 52.14a.498.498 0 0 0-.83.55l1.64 2.43c.08.12.21.2.35.22h.06c.12 0 .24-.05.33-.13l5.13-4.61c.21-.18.22-.5.04-.71a.505.505 0 0 0-.71-.04l-4.7 4.23-1.31-1.96Z"/><path d="M32.67 52.55c0 3.86 3.18 7 7.1 7s7.1-3.14 7.1-7-3.18-7-7.1-7-7.1 3.14-7.1 7m13.19 0c0 3.31-2.74 6-6.1 6s-6.1-2.69-6.1-6 2.74-6 6.1-6 6.1 2.69 6.1 6"/><path d="M21.79 42.04c6.13 0 11.64-2.62 15.48-6.77l18.15 15.01c.09.08.21.11.32.11.14 0 .28-.06.38-.18l3.18-3.73a.499.499 0 0 0-.06-.71L40.71 30.44s-.06-.03-.09-.05c1.36-2.73 2.14-5.79 2.14-9.04C42.77 9.98 33.36.71 21.79.71S.81 9.98.81 21.38s9.41 20.66 20.98 20.66m0-1a20.1 20.1 0 0 1-14.2-5.84c.05-5.39 4.17-9.78 9.63-10.24.31-.03.62-.04.94-.04h7.9c.32 0 .63.01.94.04 5.29.45 9.27 4.47 9.56 9.61a20.04 20.04 0 0 1-14.78 6.47Zm36.43 5.19-2.53 2.97-17.73-14.67c.84-1 1.58-2.08 2.23-3.22l18.04 14.92ZM21.79 1.71c11.02 0 19.98 8.82 19.98 19.66 0 4.59-1.62 8.8-4.3 12.15-.74-5.17-4.92-9.11-10.38-9.57-.34-.03-.68-.04-1.03-.04h-7.9c-.35 0-.69.01-1.03.04-5.63.47-9.96 4.78-10.49 10.21-3.01-3.44-4.84-7.91-4.84-12.79.01-10.84 8.97-19.66 19.99-19.66"/></svg>