<svg xmlns="http://www.w3.org/2000/svg" width="60" height="60" viewBox="0 0 60 60" class="icon" fill="none" stroke="currentColor"><ellipse cx="21.82" cy="13.81" fill="none" stroke="currentColor" rx="7.44" ry="7.32"/><path d="M6.48 35.27c0-5.82 4.41-10.58 10.3-11.08.33-.03.67-.04 1-.04h5.24-2.42 5.24c.34 0 .67.01 1 .04 5.75.48 10.05 4.89 10.25 10.55M3.86 52.75l1.67 2.49 5.23-4.71"/><ellipse cx="7.31" cy="52.88" fill="none" stroke="currentColor" rx="6.74" ry="6.63"/><path d="m20.15 52.75 1.67 2.49 5.23-4.71"/><ellipse cx="23.6" cy="52.88" fill="none" stroke="currentColor" rx="6.74" ry="6.63"/><path d="m36.38 52.75 1.67 2.49 5.23-4.71"/><ellipse cx="39.83" cy="52.88" fill="none" stroke="currentColor" rx="6.74" ry="6.63"/><ellipse cx="21.48" cy="21.06" fill="none" stroke="currentColor" rx="20.91" ry="20.58"/><path d="M40.48 30.72 59.4 46.37l-3.25 3.81-18.57-15.36"/></svg>
