<svg xmlns="http://www.w3.org/2000/svg" viewBox="0 0 60 60" class="icon" fill="none" stroke="currentColor" role="presentation" alt=""><path d="M28 19.55c2.24 0 4.05-1.85 4.05-4.12s-1.82-4.12-4.05-4.12-4.05 1.85-4.05 4.12 1.82 4.12 4.05 4.12m0-7.24c1.68 0 3.05 1.4 3.05 3.12s-1.37 3.12-3.05 3.12-3.05-1.4-3.05-3.12 1.37-3.12 3.05-3.12M9.13 47.54c.08.12.21.21.36.22h.06c.13 0 .25-.05.34-.13l9.15-8.52c.2-.19.21-.5.02-.71-.19-.2-.5-.21-.71-.02L9.64 46.5l-2.6-4a.5.5 0 0 0-.69-.15.5.5 0 0 0-.15.69l2.92 4.5Z"/><path d="M12.1 55.48v3.4c0 .28.22.5.5.5h46.29c.28 0 .5-.22.5-.5V14.22a.5.5 0 0 0-.14-.35L46.25.54a.52.52 0 0 0-.36-.15H12.6c-.28 0-.5.22-.5.5v29.64C5.59 30.83.39 36.31.39 43.01S5.6 55.18 12.1 55.49ZM46.39 2.12l11.48 11.77H46.39zm-1-.73v13c0 .28.22.5.5.5h12.49v43.5H13.1v-2.9c4.46-.16 8.32-2.74 10.34-6.49h29.67c.28 0 .5-.22.5-.5s-.22-.5-.5-.5H23.92a12.6 12.6 0 0 0 1.03-4.99c0-.17-.02-.33-.02-.5h28.19c.28 0 .5-.22.5-.5s-.22-.5-.5-.5H24.86c-.24-2.02-.94-3.89-2.01-5.49h30.27c.28 0 .5-.22.5-.5s-.22-.5-.5-.5H22.11c-2.17-2.65-5.39-4.36-9-4.49V1.39H45.4ZM12.67 31.5c6.22 0 11.28 5.16 11.28 11.51 0 1.89-.46 3.66-1.25 5.23-.02.04-.04.07-.06.12-1.89 3.66-5.65 6.16-9.98 6.16-6.22 0-11.28-5.16-11.28-11.51S6.44 31.5 12.66 31.5Z"/><path d="M18.72 29.89h18.64c.28 0 .5-.22.5-.5V7.56c0-.28-.22-.5-.5-.5H18.72c-.28 0-.5.22-.5.5v21.83c0 .28.22.5.5.5m2.5-1-.03-2.64c0-2.69 1.95-4.96 4.44-5.18.14-.01.29-.02.44-.02h3.86c.15 0 .29 0 .44.02 2.49.22 4.44 2.49 4.44 5.18l.03 2.64zm-2-20.83h17.64v20.83h-1.02l-.03-2.64c0-3.2-2.35-5.91-5.36-6.17-.17-.02-.35-.02-.52-.02h-3.86c-.18 0-.35 0-.52.02-3 .26-5.36 2.97-5.36 6.18l.03 2.64h-1.01V8.06Z"/></svg>