<svg xmlns="http://www.w3.org/2000/svg" width="60" height="60" viewBox="0 0 60 60" class="icon" fill="none" stroke="currentColor" role="presentation" alt=""><path d="M12.43 55.53v3.94h47.04V14.08L46.27.53H12.43v30.6M21.94 35.72H53.6M24.47 42.32H53.6M23.12 48.91H53.6"/><path d="M46.27.53v13.72h13.2"/><ellipse cx="28.08" cy="15.31" fill="none" stroke="currentColor" rx="3.61" ry="3.68"/><path d="M35.54 29.49H20.69l-.04-3.19c0-2.93 2.12-5.52 4.98-5.77.16-.01.32-.02.49-.02h2.55-1.17 2.55c.16 0 .33 0 .49.02 2.86.25 4.98 2.84 4.98 5.77l.04 3.19M6.37 43.09l2.96 4.57 9.3-8.66"/><ellipse cx="12.5" cy="43.33" fill="none" stroke="currentColor" rx="11.97" ry="12.2"/><path d="M18.65 7.31h18.94v22.18H18.65z"/></svg>
