<svg xmlns="http://www.w3.org/2000/svg" width="60" height="60" viewBox="0 0 60 60" class="icon" fill="none" stroke="currentColor"><path d="M10.07.52h40.35v25.33H10.07z"/><path d="M12.47 2.97h35.55V23.5H12.47zM24.18 41.35H11.45v-3.98h12.46M36.34 37.37h11.53v3.98H36.34M17.59 41.35v18.16M42.23 41.35v18.16M22.63 44.84h14.98v5.03H22.63zM28.99 30.13h2.27c2.65 0 4.81 2.15 4.81 4.81v9.9H24.18v-9.9c0-2.65 2.15-4.81 4.81-4.81ZM25.56 59.51v-2.73h9.01v2.73M30.07 50.03v9.48M2.65 59.51v-2.73h9.01v2.73M7.15 50.03v9.48M48.14 59.51v-2.73h9.01v2.73M52.65 50.03v9.48M44.44 44.64h15.09V50H44.44z"/><path d="M54.5 30.66h5.03v13.99H54.5zM15.63 49.72H.54v-5.36h15.09zM5.57 44.36H.54V30.37h5.03z"/></svg>
