<svg xmlns="http://www.w3.org/2000/svg" viewBox="0 0 60 60" class="icon" fill="none" stroke="currentColor" role="presentation" alt=""><path d="M49.94 26.27c.28 0 .5-.22.5-.5V1.04c0-.28-.22-.5-.5-.5H10.55c-.28 0-.5.22-.5.5v24.73c0 .28.22.5.5.5zM11.05 1.54h38.39v23.73H11.05z"/><path d="M47.59 2.93h-34.7c-.28 0-.5.22-.5.5v20.04c0 .28.22.5.5.5h34.7c.28 0 .5-.22.5-.5V3.43c0-.28-.22-.5-.5-.5m-.5 20.05h-33.7V3.93h33.7v19.04ZM41.94 59.13c.28 0 .5-.22.5-.5V41.41h5c.28 0 .5-.22.5-.5v-3.89c0-.28-.22-.5-.5-.5H36.42v-1.76c0-2.93-2.38-5.31-5.31-5.31h-1.99c-2.93 0-5.31 2.38-5.31 5.31v1.76H11.88c-.28 0-.5.22-.5.5v3.89c0 .28.22.5.5.5h5.49v17.22c0 .28.22.5.5.5s.5-.22.5-.5V41.41h5.44v2.4H22.8c-.28 0-.5.22-.5.5v4.91c0 .28.22.5.5.5h6.76v5.75h-3.9c-.28 0-.5.22-.5.5v2.67c0 .28.22.5.5.5s.5-.22.5-.5v-2.17h3.4v2.17c0 .28.22.5.5.5s.5-.22.5-.5v-2.17h3.4v2.17c0 .28.22.5.5.5s.5-.22.5-.5v-2.67c0-.28-.22-.5-.5-.5h-3.9v-5.75h6.87c.28 0 .5-.22.5-.5v-4.91c0-.28-.22-.5-.5-.5h-1.01v-2.4h5.01v17.22c0 .28.22.5.5.5ZM12.39 40.4v-2.89h11.43v2.89zm24.54 8.31H23.3V44.8h13.63zM24.82 43.8v-9.05c0-2.37 1.93-4.31 4.31-4.31h1.99c2.37 0 4.31 1.93 4.31 4.31v9.05h-10.6Zm11.6-6.28h10.52v2.89H36.42z"/><path d="M53.42 30.46v13.15H44.1c-.28 0-.5.22-.5.5v5.23c0 .28.22.5.5.5h7.51v5.61h-3.9c-.28 0-.5.22-.5.5v2.67c0 .28.22.5.5.5s.5-.22.5-.5v-2.17h3.4v2.17c0 .28.22.5.5.5s.5-.22.5-.5v-2.17h3.4v2.17c0 .28.22.5.5.5s.5-.22.5-.5v-2.67c0-.28-.22-.5-.5-.5h-3.9v-5.61h6.22c.28 0 .5-.22.5-.5V30.45c0-.28-.22-.5-.5-.5h-4.91c-.28 0-.5.22-.5.5Zm4.91 18.39H44.6v-4.23h13.73zm-3.91-17.89h3.91v12.65h-3.91zM15.97 49.56c.28 0 .5-.22.5-.5v-5.23c0-.28-.22-.5-.5-.5H6.65V30.18c0-.28-.22-.5-.5-.5H1.24c-.28 0-.5.22-.5.5v18.89c0 .28.22.5.5.5H7.2v5.89H3.3c-.28 0-.5.22-.5.5v2.67c0 .28.22.5.5.5s.5-.22.5-.5v-2.17h3.4v2.17c0 .28.22.5.5.5s.5-.22.5-.5v-2.17h3.4v2.17c0 .28.22.5.5.5s.5-.22.5-.5v-2.67c0-.28-.22-.5-.5-.5H8.2v-5.89h7.77ZM1.74 30.68h3.91v12.65H1.74zm0 13.65h13.73v4.23H1.74z"/></svg>