<svg xmlns="http://www.w3.org/2000/svg" width="1872" height="1182" fill="none" viewBox="0 0 1872 1182" class="stage-bg" role="presentation"><path fill="var(--fl-bgColor, var(--color-guidelines-orange-light))" d="M194.125 179.315c-65.547 24.259-123.696 65.436-160.317 132.389-72.206 132.07-16.498 282.335 52.674 401.797C271.954 1033.58 660.503 1103.01 842.72 1135.57c261.891 46.76 673.531 120.34 891.031-148.991 92.33-114.275 169.49-314.814 124.95-514.236-27-120.818-89.14-198.784-115.11-230.544-183.25-224.8-489.76-278.266-719.99-219.931-124.433 31.521-217.871 110.604-350.52 121.696-143.376 11.97-288.971-13.327-430.571 21.067-16.424 3.99-32.626 8.858-48.384 14.684" opacity=".6" style="mix-blend-mode:multiply"/></svg>
