<svg xmlns="http://www.w3.org/2000/svg" width="1835" height="1136" fill="none" viewBox="0 0 1835 1136" class="stage-bg" role="presentation"><path fill="var(--fl-bgColor, var(--color-guidelines-yellow-light))" d="M254.914 88.597C431.776-4.89 632.94 34.357 675.062 42.56c215.985 42.156 205.265 142.702 443.468 202.404 181.15 45.382 240.67.582 398.05 66.14 42.05 17.521 162.11 67.47 233.78 167.563 129.98 181.34 65.07 476.592-168.75 587.163-212.93 100.71-473.62 4.63-541.92-20.53-42.39-15.6-90.446-68.615-187.818-98.133-76.138-23.062-138.372-24.276-167.605-25.268-136.672-4.74-384.454-13.309-517.172-98.823C-1.403 714.484-16.875 461.029 62.363 293.401c18.956-40.051 67.409-138.635 192.551-204.804" opacity=".6" style="mix-blend-mode:multiply"/></svg>
