<svg xmlns="http://www.w3.org/2000/svg" width="2328" height="1779" fill="none" viewBox="0 0 2328 1779" class="stage-bg" role="presentation"><path fill="var(--fl-bgColor, var(--color-guidelines-green-light))" d="M2041.72 1601.45c-30.76 26.01-64.77 47.03-101.49 61.23-161.12 62.19-318.46-13.77-473.89-50.84-370.26-88.41-760.355 72.08-1131.757-39.2-64.545-19.35-128.071-46.81-180.496-92.02C55.423 1395.6 27.92 1255.61 44.87 1122.29c43.495-341.923 274.558-674.027 542.52-847.452 342.092-221.46 768.13-212.279 1113.72-26.289 161.85 87.111 309.01 213.57 404.23 381.355 118.33 208.67 165.26 502.366 86.46 740.596-29.7 89.65-81.65 172.83-150.07 230.85z" opacity=".6" style="mix-blend-mode:multiply"/></svg>
