<svg xmlns="http://www.w3.org/2000/svg" viewBox="0 0 60 60">
  <path d="M52.81 59.28H6.36c-1.56 0-2.83-1.27-2.83-2.83V3.22C3.53 1.66 4.8.39 6.36.39h46.45c1.56 0 2.83 1.27 2.83 2.83v53.22c0 1.56-1.27 2.83-2.83 2.83ZM6.36 1.39c-1.01 0-1.83.82-1.83 1.83v53.22c0 1.01.82 1.83 1.83 1.83h46.45c1.01 0 1.83-.82 1.83-1.83V3.22c0-1.01-.82-1.83-1.83-1.83z"/>
  <path d="M22.93 10.98H11.76c-.28 0-.5-.22-.5-.5s.22-.5.5-.5h11.17c.28 0 .5.22.5.5s-.22.5-.5.5M48.32 23.59H11.76c-.28 0-.5-.22-.5-.5s.22-.5.5-.5h36.56c.28 0 .5.22.5.5s-.22.5-.5.5M48.29 17.28H11.73c-.28 0-.5-.22-.5-.5s.22-.5.5-.5h36.56c.28 0 .5.22.5.5s-.22.5-.5.5M48.32 30.1H11.76c-.28 0-.5-.22-.5-.5s.22-.5.5-.5h36.56c.28 0 .5.22.5.5s-.22.5-.5.5M48.32 36.62H11.76c-.28 0-.5-.22-.5-.5s.22-.5.5-.5h36.56c.28 0 .5.22.5.5s-.22.5-.5.5M48.32 43.14H11.76c-.28 0-.5-.22-.5-.5s.22-.5.5-.5h36.56c.28 0 .5.22.5.5s-.22.5-.5.5M34.61 49.65H11.73c-.28 0-.5-.22-.5-.5s.22-.5.5-.5h22.88c.28 0 .5.22.5.5s-.22.5-.5.5"/>
</svg>