<svg xmlns="http://www.w3.org/2000/svg" viewBox="0 0 60 60" class="icon" fill="none" stroke="currentColor" role="presentation" alt=""><path d="M21.05 54.41H.9c-.28 0-.5-.22-.5-.5V3.36c0-.28.22-.5.5-.5h20.15c.28 0 .5.22.5.5v50.55c0 .28-.22.5-.5.5m-19.65-1h19.15V3.86H1.4z"/><path d="M17.46 18.08H4.5c-.28 0-.5-.22-.5-.5V7.57c0-.28.22-.5.5-.5h12.97c.28 0 .5.22.5.5v10.01c0 .28-.22.5-.5.5ZM5 17.08h11.97V8.07H5zM10.98 39.88a2.86 2.86 0 1 1-.001-5.719 2.86 2.86 0 0 1 .001 5.719m0-4.72c-1.03 0-1.86.84-1.86 1.86s.84 1.86 1.86 1.86 1.86-.84 1.86-1.86-.84-1.86-1.86-1.86M59.1 44.83H21.05c-.28 0-.5-.22-.5-.5s.22-.5.5-.5H58.6V13.78H21.05c-.28 0-.5-.22-.5-.5s.22-.5.5-.5H59.1c.28 0 .5.22.5.5v31.05c0 .28-.22.5-.5.5"/><path d="M39.2 42.34c-1.08 0-1.96-.88-1.96-1.96s.88-1.96 1.96-1.96 1.96.88 1.96 1.96-.88 1.96-1.96 1.96m0-2.91a.96.96 0 1 0 0 1.92.96.96 0 0 0 0-1.92M45.9 54.25H32.34c-.28 0-.5-.22-.5-.5v-5.1c0-.28.22-.5.5-.5h3.61v-3.83c0-.28.22-.5.5-.5s.5.22.5.5v4.33c0 .28-.22.5-.5.5h-3.61v4.1H45.4v-4.1H42c-.28 0-.5-.22-.5-.5v-4.33c0-.28.22-.5.5-.5s.5.22.5.5v3.83h3.4c.28 0 .5.22.5.5v5.1c0 .28-.22.5-.5.5"/></svg>