<svg xmlns="http://www.w3.org/2000/svg" viewBox="0 0 60 60" class="icon" fill="none" stroke="currentColor" role="presentation" alt=""><path d="M18.24 3.91H4.41c-.28 0-.5.22-.5.5v6.39c0 .28.22.5.5.5h13.83c.28 0 .5-.22.5-.5V4.41c0-.28-.22-.5-.5-.5m-.5 6.39H4.91V4.91h12.83zM18.24 12.14H4.41c-.28 0-.5.22-.5.5v6.39c0 .28.22.5.5.5h13.83c.28 0 .5-.22.5-.5v-6.39c0-.28-.22-.5-.5-.5m-.5 6.39H4.91v-5.39h12.83zM11.33 35.77c-1.56 0-2.82 1.27-2.82 2.82s1.27 2.82 2.82 2.82 2.82-1.27 2.82-2.82-1.27-2.82-2.82-2.82m0 4.65c-1 0-1.82-.82-1.82-1.82s.82-1.82 1.82-1.82 1.82.82 1.82 1.82-.82 1.82-1.82 1.82"/><path d="M58.7 10.84H21.75V1.41c0-.28-.22-.5-.5-.5H1.41c-.28 0-.5.22-.5.5v57.26c0 .28.22.5.5.5h57.3c.28 0 .5-.22.5-.5v-7.49c0-.28-.22-.5-.5-.5H46.22v-4.52c0-.28-.22-.5-.5-.5h-3.34V42.4h16.34c.28 0 .5-.22.5-.5V11.34c0-.28-.22-.5-.5-.5Zm-.5 1v21.5H21.75v-21.5h36.46ZM32.37 45.66c-.28 0-.5.22-.5.5v4.52H21.75V42.4h14.17v3.26zM1.91 1.91h18.84v48.77H1.91zM58.2 58.17H1.91v-6.49h56.3v6.49Zm-12.99-7.49H32.87v-4.02h12.34zm-3.84-5.02h-4.45V42.4h4.45zM21.75 41.4v-7.06h36.46v7.06z"/><path d="M39.11 36.09c-1.07 0-1.93.87-1.93 1.93s.87 1.93 1.93 1.93 1.93-.87 1.93-1.93-.87-1.93-1.93-1.93m0 2.86c-.51 0-.93-.42-.93-.93s.42-.93.93-.93.93.42.93.93-.42.93-.93.93"/></svg>