<svg xmlns="http://www.w3.org/2000/svg" width="60" height="60" viewBox="0 0 60 60" class="icon" fill="none" stroke="currentColor"><circle cx="21.21" cy="6.67" r="3.82" fill="none" stroke="currentColor"/><path d="M18.04 12.01h6.69l6.52 3.15 5.12-2.79c.74-.4 1.66-.16 2.11.54.49.77.23 1.8-.58 2.25l-8.16 4.49-4.29-2.39v7.28l4.95 4.07 2.51 9.32c.25.92-.25 1.89-1.15 2.22-1.02.37-2.13-.2-2.42-1.25l-2.09-7.63-4.88-2.46-.36 8.72-2.42 10.43a2.213 2.213 0 0 1-2.66 1.65A2.196 2.196 0 0 1 15.29 47l2.23-10.31-.66-18.56-2.92 3.34-1 6.44c-.14.88-.93 1.5-1.82 1.43-.97-.09-1.67-.98-1.53-1.94.43-2.84.87-5.67 1.3-8.51.38-.95 1.1-2.41 2.46-3.84 1.74-1.82 3.65-2.65 4.69-3.02ZM13.77 50.98h7.8v8.77h-7.8zM.44 50.73h7.8v8.77H.44z"/><path d="M26.1 43.09h7.8v16.66h-7.8zM38.51 29.69h7.8v30.08h-7.8zM51.67 26.23h7.8v33.55h-7.8zM37.63.52a3.64 3.64 0 0 1 3.64 3.64c0 .26-.03.5-.08.74-.07.34-.2.66-.36.96l-1.59 2.97h-3.22l-1.59-2.97c-.16-.3-.29-.63-.36-.96-.05-.24-.08-.49-.08-.74A3.64 3.64 0 0 1 37.63.52ZM39.15 8.84v2.06h-3.03V8.84"/></svg>
