<svg xmlns="http://www.w3.org/2000/svg" viewBox="0 0 60 60" class="icon" fill="none" stroke="currentColor" role="presentation" alt=""><path d="M21.48 11.38c2.34 0 4.24-1.9 4.24-4.24s-1.9-4.24-4.24-4.24-4.24 1.9-4.24 4.24 1.9 4.24 4.24 4.24m0-7.48a3.24 3.24 0 1 1-3.24 3.24 3.24 3.24 0 0 1 3.24-3.24M11.58 29.76c1.13.09 2.14-.7 2.32-1.81l.96-6.15 1.92-2.21.59 16.81-2.17 10.02c-.3 1.4.58 2.81 1.98 3.15a2.64 2.64 0 0 0 2.01-.33c.61-.38 1.03-.96 1.19-1.66l2.37-10.28.32-7.75 3.88 1.95 1.98 7.24c.17.62.6 1.15 1.17 1.44s1.25.34 1.85.11c1.13-.42 1.74-1.6 1.43-2.76l-2.45-9.11a.5.5 0 0 0-.17-.26l-4.65-3.82v-6.02l3.45 1.92c.15.08.33.08.48 0l7.97-4.39c.49-.27.86-.74 1-1.29s.05-1.13-.25-1.61a2.057 2.057 0 0 0-2.72-.7l-4.77 2.61-6.14-2.96a.55.55 0 0 0-.22-.05h-6.54c-.06 0-.11 0-.17.03-1.81.64-3.46 1.7-4.78 3.07a12.3 12.3 0 0 0-2.51 3.91l-.03.11-1.27 8.31a2.157 2.157 0 0 0 1.95 2.47Zm.31-10.58c.53-1.32 1.3-2.51 2.28-3.54 1.19-1.24 2.67-2.21 4.31-2.79h6.33l6.27 3.03c.15.07.31.06.46-.01l5-2.73a1.055 1.055 0 0 1 1.53 1.19c-.07.29-.26.52-.51.66l-7.73 4.26-3.96-2.2a.52.52 0 0 0-.5 0c-.15.09-.25.25-.25.43v7.11c0 .15.07.29.18.39l4.71 3.87 2.41 8.95c.18.66-.17 1.33-.81 1.57-.35.13-.72.1-1.05-.06-.33-.17-.56-.46-.66-.82l-2.04-7.46a.48.48 0 0 0-.26-.31l-4.77-2.4a.49.49 0 0 0-.48.02c-.15.09-.24.24-.25.41l-.34 8.43-2.36 10.19c-.1.43-.36.8-.74 1.03s-.83.31-1.26.2a1.664 1.664 0 0 1-1.23-1.96l2.18-10.08s.01-.08.01-.12l-.64-18.13c0-.21-.14-.38-.33-.45a.51.51 0 0 0-.55.14l-2.85 3.27c-.06.07-.1.16-.12.25l-.98 6.29c-.09.6-.64 1.03-1.24.97a1.14 1.14 0 0 1-.81-.44c-.2-.25-.28-.57-.23-.89l1.26-8.26ZM14.21 49.93c-.28 0-.5.22-.5.5V59c0 .28.22.5.5.5h7.62c.28 0 .5-.22.5-.5v-8.57c0-.28-.22-.5-.5-.5zm7.12 8.57h-6.62v-7.57h6.62zM1.18 59.27H8.8c.28 0 .5-.22.5-.5V50.2c0-.28-.22-.5-.5-.5H1.18c-.28 0-.5.22-.5.5v8.57c0 .28.22.5.5.5m.5-8.58H8.3v7.57H1.68z"/><path d="M26.26 42.22c-.28 0-.5.22-.5.5V59c0 .28.22.5.5.5h7.62c.28 0 .5-.22.5-.5V42.72c0-.28-.22-.5-.5-.5zm7.12 16.28h-6.62V43.22h6.62zM37.88 29.63v29.4c0 .28.22.5.5.5H46c.28 0 .5-.22.5-.5v-29.4c0-.28-.22-.5-.5-.5h-7.62c-.28 0-.5.22-.5.5m1 .5h6.62v28.4h-6.62zM51.24 59.53h7.62c.28 0 .5-.22.5-.5V26.25c0-.28-.22-.5-.5-.5h-7.62c-.28 0-.5.22-.5.5v32.78c0 .28.22.5.5.5m.5-32.78h6.62v31.78h-6.62zM33.96 6.59l1.52 2.83v1.94c0 .28.22.5.5.5h3.1c.28 0 .5-.22.5-.5V9.42l1.52-2.83a3.86 3.86 0 0 0 .48-1.91c0-2.24-1.82-4.06-4.06-4.06s-4.06 1.82-4.06 4.06c0 .28.03.56.08.83.07.35.21.71.41 1.08Zm3.57-4.96a3.06 3.06 0 0 1 3.06 3.06q0 .315-.06.63c-.05.26-.15.52-.31.81l-1.51 2.82c-.07.09-.12.2-.12.32v1.61h-2.1V9.27c0-.12-.05-.23-.12-.32l-1.51-2.82c-.15-.29-.25-.55-.31-.81q-.06-.3-.06-.63a3.06 3.06 0 0 1 3.06-3.06Z"/></svg>