<svg xmlns="http://www.w3.org/2000/svg" viewBox="0 0 60 60" class="icon" fill="none" stroke="currentColor" role="presentation" alt=""><path d="M27.67 59.74s.06-.02.09-.02c.27 0 .54.02.82.02.19 0 .39-.01.58-.02.02 0 .04.02.06.02.03 0 .06-.02.09-.02 7.8-.22 15.17-3.88 20.32-10.15 3.92-4.77 6.54-9.53 6.64-17.11l.06-.05 3.29-2.99c.14-.13.19-.32.15-.5l-4.38-16.39c3.9-4.91 4.03-6.59 2.78-7.83-.29-.29-.78-.69-1.5-.66-.98.03-2.45.68-6.08 4.37l-4.5-1.3C41.35 3.06 35.46.78 29.39.59c-.1-.04-.2-.04-.3-.01-.17 0-.34-.02-.52-.02-.26 0-.52.01-.78.02a.53.53 0 0 0-.28 0C19.69.89 12.36 4.66 7.27 11.03 3.01 16.37.66 23.16.66 30.15S3.1 44.19 7.52 49.57c5.08 6.19 12.33 9.84 20.02 10.14.04.01.08.03.12.03ZM15.53 43.92c-.22.1-.45.19-.67.29-.2.09-.41.19-.61.29-.22.11-.44.21-.65.32-.2.1-.4.21-.6.32-.21.12-.42.23-.63.35-.2.11-.39.23-.58.35-.21.12-.41.25-.62.38-.19.12-.38.25-.57.37-.2.13-.4.27-.6.4-.19.13-.37.26-.55.4-.19.14-.39.28-.58.43l-.54.42c-.12.1-.25.19-.37.29-3.98-5.02-6.19-11.34-6.3-17.9h12.19c.06 4.56.88 8.95 2.38 12.97-.03.01-.07.03-.1.04-.21.08-.41.18-.62.26ZM7.74 12.06c.11.09.23.18.35.27l.55.43c.18.14.37.27.56.4s.38.27.57.4.38.26.58.38c.19.13.38.25.58.37s.4.24.59.36c.2.12.39.23.59.35.2.11.41.22.61.33s.4.21.6.32c.21.11.42.21.64.31a18.181 18.181 0 0 0 1.26.57c.21.09.41.18.62.26.11.04.22.09.32.13-1.44 3.95-2.23 8.26-2.28 12.72H1.68c.11-6.41 2.23-12.62 6.06-17.59ZM32 8.78l9.08 6.62c-3.77 1.7-7.8 2.62-12 2.75V2.6c1.49 1.09 2.89 2.36 4.19 3.78l-1.36 1.68a.52.52 0 0 0-.11.38.5.5 0 0 0 .2.34m16.11 12 5.34 8.87H43.01c-.02-1.2-.08-2.41-.2-3.6 1.69-1.57 3.5-3.38 5.3-5.27m1.06 27.76c-.12-.1-.24-.19-.36-.28-.18-.15-.36-.29-.55-.43s-.38-.29-.57-.43c-.18-.13-.37-.27-.56-.4-.2-.14-.4-.27-.6-.41-.19-.12-.37-.25-.56-.37-.21-.13-.42-.26-.63-.38-.19-.11-.38-.23-.57-.34-.21-.12-.43-.24-.65-.36-.19-.1-.39-.21-.58-.31-.22-.11-.45-.22-.67-.33-.19-.09-.39-.19-.58-.28-.23-.11-.46-.21-.7-.31-.2-.08-.39-.17-.59-.25-.11-.05-.22-.09-.33-.13 1.48-3.99 2.29-8.36 2.34-12.88h11.04l1.17 1.95.03.03c-.13 6.99-2.52 11.48-6.09 15.92Zm-22.51-7.26c-.32.02-.63.03-.95.06l-.56.06-.85.09-.6.09-.8.12-.63.12-.76.15-.63.15c-.25.06-.5.12-.74.18l-.63.18-.72.21-.63.21c-.23.08-.47.15-.7.24-.09.03-.18.07-.28.1-1.45-3.9-2.25-8.18-2.31-12.61h13.2v10.58c-.31 0-.62 0-.93.02-.16 0-.32.02-.48.03Zm-9.54-23.99c.23.08.46.16.69.23.21.07.41.14.62.2.24.07.47.14.71.2.21.06.41.12.62.17.24.06.49.12.74.18l.62.15c.25.05.5.1.76.15l.61.12.78.12.6.09c.28.04.57.06.85.09l.54.06c.32.03.63.04.95.06.15 0 .3.02.45.03q.705.03 1.41.03v10.47h-13.2c.06-4.34.82-8.53 2.22-12.37.01 0 .02 0 .03.01Zm11.95 24.94c.3 0 .6 0 .89.02.15 0 .29.02.43.03.32.02.63.03.95.06l.53.06.84.09c.19.02.38.06.57.09l.79.12c.19.03.39.08.58.11l.77.15c.19.04.39.09.58.14l.75.18c.19.05.39.11.58.16l.73.21c.19.06.38.13.57.19l.72.24h.01c-2.23 5.54-5.76 10.29-10.29 13.59V42.21ZM41.88 26.9c.08.91.12 1.83.14 2.75h-1.61l-.32-1.2c.57-.47 1.17-.99 1.79-1.55m-2.65 2.23 1.26 4.73-.67.61-2.64-3.94c.6-.34 1.28-.8 2.04-1.39Zm-2.95 1.83 3.04 4.55c.08.12.21.2.35.22h.06c.12 0 .24-.05.34-.13l1.32-1.2c.14-.13.19-.32.15-.5l-.87-3.24h1.34c-.06 4.4-.85 8.64-2.28 12.52-.01 0-.03 0-.04-.02-.24-.09-.49-.17-.73-.25-.2-.07-.4-.14-.6-.2-.25-.08-.5-.15-.75-.22a21.597 21.597 0 0 0-1.37-.36c-.2-.05-.4-.1-.6-.14-.26-.06-.53-.11-.79-.16l-.6-.12c-.27-.05-.55-.09-.82-.13l-.58-.09c-.29-.04-.58-.07-.87-.1l-.54-.06c-.32-.03-.64-.04-.96-.06-.16 0-.31-.02-.47-.03-.31-.01-.62-.02-.93-.02V30.64h5.67c.04.07.07.14.13.19.12.12.35.27.71.27h.04c.19 0 .41-.07.66-.15Zm-1.14-2.73-3.75-2.83.6-.74 4.37 1.32c-.5.82-.92 1.58-1.21 2.25Zm1.77-3.13-4.96-1.49a.49.49 0 0 0-.53.16l-1.13 1.4c-.08.11-.12.24-.11.38.02.13.09.26.19.34l4.4 3.32c-.05.16-.08.3-.11.44h-5.6v-10.5c4.53-.13 8.88-1.16 12.93-3.07l1.08.79c-2.03 2.48-4.44 5.56-6.18 8.23Zm-8.84-6.93c-.46 0-.91-.01-1.37-.03-.15 0-.31-.02-.46-.03-.3-.02-.6-.03-.9-.06l-.55-.06c-.27-.03-.53-.05-.8-.09-.2-.03-.39-.06-.58-.09-.25-.04-.5-.07-.75-.11-.2-.03-.4-.08-.61-.12-.24-.05-.48-.09-.72-.14-.2-.04-.41-.1-.61-.14-.23-.06-.47-.11-.7-.17-.21-.05-.41-.11-.61-.17-.23-.06-.46-.13-.68-.2-.2-.06-.4-.13-.61-.2-.22-.07-.45-.15-.67-.22 2.26-5.71 5.91-10.59 10.62-13.93v15.75ZM17.79 44.1c.24-.09.48-.16.72-.24.19-.06.38-.13.57-.19.24-.08.49-.14.73-.21.19-.06.38-.11.58-.16.25-.07.5-.12.75-.18.19-.05.39-.1.58-.14.25-.06.51-.1.77-.15.19-.04.38-.08.58-.11.26-.05.53-.08.79-.12l.57-.09c.28-.04.56-.06.84-.09l.53-.06c.31-.03.63-.04.95-.06.15 0 .29-.02.43-.03.3-.01.59-.01.89-.02v15.64c-4.64-3.29-8.25-8.08-10.52-13.68l.24-.09Zm11.55 14.62c4.84-3.43 8.61-8.41 10.96-14.26.11.04.22.08.32.13.19.08.37.16.56.24.23.1.46.2.68.3.19.09.37.18.55.27.22.11.45.22.67.33.18.09.36.19.54.29.22.12.43.23.65.36.18.1.36.21.53.32.21.13.42.25.63.38.18.11.35.23.53.35.2.13.4.27.6.4.18.12.35.25.52.38l.57.42c.17.13.34.27.51.41.12.09.24.19.35.29-4.93 5.79-11.86 9.18-19.18 9.4Zm29.37-29.84-2.92 2.66h-.03l-6.93-11.51c.97-1.03 1.92-2.08 2.84-3.11 1.14-1.28 2.1-2.41 2.93-3.42l4.12 15.39ZM56.68 5.04c.28-.01.5.09.77.36.79.79 1 2.34-6.53 10.84-8.2 9.25-14.21 14-15.33 13.87-.12-.47.53-1.91 1.93-4.11 0 0 0-.02.01-.02 1.95-3.05 5.34-7.57 10.18-13.03 4.76-5.36 7.61-7.88 8.97-7.92Zm-9.71 7.26c-.17.2-1.51 1.71-3.24 3.8L33.02 8.29l2.56-3.17 14.21 4.11c-.83.88-1.76 1.88-2.82 3.08ZM35.53 4.06a.48.48 0 0 0-.53.17L33.89 5.6c-1.4-1.51-2.91-2.86-4.53-4.01 5.03.16 9.94 1.81 14.11 4.76l-7.95-2.3Zm-8-2.48c-4.88 3.46-8.67 8.5-11.01 14.41-.11-.04-.21-.08-.32-.12-.2-.08-.39-.17-.59-.25-.21-.09-.43-.18-.64-.28-.19-.09-.39-.18-.58-.27l-.63-.3-.57-.3c-.21-.11-.41-.22-.61-.33-.19-.1-.37-.21-.55-.32l-.6-.36c-.18-.11-.36-.23-.54-.34-.2-.13-.39-.26-.59-.39-.17-.12-.35-.24-.52-.37-.19-.14-.38-.27-.57-.42-.17-.13-.33-.26-.5-.39-.12-.09-.24-.19-.36-.29 4.91-5.89 11.82-9.37 19.18-9.68M8.62 49.32l.35-.29c.17-.14.34-.27.51-.41l.57-.42c.17-.13.35-.25.52-.38.2-.14.4-.27.6-.4l.53-.35c.21-.13.42-.26.63-.38.18-.11.35-.21.53-.32.21-.12.43-.24.65-.36.18-.1.36-.2.54-.29.22-.11.44-.22.67-.33.18-.09.37-.18.55-.27.23-.1.45-.2.68-.3.19-.08.37-.16.56-.24.03-.01.07-.02.1-.04 2.35 5.8 6.09 10.76 10.91 14.16-7.22-.3-14.04-3.67-18.91-9.39Z"/></svg>