<svg xmlns="http://www.w3.org/2000/svg" width="60" height="60" viewBox="0 0 60 60" class="icon" fill="none" stroke="currentColor"><path d="M28.98 59.47c-8.95-5.54-15.07-16.67-15.07-29.5S20.03 6.01 28.98.47"/><path d="M42.24 25.61c.16 1.43.24 2.88.24 4.36 0 12.83-6.11 23.96-15.07 29.5M27.41.47c2.32 1.43 4.44 3.24 6.32 5.36M40.08 29.97h14.37M.53 29.97h34.21"/><g fill="none" stroke="currentColor"><path d="M45.83 7.07C41.05 2.94 34.96.47 28.32.47c-8.49 0-16.1 4.06-21.2 10.44 5.52 4.62 12.76 7.43 20.7 7.43 5.1 0 9.92-1.16 14.17-3.21M7.38 49.34c5.09 6.2 12.59 10.13 20.95 10.13s15.85-3.92 20.95-10.13c-5.55-4.74-12.89-7.64-20.95-7.64s-15.4 2.9-20.95 7.64Z"/><path d="M27.82 18.33c-7.94 0-15.18-2.81-20.7-7.43C3.02 16.05.53 22.7.53 29.97s2.58 14.19 6.84 19.37c5.55-4.74 12.89-7.64 20.95-7.64s15.4 2.9 20.95 7.64c4.26-5.18 6.63-10.05 6.63-17.46"/></g><path d="M28.32 59.47v-59"/><g fill="none" stroke="currentColor"><path d="M35.07 30.31c1.11 1.1 8.4-5.21 16.29-14.11s7.71-10.58 6.6-11.69-2.72-1.21-10.61 7.69-13.39 17-12.28 18.11Z"/><path d="m37 25.45-5.4-1.63-1.14 1.42 4.47 3.37M39.45 28.17l1.53 5.73-1.34 1.22-3.17-4.75M50.52 8.42 35.24 4l-3.15 3.89 11.54 8.41M56.12 31.89l-.34.3-7.41-12.31M54.94 11.98l4.51 16.87-3.33 3.04"/></g></svg>
