<svg xmlns="http://www.w3.org/2000/svg" width="57.89" height="61" viewBox="0 0 57.89 60" class="icon" fill="none" stroke="currentColor" role="presentation" alt=""><path d="M10.2 44.37v3.14h47.12V11.27L46.57.45H10.2v24.43M17.94 28.55h34.6M20 33.81h32.54M18.9 39.08h33.64"/><path d="M46.57.45v10.96h10.75"/><circle cx="10.26" cy="34.62" r="9.74" fill="none" stroke="currentColor"/><g fill="none" stroke="currentColor"><circle cx="22.94" cy="12.25" r="2.94"/><path d="M29.01 23.58H16.92l-.03-2.55c0-2.34 1.72-4.41 4.05-4.61.13-.01.26-.02.4-.02h2.07-.95 2.07c.13 0 .27 0 .4.02 2.33.2 4.05 2.27 4.05 4.61l.03 2.55"/><path d="M15.26 5.87h15.41v17.71H15.26z"/></g><path d="M14.52 30.29 6.1 38.71M14.52 38.71 6.1 30.29"/><g fill="none" stroke="currentColor"><path d="m29.84 53.27 3.62-3.62 3.61 3.6M33.46 49.65v9.82"/></g></svg>
