<svg xmlns="http://www.w3.org/2000/svg" viewBox="0 0 57.89 60" class="icon" fill="none" stroke="currentColor" role="presentation" alt=""><path d="M9.97 47.27c0 .28.22.5.5.5h46.31c.28 0 .5-.22.5-.5V11.65a.47.47 0 0 0-.15-.35L46.57.66a.6.6 0 0 0-.16-.11.4.4 0 0 0-.19-.04H10.47c-.28 0-.5.22-.5.5v23.54c-2.39.13-4.75 1.1-6.57 2.92-3.93 3.93-3.93 10.32 0 14.25a9.98 9.98 0 0 0 6.57 2.92v2.62ZM46.72 2.23l9 9.06h-9zm-1-.72v10.27c0 .28.22.5.5.5h10.06v34.48H10.97v-2.11a10 10 0 0 0 8.36-5.17h32.76c.28 0 .5-.22.5-.5s-.22-.5-.5-.5H19.81c.55-1.33.8-2.76.76-4.18h31.51c.28 0 .5-.22.5-.5s-.22-.5-.5-.5H20.49c-.19-1.46-.69-2.9-1.52-4.18h33.11c.28 0 .5-.22.5-.5s-.22-.5-.5-.5H18.23c-.19-.22-.38-.44-.59-.65a10.05 10.05 0 0 0-6.68-2.93V1.51h34.75ZM4.11 28.18c1.77-1.77 4.09-2.65 6.42-2.65s4.65.88 6.42 2.65c2.84 2.84 3.4 7.11 1.67 10.52-.03.04-.05.09-.07.14-.41.78-.95 1.52-1.6 2.17-1.71 1.71-3.99 2.66-6.42 2.66s-4.7-.94-6.42-2.66c-3.54-3.54-3.54-9.3 0-12.83"/><path d="M22.99 16c1.87 0 3.39-1.52 3.39-3.39s-1.52-3.39-3.39-3.39-3.39 1.52-3.39 3.39S21.12 16 22.99 16m0-5.78a2.39 2.39 0 1 1 0 4.78 2.39 2.39 0 0 1 0-4.78"/><path d="M15.44 24.24h15.15c.28 0 .5-.22.5-.5V6.34c0-.28-.22-.5-.5-.5H15.44c-.28 0-.5.22-.5.5v17.41c0 .28.22.5.5.5Zm2.13-1-.02-2c0-2.09 1.55-3.86 3.53-4.03.11 0 .23-.01.35-.01h3.13c.12 0 .23 0 .35.01 1.98.17 3.53 1.94 3.53 4.03l.02 2H17.58Zm-1.63-16.4h14.15v16.41h-.64l-.02-2c0-2.6-1.95-4.81-4.44-5.02-.14-.01-.29-.02-.43-.02h-3.13c-.15 0-.29 0-.43.02-2.49.21-4.44 2.42-4.44 5.03l.02 2h-.63V6.84ZM14.36 38.97a.485.485 0 0 0 .7 0c.2-.2.2-.51 0-.71l-3.78-3.78 3.78-3.78c.2-.2.2-.51 0-.71s-.51-.2-.71 0l-3.78 3.78-3.78-3.78c-.2-.2-.51-.2-.71 0s-.2.51 0 .71l3.78 3.78-3.78 3.78c-.2.2-.2.51 0 .71a.485.485 0 0 0 .7 0l3.78-3.78 3.78 3.78ZM33.33 59.53c.28 0 .5-.22.5-.5v-8.45l2.69 2.69c.2.2.51.2.71 0s.2-.51 0-.71l-3.54-3.54s-.1-.08-.16-.11a.5.5 0 0 0-.38 0c-.06.03-.12.06-.16.11l-3.56 3.56c-.2.2-.2.51 0 .71a.485.485 0 0 0 .7 0l2.71-2.71v8.45c0 .28.22.5.5.5Z"/></svg>