<svg xmlns="http://www.w3.org/2000/svg" viewBox="0 0 57.89 60" class="icon" fill="none" stroke="currentColor" role="presentation" alt=""><path d="M15.52 38.96a.485.485 0 0 0 .7 0c.2-.2.2-.51 0-.71l-3.78-3.78 3.78-3.78c.2-.2.2-.51 0-.71s-.51-.2-.71 0l-3.78 3.78-3.78-3.78c-.2-.2-.51-.2-.71 0s-.2.51 0 .71l3.78 3.78-3.78 3.78c-.2.2-.2.51 0 .71a.485.485 0 0 0 .7 0l3.78-3.78 3.78 3.78ZM28.95 59.53c.28 0 .5-.22.5-.5v-8.45l2.69 2.69c.2.2.51.2.71 0s.2-.51 0-.71l-3.54-3.54s-.1-.08-.16-.11a.5.5 0 0 0-.38 0c-.06.03-.12.06-.16.11l-3.56 3.56c-.2.2-.2.51 0 .71a.485.485 0 0 0 .7 0l2.71-2.71v8.45c0 .28.22.5.5.5Z"/><path d="M55.54 47.69h-43.8c-.28 0-.5-.22-.5-.5v-3.11c0-.28.22-.5.5-.5s.5.22.5.5v2.61h42.8V11.61L44.72 1.22H12.24v23.62c0 .28-.22.5-.5.5s-.5-.22-.5-.5V.72c0-.28.22-.5.5-.5h33.19c.13 0 .26.05.35.15l10.61 10.68c.09.09.15.22.15.35v35.79c0 .28-.22.5-.5.5"/><path d="M55.54 12.04H44.93c-.28 0-.5-.22-.5-.5V.72c0-.28.22-.5.5-.5s.5.22.5.5v10.32h10.11c.28 0 .5.22.5.5s-.22.5-.5.5M28.92 15.77c-1.88 0-3.4-1.53-3.4-3.4s1.53-3.4 3.4-3.4 3.4 1.53 3.4 3.4-1.53 3.4-3.4 3.4m0-5.81c-1.33 0-2.4 1.08-2.4 2.4s1.08 2.4 2.4 2.4 2.4-1.08 2.4-2.4-1.08-2.4-2.4-2.4M34.91 24.06H22.98a.5.5 0 0 1-.5-.49l-.03-2.52c0-2.62 1.96-4.84 4.46-5.05.17 0 .3-.02.44-.02h3.14c.15 0 .3 0 .45.02 2.49.21 4.45 2.43 4.45 5.04l.03 2.51c0 .28-.22.5-.49.51h-.01Zm-11.44-1h10.94l-.02-2.01c0-2.11-1.56-3.89-3.55-4.05-.13-.01-.25-.02-.35-.01h-3.14c-.12 0-.23 0-.35.01-2 .17-3.55 1.95-3.55 4.05l.02 2.02ZM11.79 44.58c-5.58 0-10.12-4.54-10.12-10.12s4.54-10.12 10.12-10.12 10.12 4.54 10.12 10.12-4.54 10.12-10.12 10.12m0-19.23c-5.03 0-9.12 4.09-9.12 9.12s4.09 9.12 9.12 9.12 9.12-4.09 9.12-9.12-4.09-9.12-9.12-9.12"/><path d="M36.55 24.06H21.33c-.28 0-.5-.22-.5-.5V6.07c0-.28.22-.5.5-.5h15.22c.28 0 .5.22.5.5v17.49c0 .28-.22.5-.5.5m-14.72-1h14.22V6.57H21.83z"/></svg>