<svg xmlns="http://www.w3.org/2000/svg" width="75.29" height="61" viewBox="0 0 75.29 60" class="icon" fill="none" stroke="currentColor" role="presentation" alt=""><path d="M3.13 23.05h19.51v4.47H3.13zM5.79 27.52H25.3v4.47H5.79zM39.71 32.4h19.51v4.47H39.71zM42.37 36.87h19.51v4.47H42.37zM2.34 32.05h19.51v4.47H2.34zM4.09 36.87H23.6v4.47H4.09z"/><path d="M.54 41.33h63.15v5.96H.54zM4.73 47.29h55.23v12.16H4.73zM42.37 41.33H27.33v-4.01c0-4.73 3.83-8.56 8.56-8.56h8.13a8.57 8.57 0 0 1 7 3.63"/><circle cx="40" cy="20.66" r="6.46" fill="none" stroke="currentColor"/><circle cx="66.37" cy="8.95" r="8.38" fill="none" stroke="currentColor"/><path d="M66.37 2.02V9.2h-5.02M23.6 10.43l4.94 4.09 1.28-3.4 2.53 2.86M31.38 2.43l2.16 6.04 2.83-2.27.71 3.75M43.42.56l-2.57 5.89 3.63.28-2.06 3.22M54.02 6.09l-5.79 2.77 2.55 2.59-3.66 1.08"/></svg>
