<svg xmlns="http://www.w3.org/2000/svg" viewBox="0 0 75.29 60" class="icon" fill="none" stroke="currentColor" role="presentation" alt=""><path d="M58.44 41.76H39.62c-.28 0-.5-.22-.5-.5v-8.62c0-.28.22-.5.5-.5h18.82c.28 0 .5.22.5.5v8.62c0 .28-.22.5-.5.5m-18.32-1h17.82v-7.62H40.12zM20.98 36.01H3.55c-.28 0-.5-.22-.5-.5v-5.75c0-.28.22-.5.5-.5h17.43c.28 0 .5.22.5.5v5.75c0 .28-.22.5-.5.5m-16.93-1h16.43v-4.75H4.05z"/><path d="M22.54 41.76H5.11c-.28 0-.5-.22-.5-.5V35.5c0-.28.22-.5.5-.5h17.43c.28 0 .5.22.5.5v5.76c0 .28-.22.5-.5.5m-16.93-1h16.43V36H5.61z"/><path d="M59.17 59.77H5.86c-.28 0-.5-.22-.5-.5V47.51H2.11c-.28 0-.5-.22-.5-.5v-5.75c0-.28.22-.5.5-.5h60.64c.28 0 .5.22.5.5v5.75c0 .28-.22.5-.5.5h-3.08v11.76c0 .28-.22.5-.5.5m-52.81-1h52.31V47c0-.31.31-.55.6-.49h2.99v-4.75H2.61v4.75h3.15c.29-.06.6.18.6.49z"/><path d="M42.18 41.76H27.66c-.28 0-.5-.22-.5-.5V37.4c0-4.83 3.93-8.76 8.76-8.76h7.85c2.84 0 5.52 1.39 7.17 3.72.16.23.11.54-.12.7a.51.51 0 0 1-.7-.12 7.8 7.8 0 0 0-6.35-3.3h-7.85c-4.28 0-7.76 3.48-7.76 7.76v3.36h14.02c.28 0 .5.22.5.5s-.22.5-.5.5M39.9 26.71c-3.35 0-6.07-2.72-6.07-6.07s2.72-6.07 6.07-6.07 6.07 2.72 6.07 6.07-2.72 6.07-6.07 6.07m0-11.14c-2.79 0-5.07 2.27-5.07 5.07a5.07 5.07 0 1 0 5.07-5.07M65.16 18.59c-4.67 0-8.47-3.8-8.47-8.47s3.8-8.47 8.47-8.47 8.47 3.8 8.47 8.47-3.8 8.47-8.47 8.47m0-15.94c-4.12 0-7.47 3.35-7.47 7.47s3.35 7.47 7.47 7.47 7.47-3.35 7.47-7.47-3.35-7.47-7.47-7.47"/><path d="M65.16 10.85h-4.77c-.28 0-.5-.22-.5-.5s.22-.5.5-.5h4.27V3.53c0-.28.22-.5.5-.5s.5.22.5.5v6.82c0 .28-.22.5-.5.5M28.84 15.88c-.12 0-.23-.04-.32-.11l-4.77-3.95a.504.504 0 0 1-.07-.7c.18-.21.49-.24.7-.07l4.23 3.5.99-2.62c.06-.16.21-.28.38-.32.17-.03.35.03.47.16l2.44 2.76c.18.21.16.52-.04.71-.21.18-.52.16-.71-.04l-1.89-2.14-.94 2.5c-.06.15-.18.27-.34.31-.04.01-.09.02-.13.02ZM38.86 12.45a.5.5 0 0 1-.42-.77l1.53-2.41-2.67-.21c-.16-.01-.31-.1-.39-.24s-.09-.31-.03-.46l2.48-5.68c.11-.25.4-.37.66-.26.25.11.37.41.26.66l-2.2 5.04 2.8.22c.17.01.33.12.41.28s.07.34-.03.49l-1.98 3.11c-.1.15-.26.23-.42.23M46.77 13.96c-.22 0-.42-.14-.48-.36-.08-.26.07-.54.34-.62l2.73-.81-1.87-1.91a.55.55 0 0 1-.14-.44.49.49 0 0 1 .28-.36l5.59-2.67a.504.504 0 0 1 .43.91l-4.96 2.37 1.97 2c.12.12.17.31.13.48s-.17.3-.34.35l-3.53 1.04s-.09.02-.14.02Z"/></svg>