<svg xmlns="http://www.w3.org/2000/svg" viewBox="0 0 75.29 60" class="icon" fill="none" stroke="currentColor" role="presentation" alt=""><path d="M1.25 47.46h3.61V58.9c0 .28.22.5.5.5h54.2c.28 0 .5-.22.5-.5V47.46h3.15c.28 0 .5-.22.5-.5v-5.85c0-.28-.22-.5-.5-.5h-1.27v-3.88c0-.28-.22-.5-.5-.5h-2.11v-3.88c0-.28-.22-.5-.5-.5h-7.81c-1.68-2.23-4.31-3.57-7.11-3.57h-7.98c-4.91 0-8.9 3.99-8.9 8.9v3.43h-2.65v-3.88c0-.28-.22-.5-.5-.5h-1.22v-3.79h2.89c.28 0 .5-.22.5-.5v-4.38c0-.28-.22-.5-.5-.5h-2.11v-3.88c0-.28-.22-.5-.5-.5H3.79c-.28 0-.5.22-.5.5v4.38c0 .28.22.5.5.5H5.9v3.45H3.01c-.28 0-.5.22-.5.5v4.38c0 .28.22.5.5.5h1.22v3.73H1.25c-.28 0-.5.22-.5.5v5.85c0 .28.22.5.5.5ZM59.06 58.4H5.86V47.46h53.2zm1.88-17.79H42.79v-3.38h18.15zm-2.61-4.38H40.18v-3.38h18.15zm-30.3.95c0-4.36 3.54-7.9 7.9-7.9h7.98c2.23 0 4.34.95 5.82 2.57H39.68c-.28 0-.5.22-.5.5v4.38c0 .28.22.5.5.5h2.11v3.38H28.03zM4.29 23.67h18.15v3.38H4.29zm18.65 4.38h2.11v3.38H6.9v-3.38zM3.51 32.5h18.15v3.38H3.51zm1.72 4.73h18.15v3.38H5.23zm-3.48 4.38h60.97v4.85H1.75z"/><path d="M33.13 20.82c0 3.77 3.07 6.84 6.84 6.84s6.84-3.07 6.84-6.84-3.07-6.84-6.84-6.84-6.84 3.07-6.84 6.84m6.84-5.84c3.22 0 5.84 2.62 5.84 5.84s-2.62 5.84-5.84 5.84-5.84-2.62-5.84-5.84 2.62-5.84 5.84-5.84M65.85 18.05c4.81 0 8.73-3.92 8.73-8.73S70.66.59 65.85.59s-8.73 3.92-8.73 8.73 3.92 8.73 8.73 8.73m0-16.45c4.26 0 7.73 3.47 7.73 7.73s-3.47 7.73-7.73 7.73-7.73-3.47-7.73-7.73 3.47-7.73 7.73-7.73"/><path d="M60.93 10.07h4.92c.28 0 .5-.22.5-.5V2.53c0-.28-.22-.5-.5-.5s-.5.22-.5.5v6.54h-4.42c-.28 0-.5.22-.5.5s.22.5.5.5M28.41 15.18c.09.08.2.11.32.11.04 0 .09 0 .13-.02.16-.04.28-.16.34-.31l.96-2.56 1.93 2.19c.18.21.5.23.71.04.21-.18.23-.5.04-.71l-2.48-2.81a.52.52 0 0 0-.47-.16c-.17.03-.32.15-.38.32l-1.01 2.68-4.31-3.57a.486.486 0 0 0-.7.07c-.18.21-.15.53.07.7l4.85 4.02ZM33.16 9.03c.05.15.18.27.33.31.16.04.32.01.45-.09l2.13-1.71.54 2.86c.05.24.25.41.49.41h.09c.27-.05.45-.31.4-.58l-.7-3.68a.5.5 0 0 0-.32-.38.51.51 0 0 0-.49.08l-2.23 1.79-1.88-5.27a.501.501 0 0 0-.94.34l2.12 5.93ZM40.77 7.37l2.73.21-1.57 2.46a.5.5 0 0 0 .42.77c.17 0 .33-.08.42-.23l2.01-3.16c.09-.15.1-.33.03-.49a.51.51 0 0 0-.41-.28l-2.86-.22 2.24-5.13c.11-.25 0-.55-.26-.66s-.55 0-.66.26l-2.52 5.77c-.06.15-.05.32.03.46s.23.23.39.24ZM46.96 13.35s.1 0 .14-.02l3.59-1.07c.17-.05.3-.18.34-.35s0-.35-.13-.48l-2.01-2.04 5.05-2.41c.25-.12.35-.42.24-.67s-.42-.36-.67-.24l-5.68 2.72c-.15.07-.25.21-.28.36-.03.16.02.32.14.44l1.92 1.95-2.79.83c-.26.08-.42.36-.34.62.06.22.26.36.48.36"/></svg>