<svg xmlns="http://www.w3.org/2000/svg" width="512" height="512" fill="none"><style>@media (prefers-color-scheme:dark){.dark{fill:#fff}.light{fill:#000}}</style><path fill="#fff" d="M0 0h512v512H0z" class="light"/><path fill="#000" d="M274.581 500.841c.38-9.665-2.659-19.533-8.871-26.988-3.106-3.728-7.081-6.574-10.919-9.584-6.945-5.395-16.237-12.741-22.842-18.272-3.731-3.158-7.474-6.262-10.892-9.841-3.283-3.673-5.928-7.794-8.709-11.82-13.428-20.197-27.142-40.678-39.879-61.295-10.2-15.778-19.152-36.626-23.452-53.082-6.606-6.574-13.361-12.985-20.319-19.18-5.209-4.676-10.54-9.502-14.758-15.168l-4.124-5.652c-5.561-7.401-11.896-14.26-18.488-20.753-10.132-9.787-19.207-20.563-27.535-31.922-4.287-6.005-5.751-13.786-4.178-20.97.705-3.605 2.17-7.428 5.1-9.922 7.515-5.951 18.108-.501 23.168 6.127 5.493 6.249 13.008 14.924 18.488 20.942 6.321 6.724 13.049 13.189 20.36 18.801 3.716 2.982 7.623 4.961 11.665 7.577 3.961 2.684 7.582 5.87 10.892 9.204 3.283 3.294 6.742 6.561 9.658 10.424 3.282 4.419 5.982 9.692 11.421 11.522 2.998.976 5.087-1.112 6.863-3.714 4.911-7.32 3.853-17.473.177-25.199-1.872-4.08-4.409-7.889-7.352-11.305-3.242-3.443-6.524-7.103-8.695-11.373-7.691-16.645-27.399-59.492-35.226-76.612-2.414-8.133-5.222-16.185-8.464-23.979l-1.18-2.942c-1.858-5.218-5.711-9.583-6.199-15.357-1.967-15.9 17.145-25.809 29.692-16.592 7.013 5.897 9.902 14.708 13.402 22.746 2.726 5.788 5.927 11.413 8.369 17.364 1.722 3.863 2.794 8.065 4.72 11.779 1.926 3.673 4.151 7.469 6.131 11.237l2.876 5.734c2.685 5.91 6.795 10.261 10.675 15.588 5.195 6.981 9.481 14.517 13.822 21.851 2.211 3.876 4.489 7.373 6.212 11.616 1.411 4.012 3.988 7.984 5.534 12.498.502 1.572 1.872 3.253 3.31 3.972.122 0-.258.027-.163 0 0 .04.095-.109.177-.15.081-.135.189-.203.284-.393 3.893-7.604 2.211-16.821-1.546-24.236-3.201-6.927-7.148-16.524-10.241-23.559-1.709-3.931-3.499-7.685-5.317-11.67-6.809-15.941-11.842-32.207-16.888-48.758-1.22-4.134-2.143-8.377-3.472-12.213-2.672-7.103-7.325-16.184-10.485-23.165l-2.767-5.761-1.411-2.86c-3.16-5.815-5.846-11.901-6.891-18.516-.949-5.626-1.437-12.796 3.31-17.039 6.891-5.178 15.789-7.78 24.334-6.764 10.16.922 13.063 10.234 17.308 17.744 2.428 4.554 5.399 9.637 7.718 14.165 4.287 10.003 8.288 19.898 11.571 30.214 1.655 5.178 2.943 10.274 5.005 15.019 2.021 5.015 4.435 9.244 7.379 13.866 2.808 4.799 4.964 9.746 7.04 14.748 7.229 17.405 11.068 36.056 15.273 54.342.909 5.056 2.455 9.882 5.358 14.043 1.261 1.64 2.496 3.375 4.652 3.335 7.624-.407 3.798-12.715 2.985-17.595-1.927-7.74-5.779-14.815-7.678-22.704-2.604-10.533-4.829-21.078-5.765-31.855-1.139-15.994-5.683-31.054-10.905-46.222-3.527-10.099-7.42-20.563-8.085-31.42-.447-6.954-.759-15.372 5.168-20.4 14.84-11.834 32.093.799 36.556 16.577 5.575 14.938 12.276 29.672 17.593 44.786 2.645 7.604 5.846 14.937 8.464 22.569s4.259 15.601 5.968 23.436c2.713 10.234 5.846 20.726 7.474 31.299 1.736 8.173 1.316 17.404-3.703 24.48-1.329 1.83-2.876 3.416-4.802 4.663-1.858 1.139-4.028 1.559-5.927 2.304-6.104 2.264-12.032 5.165-17.308 9.001-4.368 3.09-8.179 6.303-11.611 10.437a21.9 21.9 0 0 1-6.837 5.259c-2.414 1.193-4.91 1.708-7.012 3.24-1.926 1.342-3.459 3.348-5.033 5.49a83 83 0 0 1-10.77 12.24c-3.988 3.728-8.152 7.049-12.275 10.492-6.226 5.056-13.049 10.694-21.296 12.267-2.849.542-5.426.596-7.881 1.206-2.455.57-4.761 1.518-6.85 2.874-1.94 1.261-4.015 2.752-4.639 4.893-.868 4.338 4.843 8.093 8.532 9.597 9.671 3.416 20.821 1.613 30.384-1.748 10.105-3.443 18.488-9.706 26.396-16.863 7.284-5.978 13.727-12.904 21.472-18.34 3.351-2.06 7.284-3.144 10.133-5.964 1.844-1.721 3.567-3.741 5.046-5.829 2.156-3.104 4.435-7.536 8.179-9.393 6.239-3.904 9.78-11.576 16.901-14.436 2.862-.759 5.195 2.331 5.426 4.771.501 3.172-2.116 5.666-3.88 7.862-1.723 2.074-3.581 4.067-5.385 6.018-3.581 3.877-6.768 8.255-9.59 12.715-1.071 1.505-3.187 2.535-4.178 3.728-.244.704.597 1.599 1.181 2.087 1.288 1.03 3.106 1.084 4.733.759 3.473-.772 6.213-4.622 9.048-6.913 3.432-2.291 6.999-3.836 10.295-6.303l-.163.136a1.4 1.4 0 0 1 .258-.19l.068-.041.122-.081.258-.163c7.243-4.446 14.88-7.889 22.299-11.955 4.693-.543 9.36 6.208 5.806 9.949-.692.732-1.519 1.139-2.116 1.505-1.994 1.192-3.934 2.521-5.969 3.646-2.699 1.437-5.303 3.362-8.206 4.405-2.102.881-3.269 2.982-5.005 4.406-3.649 2.751-7.067 5.761-11.055 8.065-1.072.407-2.319 1.288-3.432 1.857-.42.257-1.085.488-1.207.827-.041.434.61.515 1.424.515 2.184 0 4.165-1.085 5.86-2.372 9.454-5.422 19.044-10.465 29.122-14.558 5.453-2.413 11.191-9.57 17.525-5.463 8.248 7.55-5.045 14.382-11.014 17.283l-8.301 4.134c-2.821 1.383-5.019 3.334-7.691 5.069-4.042 2.522-8.64 3.715-13.049 5.3l-4.327 1.573c-1.248.407-2.658.908-3.147 2.223-.149.515-.312.678.204.867 3.689.759 7.107-1.599 10.336-3.117l4.381-1.762c4.354-1.708 9.156-1.668 13.483-3.376 5.873-2.019 11.041-6.276 17.538-6.425 3.988-.42 6.037 4.284 4.68 7.618-1.288 3.24-4.544 4.555-7.216 6.29a126 126 0 0 1-8.22 4.432 121 121 0 0 1-8.247 3.714c-3.988 1.6-8.939 3.294-13.347 4.623-1.696.976-3.527 2.277-5.657 2.331-1.464.108-2.929-.258-4.191-.935-2.658-1.18-2.998-4.406-5.114-6.114-.881-.854-2.034-1.423-3.147-2.358-2.156-1.803-2.536-4.595-4.747-6.29-3.079-2.44-6.687-4.391-9.278-7.55-1.302-1.613-2.292-3.307-3.337-5.056-.271-.501-.692-1.233-.922-1.748 0-.027-.041-.068.027.027-.529-1.166-.977-2.332-1.899-2.63-2.618-.854-3.283 1.816-3.079 3.945.461 6.113 4.734 11.264 8.79 15.601a.621.621 0 0 1-.367 1.085c-3.513.339-7.175.42-10.62-.339-3.459-.556-6.864-1.966-10.011-3.321-3.215-1.206-6.565-2.101-9.956-2.82-3.405-.732-6.836-1.206-10.255-1.829-.678-.068-1.885.325-2.36 1.07-2.319 3.172 3.093 4.27 5.399 4.568 2.265.502 4.313 1.153 6.511 1.898 3.065 1.356 6.131 2.535 9.264 3.646.909.285 2.265.231 3.377 1.125 1.655 1.41.977 3.132-1.18 3.172-2.97.353-5.385-1.748-8.097-2.331l-1.628-.285-6.592-1.03c-3.88.054-12.751-4.771-14.758-.108-1.425 4.839 10.132 4.297 13.062 5.15 2.252.516 4.164 1.41 6.443 1.668l6.579.935c2.333.081 5.086 1.328 5.927 3.728.231.501-.271 1.098-.814.949-3.201-.773-6.47-1.071-9.766-.76-4.91.732-10.146-1.301-14.907-1.518-.678.082-1.465.38-1.994.746-1.18.813-.434 2.318.692 2.792 6.484 2.359 13.795 2.359 20.563 3.565 2.238.475 4.843-.786 6.945.542 1.235.624 2.822 2.345 1.642 3.755-2.334 2.142-5.589 1.952-8.383 2.725-4.056 2.033-8.844 1.613-12.751 3.646-.271.244-.217.366-.162.705.813 2.114 2.78 1.965 4.883 1.531 2.374-.366 7.84-1.26 10.132-1.355 4.558-.325 9.007-2.277 13.632-1.572 5.48.745 11.272 1.64 16.698.813 2.224-.407 4.612-.502 6.891-.542 7.053-.244 14.283 2.724 18.623 8.39 2.116 2.752 3.934 7.971.611 10.532-3.554 1.803-7.569.285-10.648-1.572-5.616-3.619-12.439-4.527-19.044-4.487-4.49.027-9.061.448-13.565.773-3.635.366-6.565-1.952-9.942-2.386-3.337-.067-6.918.746-10.268-.149-6.891-1.423-13.415-4.5-18.461-9.407l1.709-.271c-8.044 15.507-17.091 30.648-23.399 46.954l-6.388 16.361-.122.231c-2.822 8.228-5.155 16.957-6.335 25.551-.583 5.056 3.54 11.223 8.925 10.546 2.564-.366 5.073-2.142 6.81-4.013 3.214-3.443 5.263-11.454 7.012-15.927 2.076-5.666 4.341-11.291 7.013-16.754 2.672-5.449 5.683-10.708 8.912-15.845 3.011-5.056 7.297-9.353 8.586-15.182 1.031-4.46 3.906-15.954 9.481-16.483 1.859-.081 3.12.935 4.137 2.128 3.391 4.609.557 11.156-1.56 15.602-4.557 7.659-9.183 15.331-11.583 23.965-.963 2.901-1.086 5.653-1.601 8.662-1.072 6.018-2.604 11.901-4.422 17.689a182 182 0 0 1-6.307 17.052c-1.207 2.806-2.537 5.476-3.432 8.16-2.537 7.456-1.411 18.001 7.989 19.154 2.605.298 4.897-.556 6.742-2.481 7.596-7.496 6.456-19.099 10.214-28.479l1.587-4.27c3.024-8.323 6.443-17.188 9.644-25.375 1.126-2.833 2.129-5.476 2.903-8.35 1.627-5.733 2.889-11.711 4.733-17.418.095-.339.367-1.111.407-1.396.584-4.216 1.927-8.363 4.721-11.711 1.967-2.495 6.985-4.894 9.698-1.722 1.547 2.345.095 4.826-.569 6.994-2.252 8.174-4.26 17.5-5.182 25.985.041 4.473.258 9.313-.895 13.745-1.845 7.279-4.205 14.436-5.779 21.783-.515 2.955-1.722 6.127-2.93 8.824-2.021 4.582-2.712 11.102 2.211 13.948 2.116 1.315 4.911 1.749 6.85.719 2.754-1.559 4.761-6.832 5.847-10.275 1.03-4.419 2.251-9.068 4.245-13.121 2.849-5.273 4.775-10.736 6.335-16.524 3.187-11.481 5.642-23.246 8.03-34.985v.718c-2.198-8.838 1.085-18.733 8.003-24.629 4.747-4.717 10.498-4.5 12.14 2.779.108.65.135 1.287.108 1.924-.366 5.707.38 11.454 1.058 17.134.665 6.452 3.133 12.24 3.608 18.706q.774 6.405.855 12.85c.149 4.066-.489 8.336.746 12.159.909 2.562 2.143 5.368 4.49 6.642 2.238.949 5.276.19 6.999-1.532 1.18-1.193 1.926-2.982 2.428-4.907 2.78-10.18.909-20.739.556-31.19.637-15.046-1.357-30.024-3.269-44.853 7.067-18.747 10.987-38.551 12.764-58.477.705-12.009 1.234-24.209 2.496-36.178.651-7.062 1.329-14.409 4.232-21.01 6.605-16.076 19.152-29.74 34.534-37.913 15.491-7.239 32.446-5.897 30.655 15.52-.624 6.344-4.639 11.441-7.826 16.673-6.24 10.274-12.018 20.915-16.725 31.962-9.169 22.339-11.529 46.752-12.601 70.717-.448 8.011.583 16.822-4.341 23.762-2.17 3.456-4.557 6.642-5.927 10.369-1.506 3.647-1.845 7.957-2.198 11.603-1.18 9.516-2.156 18.788-4.53 28.046-2.482 9.149-6.172 17.96-11.123 26.052-2.373 4.053-5.67 7.577-7.921 11.671-5.792 12.525-2.537 28.682 3.269 40.706.054.095 0 .217-.095.271-6.321-10.492-9.563-29.808-3.866-41.329 2.265-4.202 5.466-7.686 7.84-11.78 4.843-8.024 8.451-16.808 10.852-25.863 2.265-9.014 3.201-18.597 4.299-27.774.367-4.039.651-8.255 2.211-12.077 1.411-3.904 3.893-7.266 5.969-10.627 4.815-6.642 3.445-15.073 3.974-23.084.936-24.088 3.133-48.866 12.316-71.422 4.721-11.21 10.472-21.905 16.739-32.315 1.98-3.416 4.476-6.669 5.995-10.288 2.17-5.192 2.252-11.576-.244-16.646-4.951-9.285-17.959-5.476-25.691-1.979-14.649 7.835-26.925 21.268-33.164 36.721-2.795 6.452-3.337 13.338-3.975 20.292-1.234 12.104-1.668 24.046-2.346 36.178-1.723 20.183-5.589 40.299-12.724 59.303l.082-.786c2.482 14.68 3.879 29.631 3.472 44.528.407 10.641 2.279 21.485-.624 32.058-.583 2.141-1.424 4.446-3.228 6.316-2.74 2.698-7.026 3.741-10.648 2.21-3.391-1.708-5.059-5.287-6.226-8.567-1.411-4.324-.773-8.743-.922-13.094a117 117 0 0 0-.855-12.498c-.475-6.317-3.065-12.443-3.649-18.679-.719-5.855-1.478-11.779-1.112-17.703.014-.433 0-.84-.068-1.247-1.166-4.717-3.798-3.361-6.565-.813-3.025 2.643-5.222 5.991-6.497 9.746-1.438 3.931-1.058 8.269-.434 12.335-3.052 14.734-5.873 29.645-10.757 43.986-2.021 5.598-5.412 10.654-6.727 16.51-.543 2.155-1.533 6.818-2.713 8.906-1.452 2.928-2.713 6.262-5.955 7.984-5.032 2.48-11.204 0-14.134-4.514-2.618-4.46-1.804-10.194.122-14.667 2.591-5.408 3.242-11.372 4.91-17.052 1.37-5.707 3.636-11.345 4.26-17.201.379-2.982-.028-5.802.094-8.879.136-3.199.814-6.249 1.357-9.163 1.343-6.56 2.387-13.474 4.788-19.939.204-.583.339-1.193.312-1.505 0-.162-.041-.176 0-.095.054.082.149.095.041.068-2.794-.407-4.802 2.386-6.186 5.287-1.03 2.168-1.505 4.581-1.885 6.953-1.017 3.335-2.035 6.683-2.876 10.058-1.437 5.829-2.97 11.847-5.33 17.418-3.174 8.106-6.579 16.944-9.604 25.145l-1.56 4.175-.786 2.087c-2.822 9.448-2.74 20.482-10.35 27.856-6.253 6.926-18.583 2.792-20.916-5.829-2.401-7.821.678-15.9 4.056-22.8a182 182 0 0 0 6.212-16.726c1.791-5.666 3.296-11.441 4.341-17.242.651-6.1 2.36-12.105 4.923-17.663a91 91 0 0 1 4.124-8.187c2.957-5.124 6.565-9.773 7.284-15.656.353-2.101-.122-4.771-2.279-5.164-.475-.054-1.492.867-2.17 1.992-3.418 5.138-3.771 11.129-6.118 16.646-2.021 4.175-5.1 7.618-7.446 11.495-3.188 5.028-6.186 10.206-8.817 15.52-3.866 7.753-7.108 16.727-10.024 24.928-2.604 9.353-13.958 18.977-22.096 9.081-3.31-3.836-3.296-9.325-2.089-13.921 1.166-5.937 2.631-11.833 4.49-17.594 1.695-5.3 7.379-18.841 9.562-24.751 6.525-14.789 14.568-28.791 22.151-43.024.325-.637 1.207-.759 1.723-.271 3.174 3.05 6.904 5.503 11.014 7.035 4.137 1.491 8.382 2.792 12.791 2.169 2.306-.352 4.991-.19 7.175.813 1.126.502 1.981.922 3.012 1.152 3.092.814 6.673-.081 9.861-.135 6.89-.38 13.89-.542 20.563 1.64 4.992 1.193 9.644 6.737 15.002 4.595.651-.406.963-1.22.977-2.209.108-4.338-3.378-7.822-6.755-10.126-5.589-3.741-12.642-3.89-19.112-2.901-4.639.665-9.278.217-13.781-.379l-3.364-.461c-3.351-.61-6.538.623-9.848 1.057-2.197.434-4.585.57-6.769.814l-6.727 1.016c-1.804.353-4.056.624-5.467-.894-2.075-2.088-1.438-4.203 1.329-4.948 2.144-.8 4.531-1.139 6.728-1.505 2.293-.339 4.232-1.613 6.525-1.924 1.967-.231 4.53-.732 5.914-1.83.081-.109.081-.122.068-.217-1.533-2.942-4.965-1.058-7.705-1.654-7.067-1.261-14.27-1.247-20.997-3.741-1.398-.597-2.537-2.386-1.927-3.972.638-1.504 2.252-2.06 3.704-2.291 1.641-.162 3.621.407 5.181.719 3.255.569 6.457 1.22 9.793.827 3.392-.312 6.891 0 10.201.813l-.814.949c-.787-2.02-2.713-2.725-4.802-2.887l-6.66-.963c-2.184-.244-4.395-1.206-6.484-1.694-3.893-.922-16.019-.325-14.011-6.967 2.807-5.978 11.38-.8 16.182-.678 1.248.203 7.175 1.111 8.274 1.328 1.655.285 3.255 1.288 4.761 1.844.99.379 1.967.569 2.998.488 1.22-.19 1.153-.122.474-.922-.664-.569-1.709-.583-2.916-.895-5.29-1.762-10.2-4.432-15.68-5.544-2.523-.366-7.23-1.274-6.932-4.73.312-2.034 2.266-3.498 4.26-3.335 6.945 1.166 13.917 2.183 20.536 4.69 6.348 2.969 13.008 4.46 19.994 3.552l-.367 1.098a42 42 0 0 1-4.883-5.829c-2.74-4.148-5.86-9.583-3.567-14.626.827-1.369 2.672-1.776 4.11-1.233 1.37.352 2.306 2.426 2.536 3.131 1.18 2.291 2.591 4.649 4.165 6.642 2.495 3.022 6.049 4.907 9.142 7.387 2.157 1.573 2.821 4.595 4.734 6.263 2.062 1.423 4.612 3.239 5.71 5.72.909 2.345 3.391 3.456 5.765 3.334 1.967-.081 3.445-1.274 5.182-2.223 7.379-2.25 14.649-4.866 21.54-8.336 2.753-1.369 5.48-2.806 8.111-4.378 2.537-1.654 5.643-2.996 6.592-5.571.936-2.467-.325-6.141-3.309-5.653-7.759.434-13.931 6.425-21.595 7.686-3.079.61-6.022.922-8.925 2.074l-4.232 1.708c-2.821 1.315-5.629 3.212-8.857 3.361-1.275.082-3.351.258-3.934-1.45-.244-1.6.732-2.887 1.94-3.714.705-.42 1.532-.732 2.292-.99 5.805-2.372 11.896-3.632 17.064-6.804 2.482-1.654 4.991-3.796 7.772-5.151 4.571-2.426 12.099-5.693 16.209-8.73 1.682-1.328 3.541-2.751 4.463-4.649.719-1.776-.149-4.053-1.655-5.164-3.852-2.644-8.206 1.22-11.57 3.239-5.127 3.606-11.313 5.151-16.766 8.174-5.683 3.077-11.733 5.991-17.131 9.488-2.252 1.519-6.552 3.227-8.885 1.058-.963-1.017-.447-2.86.611-3.443.461-.312.759-.434 1.098-.637 1.208-.624 2.347-1.491 3.717-1.993 3.608-2.277 7.026-5.11 10.417-7.753 1.777-1.559 3.107-3.714 5.399-4.69 2.957-1.098 5.344-2.901 8.098-4.392 1.315-.732 2.604-1.559 3.906-2.386l1.994-1.247c.719-.434 1.289-.732 1.669-1.152 1.939-2.142-.774-5.639-3.107-6.303a1.7 1.7 0 0 0-.664-.041c-1.736.881-3.961 2.44-5.846 3.253-5.399 2.657-10.879 5.517-16.02 8.648-3.174 2.454-7.04 4.216-10.336 6.412-2.048 1.708-3.662 3.822-5.927 5.408-3.446 2.888-9.848 3.348-12.357-1.07-2.103-3.809 2.509-5.056 4.218-7.334 1.316-2.169 2.876-4.486 4.517-6.574 3.079-4.392 7.026-8.146 10.431-12.254 1.641-2.06 3.689-4.066 3.296-5.91-.19-1.179-.827-2.399-1.872-2.683-.637-.055-1.18.325-1.858.732-2.035 1.409-4.056 3.199-5.819 5.056-3.011 3.402-6.375 7.116-10.472 9.434-2.482 2.101-3.838 4.825-5.819 7.699-3.174 4.541-7.311 8.702-12.547 10.803-2.36.922-4.395 2.386-6.456 4.04-14.419 11.874-27.047 27.11-45.224 33.386-11.312 3.904-25.405 6.316-36.338-.122-5.467-3.403-9.834-9.868-4.056-15.317 3.188-2.983 7.054-4.989 11.245-5.978 5.412-1.071 10.309-1.071 15.07-3.809 4.517-2.386 8.64-5.761 12.75-9.123 8.207-6.75 16.331-13.433 22.408-22.216 1.574-2.142 3.31-4.501 5.779-6.263 2.224-1.694 5.1-2.399 7.474-3.551 4.828-2.223 7.433-7.049 11.475-10.397 2.062-1.83 4.259-3.497 6.429-5.069 5.548-4.053 11.72-7.117 18.136-9.516 1.275-.474 2.645-.895 3.798-1.301 2.17-.759 3.866-2.549 5.236-4.392 4.394-6.344 4.584-14.409 3.011-21.783a217 217 0 0 0-3.269-15.547c-1.248-5.124-2.93-10.194-4.205-15.48-1.723-7.821-3.323-15.575-5.914-23.139-4.666-12.443-9.332-24.981-14.134-37.384-3.961-9.895-8.206-19.723-11.977-29.794-1.709-5.056-3.758-9.312-7.664-12.877-6.497-6.9-17.376-7.97-23.914-.868-3.35 4.284-2.875 10.587-2.577 15.887.692 10.654 4.435 20.4 7.935 30.458 3.405 10.112 6.877 20.386 8.925 31.041 1.085 5.3 1.764 10.762 2.238 16.076.923 10.532 3.147 20.969 5.697 31.176 2.74 10.316 8.261 20.048 9.238 30.919.542 4.162.691 10.207-3.527 13.121-4.897 3.308-10.214 1.017-13.103-3.565-4.924-6.709-5.941-15.642-7.867-23.436-3.486-15.521-7.23-31.028-13.293-45.762-2.021-4.866-4.151-9.746-6.742-14.178-2.821-4.365-5.67-9.462-7.65-14.409-2.035-4.731-3.608-10.532-5.127-15.385-4.259-12.538-8.546-25.09-15.084-36.599l-3.852-7.062c-5.873-10.491-6.728-17.39-21.486-15.48-2.441.366-4.815 1.112-7.135 2.129-4.693 1.938-8.789 3.836-8.898 9.23-.502 8.052 2.632 16.93 6.24 23.356 1.221 2.385 3.73 7.631 4.937 10.139 3.31 7.333 7.881 16.13 10.648 23.585 3.608 12.512 6.972 24.535 11.299 36.816 2.727 8.092 5.453 16.144 8.898 23.843 3.079 6.493 7.501 16.7 10.391 23.491 3.987 10.112 10.702 20.021 8.993 31.42-.651 3.85-1.994 11.983-7.596 10.682-3.242-1.302-5.195-4.094-6.24-7.266-1.37-3.727-3.716-7.441-5.249-11.698-1.465-3.7-3.866-7.441-5.887-10.979-4.368-7.374-8.559-14.748-13.578-21.512-3.676-5.015-8.342-10.248-10.973-16.144-3.459-7.699-8.776-15.168-11.53-23.193-2.699-8.133-6.864-15.493-10.539-23.206-3.215-7.401-5.928-15.832-12.073-21.213-3.024-2.196-7.134-3.172-10.81-2.752-7.691.895-14.121 8.025-12.941 15.9.489 5.07 4.205 9.353 5.847 14.179 3.716 9 7.067 18.109 9.752 27.421-.597-1.301 23.331 51.048 23.168 50.737 2.537 4.893 11.652 27.326 15.233 30.932 6.429 6.981 12.614 14.68 14.839 24.155 1.75 7.184 1.343 15.127-2.957 21.512-1.858 3.172-6.28 6.588-10.472 4.907-6.131-1.966-9.495-7.821-12.94-12.661-2.699-3.619-6.036-6.804-9.332-10.112-3.256-3.293-6.66-6.303-10.431-8.878-3.784-2.467-8.193-4.812-11.76-7.726-7.474-5.788-14.229-12.336-20.645-19.235-5.602-6.113-12.954-14.883-18.474-21.105-4.585-6.412-16.156-11.888-21.405-3.565-4.26 7.564-3.703 17.987 1.424 25.131a266 266 0 0 0 8.437 11.061c5.86 7.211 11.991 14.205 18.678 20.658 6.66 6.628 13.008 13.554 18.624 21.105 5.222 7.862 11.408 14.436 18.515 20.603 6.945 6.235 13.714 12.728 20.306 19.343 3.025 9.34 5.982 18.814 9.915 27.869 3.676 8.974 8.519 17.405 13.524 25.755 12.56 20.63 26.152 41.261 39.445 61.499 2.726 4.012 5.371 8.146 8.545 11.765 3.296 3.498 7.054 6.656 10.743 9.814 6.524 5.639 15.924 12.972 22.707 18.408 3.798 3.023 7.799 5.937 10.946 9.746 3.12 3.809 5.439 8.228 6.931 12.891a42.4 42.4 0 0 1 1.886 14.504c0 .257-.434.244-.407-.014z" class="dark"/></svg>