<svg xmlns="http://www.w3.org/2000/svg" width="512" height="512" fill="none"><style>@media (prefers-color-scheme:dark){.dark{fill:#fff}.light{fill:#000}}</style><path fill="#fff" d="M0 0h512v512H0z" class="light"/><path fill="#000" d="M271.331 491.72a4.436 4.436 0 0 1-4.439-4.445V249.48l2.753-1.126c3.995-1.66 7.635-3.764 10.89-6.253 9.914-7.674 21.545-23.29 22.018-23.942a191 191 0 0 0 4.972-7.112l.059-.089c3.167-4.77 5.061-8.208 7.073-11.852.74-1.363 1.51-2.727 2.338-4.208 3.788-6.638 6.985-11.32 10.654-16.712 8.701-12.742 13.081-19.143 18.467-24.121a97 97 0 0 1 2.16-1.926c2.279-1.985 3.522-3.082 4.795-5.423 3.196-5.926 2.722-9.778 1.746-12-2.516-5.719-10.98-6.994-15.093-6.905-5.061.149-8.76 2.43-13.051 5.067-7.754 4.801-12.164 10.905-15.685 15.794a80.5 80.5 0 0 0-7.932 13.66l-1.213 2.667-2.93-.059c-7.073-.148-14.057.77-20.745 2.756-12.844 3.793-21.19 10.519-24.741 13.393-7.961 6.401-14.531 14.253-19.562 23.321-1.184 2.133-3.877 2.933-6.037 1.718a4.43 4.43 0 0 1-1.717-6.045c5.594-10.074 12.903-18.816 21.752-25.927 3.966-3.201 13.258-10.698 27.789-14.994 6.688-1.985 13.584-3.023 20.568-3.141 2.19-4.386 4.706-8.593 7.576-12.564 3.788-5.245 8.967-12.445 18.23-18.164 4.943-3.052 10.003-6.193 17.461-6.401 8.257-.178 19.355 2.845 23.468 12.208 1.776 4.03 2.841 10.727-2.071 19.795-2.013 3.733-4.203 5.659-6.748 7.882a81 81 0 0 0-1.983 1.778c-4.646 4.267-8.819 10.371-17.135 22.579-3.729 5.482-6.688 9.779-10.299 16.12a122 122 0 0 0-2.278 4.089c-2.013 3.615-4.084 7.378-7.429 12.445-.739 1.304-2.249 3.467-5.327 7.586-1.302 1.748-13.051 17.424-23.734 25.691-3.107 2.4-6.511 4.474-10.18 6.223v231.928a4.436 4.436 0 0 1-4.44 4.445zM164.97 205.149c-2.063 0-3.865-1.477-4.272-3.603l-.697-3.721a98 98 0 0 1-1.715-18.191v-97.69c0-6.084 2.558-11.902 6.975-15.977a21.2 21.2 0 0 1 16.391-5.463c10.665 1.092 19.035 10.926 19.035 22.414v60.421c0 2.451-1.947 4.43-4.359 4.43s-4.359-1.979-4.359-4.43V82.918c0-7-4.912-12.964-11.189-13.614-3.604-.355-7.033.768-9.678 3.219-2.615 2.392-4.126 5.847-4.126 9.42v97.691c0 5.522.523 11.074 1.54 16.508l.697 3.75c.436 2.392-1.104 4.725-3.458 5.168a4 4 0 0 1-.814.089z" class="dark"/><path fill="#000" d="M196.421 146.635c-2.494 0-4.507-1.975-4.507-4.423V55.609c0-11.854 9.824-21.526 21.932-21.526s21.931 9.642 21.931 21.526v78.524c0 2.447-2.013 4.423-4.506 4.423s-4.507-1.976-4.507-4.423V55.609c0-6.989-5.798-12.68-12.918-12.68-7.121 0-12.919 5.691-12.919 12.68v86.633c0 2.447-2.013 4.423-4.506 4.423z" class="dark"/><path fill="#000" d="M231.361 139.354c-2.411 0-4.357-1.987-4.357-4.449v-95.25c0-11.925 9.497-21.655 21.201-21.655s21.2 9.7 21.2 21.655v86.588c0 2.462-1.946 4.449-4.356 4.449s-4.356-1.987-4.356-4.449V39.655c0-7.03-5.605-12.756-12.488-12.756s-12.488 5.725-12.488 12.755v95.251c0 2.462-1.946 4.449-4.356 4.449" class="dark"/><path fill="#000" d="M299.659 165.642a5 5 0 0 1-1.923-.414c-2.163-1.005-3.154-3.519-2.253-5.678V54.21c0-7.01-5.798-12.717-12.919-12.717-7.12 0-12.918 5.708-12.918 12.717v75.501c0 2.454-2.013 4.436-4.507 4.436s-4.506-1.982-4.506-4.436V54.21c0-11.889 9.824-21.589 21.931-21.589s21.932 9.67 21.932 21.589v107.322l-.751 1.597a4.53 4.53 0 0 1-4.086 2.543zm115.158 329.002a4.44 4.44 0 0 1-4.439-4.45v-63.825l1.716-1.335c7.873-6.113 17.55-17.952 22.048-23.975 2.456-3.324 4.676-6.647 4.972-7.122l.059-.089c3.167-4.777 5.061-8.219 7.073-11.869.74-1.364 1.51-2.729 2.338-4.213 3.788-6.647 6.984-11.335 10.654-16.735 8.701-12.789 13.081-19.168 18.467-24.153a97 97 0 0 1 2.16-1.929c2.279-1.988 3.522-3.086 4.795-5.43 2.545-4.688 3.136-8.842 1.746-12.017-2.486-5.697-10.95-7.032-15.094-6.914-5.06.149-8.759 2.434-13.051 5.074-7.753 4.807-12.133 10.89-15.684 15.816a80.6 80.6 0 0 0-7.932 13.678l-1.213 2.671-2.93-.059c-7.073-.149-14.057.771-20.745 2.759-12.844 3.798-21.19 10.534-24.741 13.412-7.961 6.409-14.531 14.272-19.562 23.352-1.184 2.136-3.906 2.937-6.037 1.721a4.44 4.44 0 0 1-1.717-6.053c5.594-10.089 12.903-18.842 21.752-25.963 3.966-3.205 13.258-10.712 27.789-15.015 6.659-1.988 13.584-3.026 20.568-3.145 2.19-4.391 4.705-8.634 7.576-12.581 3.788-5.252 8.967-12.462 18.23-18.189 4.913-3.056 10.003-6.201 17.461-6.409 8.286-.208 19.354 2.849 23.468 12.225 1.776 4.035 2.841 10.771-2.072 19.851-2.012 3.738-4.202 5.637-6.747 7.863a79 79 0 0 0-1.983 1.78c-4.646 4.273-8.819 10.385-17.135 22.581-3.729 5.489-6.688 9.821-10.299 16.141a124 124 0 0 0-2.279 4.095c-2.012 3.62-4.084 7.388-7.428 12.462-.74 1.306-2.249 3.472-5.297 7.596-1.243 1.662-11.867 15.845-22.018 24.331v59.523a4.44 4.44 0 0 1-4.439 4.45zm-101.516-2.924c-2.411 0-4.356-1.981-4.356-4.435v-62.826c-2.266-2.336-3.776-4.199-3.95-4.435-6.505-8.131-10.571-16.409-12.14-24.658l-4.443-24.036V264.746c0-11.885 9.497-21.583 21.201-21.583 11.703 0 21.2 9.668 21.2 21.583v61.467c0 2.454-1.946 4.435-4.356 4.435s-4.357-1.981-4.357-4.435v-61.467c0-7.007-5.605-12.713-12.487-12.713-6.883 0-12.488 5.706-12.488 12.713v106.14l4.298 22.795c1.278 6.771 4.763 13.748 10.339 20.725 0 .03 1.887 2.366 4.559 4.967l1.336 1.301v66.582c0 2.454-1.946 4.435-4.356 4.435z" class="dark"/><path fill="#000" d="M326.547 330.889c-2.494 0-4.506-2.001-4.506-4.48v-87.758c0-12.008 9.824-21.805 21.931-21.805s21.932 9.767 21.932 21.805v79.544c0 2.479-2.013 4.48-4.507 4.48s-4.506-2.001-4.506-4.48v-79.544c0-7.08-5.799-12.844-12.919-12.844s-12.919 5.764-12.919 12.844v87.758c0 2.479-2.012 4.48-4.506 4.48" class="dark"/><path fill="#000" d="M361.488 322.117c-2.411 0-4.357-1.988-4.357-4.45v-95.25c0-11.925 9.497-21.655 21.201-21.655s21.2 9.7 21.2 21.655v86.588c0 2.462-1.946 4.45-4.356 4.45s-4.356-1.988-4.356-4.45v-86.588c0-7.03-5.605-12.756-12.488-12.756s-12.488 5.726-12.488 12.756v95.25c0 2.462-1.946 4.45-4.356 4.45" class="dark"/><path fill="#000" d="M429.785 348.405a5 5 0 0 1-1.923-.414c-2.193-1.006-3.154-3.519-2.253-5.678V236.972c0-7.009-5.799-12.717-12.919-12.717s-12.918 5.708-12.918 12.717v75.501c0 2.455-2.013 4.436-4.507 4.436s-4.506-1.981-4.506-4.436v-75.501c0-11.889 9.824-21.589 21.931-21.589s21.932 9.671 21.932 21.589v107.352l-.751 1.567a4.53 4.53 0 0 1-4.086 2.543zm-333.593 62.9a4.52 4.52 0 0 1-2.723-.912c-10.714-8.233-22.434-23.759-23.737-25.493-2.782-3.705-5.209-7.381-5.297-7.528-3.345-5.028-5.417-8.733-7.4-12.32-.74-1.324-1.48-2.647-2.308-4.088-3.64-6.292-6.571-10.585-10.3-15.996-8.317-12.085-12.49-18.171-17.137-22.406a80 80 0 0 0-1.983-1.764c-2.545-2.205-4.736-4.117-6.748-7.821-4.913-8.998-3.848-15.644-2.072-19.672 4.114-9.292 15.302-12.35 23.47-12.115 7.46.206 12.55 3.323 17.463 6.322 9.264 5.675 14.443 12.821 18.232 18.025a90.5 90.5 0 0 1 7.577 12.468 77 77 0 0 1 20.57 3.087c14.532 4.264 23.826 11.703 27.792 14.879 8.849 7.086 16.16 15.731 21.754 25.729a4.396 4.396 0 0 1-1.747 5.998c-2.131 1.176-4.854.412-6.038-1.705-5.031-8.998-11.602-16.79-19.534-23.142-3.551-2.852-11.898-9.527-24.743-13.29a68.5 68.5 0 0 0-20.748-2.735l-2.93.059-1.213-2.647a80 80 0 0 0-7.932-13.555c-3.522-4.852-7.932-10.909-15.687-15.673-4.292-2.617-7.991-4.881-13.052-5.028-4.144-.117-12.609 1.176-15.095 6.822-1.39 3.146-.799 7.263 1.746 11.909 1.273 2.293 2.516 3.411 4.795 5.381.651.588 1.362 1.205 2.16 1.911 5.417 4.911 9.768 11.262 18.47 23.935 3.7 5.352 6.866 9.998 10.684 16.584.829 1.471 1.598 2.823 2.368 4.176 2.012 3.617 3.907 6.998 7.044 11.732 0 .03 2.397 3.617 5.031 7.145.504.647 12.076 16.114 22.02 23.759 1.954 1.5 2.309 4.264.8 6.175-.858 1.117-2.19 1.706-3.522 1.706zm97.615 80.385c-2.494 0-4.507-1.986-4.507-4.446v-85.529l1.652-1.334a53.6 53.6 0 0 0 7.511-7.441c5.768-6.996 9.374-13.993 10.696-20.781l4.446-22.857V242.873c0-7.026-5.798-12.748-12.919-12.748-7.12 0-12.918 5.722-12.918 12.748v61.634c0 2.46-2.013 4.447-4.507 4.447s-4.506-1.987-4.506-4.447v-61.634c0-11.917 9.824-21.641 21.931-21.641s21.932 9.694 21.932 21.641l-.09 107.703-4.537 23.272c-1.622 8.242-5.828 16.572-12.558 24.725a59 59 0 0 1-7.15 7.322v81.378c0 2.461-2.013 4.447-4.507 4.447z" class="dark"/><path fill="#000" d="M183.022 308.958c-2.494 0-4.507-1.976-4.507-4.423v-86.633c0-6.989-5.798-12.68-12.918-12.68-7.121 0-12.919 5.691-12.919 12.68v78.524c0 2.447-2.013 4.423-4.506 4.423s-4.507-1.976-4.507-4.423v-78.524c0-11.854 9.824-21.526 21.932-21.526s21.931 9.642 21.931 21.526v86.633c0 2.447-2.013 4.423-4.506 4.423" class="dark"/><path fill="#000" d="M149.393 300.185c-2.494 0-4.507-1.963-4.507-4.396v-94.102c0-6.946-5.798-12.602-12.918-12.602-7.121 0-12.919 5.656-12.919 12.602v85.545c0 2.432-2.013 4.396-4.506 4.396s-4.507-1.964-4.507-4.396v-85.545c0-11.782 9.824-21.394 21.932-21.394s21.931 9.583 21.931 21.394v94.102c0 2.433-2.013 4.396-4.506 4.396" class="dark"/><path fill="#000" d="M79.783 327.935a4.56 4.56 0 0 1-4.086-2.543l-.75-1.538V216.503c0-11.889 9.823-21.589 21.93-21.589 12.108 0 21.932 9.671 21.932 21.589v75.501c0 2.454-2.013 4.436-4.506 4.436s-4.507-1.982-4.507-4.436v-75.501c0-7.009-5.798-12.717-12.918-12.717s-12.919 5.708-12.919 12.717v105.34c.901 2.189-.09 4.673-2.253 5.708a4.4 4.4 0 0 1-1.893.414zM95.415 491.72c-2.427 0-4.386-2.003-4.386-4.485v-80.218c0-2.482 1.959-4.485 4.386-4.485s4.386 2.003 4.386 4.485v80.218c0 2.482-1.959 4.485-4.386 4.485" class="dark"/></svg>