<?xml version="1.0" encoding="UTF-8"?><svg xmlns="http://www.w3.org/2000/svg" viewBox="0 0 794.2 794.2"><defs><style>.cls-1{fill:#317dbd;}.cls-2{fill:#1d4e8a;}.cls-3{fill:#40b7ed;}.cls-3,.cls-4,.cls-5{opacity:.15;}.cls-4,.cls-6{fill:#009e62;}.cls-5{fill:#fff200;}.cls-7{fill:#cacdcb;}.cls-8{fill:#006d62;}.cls-9{fill:#85d2f0;}.cls-10{fill:#1790cc;}.cls-11{fill:#fcc218;}.cls-12{fill:#ef4937;}.cls-13{fill:#21b14b;}.cls-14{fill:#d35d00;}</style></defs><g id="Layer_2"><rect class="cls-3" width="794.2" height="794.2"/><path class="cls-5" d="M-131.27,883.53c-65.1-72.06,166.85-318.88,635.65-436.29C808.07,371.19,735.43,56.33,762.81-17.25c27.38-73.58,669.11,392.56,669.11,392.56l-843.51,1073.64L-131.27,883.53Z"/><path class="cls-4" d="M983.66,101.69c65.1,72.06-166.85,318.88-635.65,436.29C44.32,614.03,116.96,928.89,89.58,1002.47c-27.38,73.58-669.11-392.56-669.11-392.56L263.98-463.73,983.66,101.69Z"/></g><g id="Layer_5"><path class="cls-7" d="M118.41,222.99c-1.51,1.57-2.32,3.8-4.95,4.82.93-2.5,2.93-3.21,4.95-4.82Z"/><path class="cls-7" d="M107.85,232.35c1.38-1.58,2.49-3.2,4.63-4.37-1.1,1.8-2.23,3.32-4.63,4.37Z"/><path class="cls-11" d="M394.34,260.6c-68.16,1.45-132.8,27.21-183.32,73.96l-66.16-66.16c66.99-65.84,156.29-102.75,249.42-103.19l.06,95.39Z"/><path class="cls-12" d="M207.04,338.2c-50.26,48.75-80.28,113.19-84.47,183.21l-84.85.02c.66-93.54,37.68-182.65,103.31-249.13l66.01,65.9Z"/><path class="cls-10" d="M585.68,331.99c-51.38-45.99-116.39-71.27-185.89-71.41l.02-95.35c94.04.54,182.68,37.63,249.45,103.08l-63.58,63.68Z"/><path class="cls-13" d="M641.23,401.23l69.08-46.17c1.66-1.31-1.82-4.23-2.74-5.39s-.73-4.74-3.21-5.22l-69.13,37.52c-2.04,1.11-3.62,1.85-5.49,1.27-10.74-17.24-24.46-32.41-40.08-47.59l63.41-63.5c65.64,66.48,102.8,155.55,103.42,249.38l-79.65.05c-2.6-43.06-14.78-83.8-35.61-120.35Z"/><rect class="cls-6" x="525.02" y="374.53" width="61.64" height="5.61" transform="translate(-104 503.6) rotate(-45)"/><rect class="cls-6" x="336.14" y="288.45" width="5.7" height="61.51" transform="translate(-71.05 98.58) rotate(-15)"/><rect class="cls-6" x="583.25" y="474.99" width="61.54" height="5.77" transform="translate(-102.91 175.55) rotate(-15.03)"/><rect class="cls-6" x="177.32" y="447.12" width="5.75" height="61.57" transform="translate(-328.06 528.31) rotate(-75)"/><rect class="cls-6" x="424.49" y="316.36" width="61.47" height="5.65" transform="translate(28.85 676) rotate(-74.96)"/><rect class="cls-6" x="199.73" y="393" width="5.78" height="61.52" transform="translate(-265.76 388.39) rotate(-60.13)"/><rect class="cls-6" x="478.64" y="338.8" width="61.46" height="5.64" transform="translate(-41.08 612.12) rotate(-60.02)"/><rect class="cls-6" x="282.01" y="310.87" width="5.65" height="61.51" transform="translate(-132.73 188.39) rotate(-30.03)"/><rect class="cls-6" x="141.77" y="533.14" width="61.54" height="5.52"/><path class="cls-6" d="M651.89,538.68l-60.83-.1c-.17-1.83-.61-4.33.49-5.33h60.13c1.14.93,1.01,3.58.21,5.43Z"/><rect class="cls-6" x="235.59" y="346.51" width="5.53" height="61.57" transform="translate(-197.01 279.21) rotate(-45.02)"/><rect class="cls-6" x="394.33" y="280.75" width="5.52" height="61.53"/><path class="cls-1" d="M707.57,349.68l-274.17,164.28c-11.13-18.38-34.25-25.53-53.83-16.65-19.57,8.88-29.41,30.98-22.91,51.45s27.3,32.86,48.41,28.82,35.87-23.21,34.36-44.64l33.64-21.13c11.07,39.11-6.48,79.82-43.76,96.46-36.56,16.32-79.65,2.65-100.2-31.63-20.65-34.44-12.23-78.94,19.57-103.45,31.58-24.34,76.76-21.59,105.24,7.47l172.24-93.8c2.03-1.11,3.42-1.71,3.57-3.61,1.88.58,3.45-.16,5.49-1.27l69.13-37.52c2.48.48,2.33,4.12,3.21,5.22Z"/><path class="cls-2" d="M641.23,401.23l-168.15,110.58-33.64,21.13c-.47-6.72-2.54-13.22-6.03-18.98l274.17-164.28c.92,1.15,4.41,4.07,2.74,5.39l-69.08,46.17Z"/><ellipse class="cls-9" cx="397.11" cy="535.92" rx="42.43" ry="42.41"/><path class="cls-8" d="M720.42,586.74c-16.03,0-29.06-13.04-29.06-29.06s13.04-29.06,29.06-29.06,29.06,13.04,29.06,29.06-13.04,29.06-29.06,29.06ZM720.42,532.63c-13.82,0-25.06,11.24-25.06,25.06s11.24,25.06,25.06,25.06,25.06-11.24,25.06-25.06-11.24-25.06-25.06-25.06Z"/><path class="cls-8" d="M720.42,573.58c-5.66,0-11.09-2.4-14.91-6.59-.74-.82-.68-2.08.13-2.83.82-.74,2.08-.68,2.83.13,3.06,3.36,7.41,5.29,11.95,5.29s8.89-1.93,11.95-5.29c.74-.82,2.01-.88,2.83-.13.82.74.88,2.01.13,2.83-3.81,4.19-9.25,6.59-14.91,6.59h0Z"/><path class="cls-8" d="M720.42,573.58c-5.66,0-11.09-2.4-14.91-6.59-.74-.82-.68-2.08.13-2.83.82-.74,2.08-.68,2.83.13,3.06,3.36,7.41,5.29,11.95,5.29s8.89-1.93,11.95-5.29c.74-.82,2.01-.88,2.83-.13.82.74.88,2.01.13,2.83-3.81,4.19-9.25,6.59-14.91,6.59h0Z"/><path class="cls-8" d="M714.46,552.81c-.54,0-1.08-.22-1.48-.65-.98-1.07-2.78-1.07-3.75,0-.74.82-2.01.88-2.83.13-.82-.74-.88-2.01-.13-2.83,1.24-1.36,3-2.14,4.83-2.14s3.6.78,4.83,2.14c.74.82.68,2.08-.13,2.83-.38.35-.87.52-1.35.52h.01Z"/><path class="cls-8" d="M726.38,552.81c-.48,0-.96-.17-1.35-.52-.82-.74-.88-2.01-.13-2.83,1.24-1.36,3-2.14,4.83-2.14s3.6.78,4.83,2.14c.74.82.68,2.08-.13,2.83-.82.74-2.08.68-2.83-.13-.97-1.07-2.77-1.07-3.75,0-.39.43-.94.65-1.48.65h.01Z"/><path class="cls-14" d="M82.59,586.74c-16.03,0-29.06-13.04-29.06-29.06s13.04-29.06,29.06-29.06,29.06,13.04,29.06,29.06-13.04,29.06-29.06,29.06ZM82.59,532.63c-13.82,0-25.06,11.24-25.06,25.06s11.24,25.06,25.06,25.06,25.06-11.24,25.06-25.06-11.24-25.06-25.06-25.06Z"/><path class="cls-14" d="M96.02,570.94c-.54,0-1.09-.22-1.48-.65-3.06-3.36-7.41-5.29-11.95-5.29s-8.89,1.93-11.95,5.29c-.74.82-2.01.88-2.83.13-.82-.74-.88-2.01-.13-2.83,3.81-4.19,9.25-6.59,14.91-6.59s11.09,2.4,14.91,6.59c.74.82.68,2.08-.13,2.83-.38.35-.87.52-1.34.52h-.02Z"/><path class="cls-14" d="M76.63,552.81c-.54,0-1.08-.22-1.48-.65-.98-1.07-2.78-1.07-3.75,0-.74.82-2.01.88-2.83.13-.82-.74-.88-2.01-.13-2.83,1.24-1.36,3-2.14,4.83-2.14s3.6.78,4.83,2.14c.74.82.68,2.08-.13,2.83-.38.35-.87.52-1.35.52h.01Z"/><path class="cls-14" d="M88.55,552.81c-.48,0-.96-.17-1.35-.52-.82-.74-.88-2.01-.13-2.83,1.24-1.36,3-2.14,4.83-2.14s3.6.78,4.83,2.14c.74.82.68,2.08-.13,2.83-.82.74-2.08.68-2.83-.13-.97-1.07-2.77-1.07-3.75,0-.39.43-.94.65-1.48.65h.01Z"/></g></svg>